<svg width="32" height="32" viewBox="0 0 32 32" fill="none" xmlns="http://www.w3.org/2000/svg">
<path d="M16.4036 0.00666965C9.90509 -0.212335 4.56836 4.99038 4.56836 11.4394C4.56836 18.7584 11.5921 24.0701 15.5289 31.7089C15.7287 32.0967 16.2871 32.0972 16.4876 31.7094C20.049 24.836 26.1359 20.227 27.2639 13.6053C28.4319 6.75313 23.3506 0.240877 16.4036 0.00666965ZM16.0077 17.4314C12.6984 17.4314 10.0157 14.7486 10.0157 11.4394C10.0157 8.13027 12.6985 5.44745 16.0077 5.44745C19.3169 5.44745 21.9997 8.13027 21.9997 11.4394C21.9997 14.7486 19.3169 17.4314 16.0077 17.4314Z" fill="#E31625"/>
</svg>
