<svg width="26" height="26" viewBox="0 0 26 26" fill="none" xmlns="http://www.w3.org/2000/svg">
<path d="M25.9876 20.5131C26.0427 20.9352 25.9141 21.3022 25.6022 21.6141L21.9415 25.2472C21.7764 25.4307 21.5608 25.5868 21.2947 25.7151C21.0287 25.8436 20.7672 25.9261 20.5104 25.9628C20.4921 25.9628 20.4369 25.9675 20.3451 25.9767C20.2535 25.9858 20.1342 25.9905 19.9874 25.9905C19.6387 25.9905 19.0744 25.9309 18.2945 25.8115C17.5147 25.6922 16.5605 25.3986 15.4321 24.9308C14.3034 24.4629 13.0236 23.7609 11.5924 22.8252C10.1612 21.8895 8.63811 20.6049 7.02334 18.9717C5.73887 17.7056 4.6746 16.4945 3.83052 15.3386C2.98644 14.1825 2.3075 13.1136 1.79372 12.1319C1.27988 11.1502 0.894542 10.2603 0.637648 9.46207C0.380754 8.66386 0.206433 7.97575 0.114685 7.39774C0.022937 6.81973 -0.0137622 6.36558 0.00458739 6.03528C0.022937 5.70499 0.0321118 5.5215 0.0321118 5.4848C0.0688109 5.2279 0.151384 4.96642 0.279831 4.70035C0.408278 4.43428 0.564249 4.21868 0.747745 4.05353L4.40849 0.392787C4.66538 0.135893 4.95897 0.00744629 5.28927 0.00744629C5.52781 0.00744629 5.73883 0.0762572 5.92233 0.213879C6.10582 0.351501 6.26179 0.521235 6.39024 0.72308L9.33535 6.31053C9.50049 6.60412 9.54637 6.92524 9.47297 7.27388C9.39957 7.62252 9.2436 7.91612 9.00505 8.15466L7.65636 9.50336C7.61966 9.54005 7.58755 9.59969 7.56002 9.68226C7.5325 9.76484 7.51874 9.83365 7.51874 9.8887C7.59214 10.274 7.75728 10.7144 8.01418 11.2099C8.23437 11.6503 8.57384 12.187 9.03258 12.82C9.49132 13.4531 10.1427 14.1825 10.9868 15.0082C11.8125 15.8524 12.5465 16.5083 13.1888 16.9763C13.8309 17.444 14.3678 17.7882 14.799 18.0084C15.2302 18.2286 15.5605 18.3616 15.7898 18.4074L16.1338 18.4762C16.1705 18.4762 16.2302 18.4624 16.3127 18.4349C16.3953 18.4074 16.4549 18.3753 16.4917 18.3385L18.0605 16.7421C18.391 16.4486 18.7762 16.3018 19.2166 16.3018C19.5286 16.3018 19.7762 16.3568 19.9597 16.4669H19.9872L25.2993 19.6047C25.6848 19.8434 25.9141 20.1461 25.9876 20.5131Z" fill="#E31625"/>
</svg>
