<svg width="77" height="77" viewBox="0 0 77 77" fill="none" xmlns="http://www.w3.org/2000/svg">
<g clip-path="url(#clip0)">
<path d="M75.9038 20.2194C75.9036 20.2194 75.9036 20.2194 75.9035 20.2194L75.9009 20.2168L70.9308 19.5077C70.2322 19.4082 69.7466 18.7613 69.846 18.0627C69.8938 17.727 70.0732 17.4242 70.3443 17.2207L74.3613 14.208C74.9259 13.7846 75.0402 12.9838 74.6168 12.4193L70.0173 6.28648C69.5939 5.72191 68.7931 5.60756 68.2285 6.03094L64.2128 9.04367C63.6507 9.47025 62.8492 9.36038 62.4227 8.7982C62.2155 8.52526 62.1267 8.18045 62.1762 7.84139L62.8866 2.87128C62.9868 2.17272 62.5017 1.52542 61.8033 1.42512C61.8028 1.42512 61.8024 1.42496 61.8019 1.42496L54.2177 0.341506C53.5193 0.241209 52.8717 0.726083 52.7714 1.42465C52.7714 1.42481 52.7714 1.42481 52.7714 1.42496L52.061 6.39508C51.9615 7.09364 51.3145 7.57931 50.6159 7.47981C50.2802 7.43206 49.9774 7.25271 49.774 6.98152L46.7625 2.96455C46.3391 2.39998 45.5383 2.28563 44.9738 2.70902L41.1344 5.59015C39.3974 5.40553 37.6457 5.40553 35.9087 5.59015C24.5334 6.89033 15.6129 15.9621 14.504 27.3577C14.4695 27.7193 14.4568 28.0783 14.4389 28.4373H14.0556C13.4493 28.4384 12.9272 28.8655 12.806 29.4595L11.9232 33.6579L8.38659 31.2188C7.87904 30.8686 7.19357 30.931 6.75757 31.367L2.92458 35.2C2.48921 35.6358 2.42693 36.3204 2.77637 36.8278L5.20393 40.3579L1.00425 41.2408C0.416841 41.3695 -0.00127474 41.8903 2.92015e-06 42.4916V47.6023C-0.000316496 48.2066 0.423069 48.7285 1.01447 48.8531L5.21415 49.736L2.78659 53.2662C2.43715 53.7736 2.49943 54.4581 2.9348 54.8939L6.76779 58.7269C7.20379 59.1629 7.88926 59.2254 8.39681 58.8751L11.927 56.4412L12.8099 60.6408C12.9311 61.2348 13.4532 61.6619 14.0594 61.663H19.1701C19.7744 61.6633 20.2963 61.2399 20.4209 60.6485L21.3038 56.4488L24.834 58.8764C25.3413 59.2258 26.0259 59.1635 26.4617 58.7282L28.4459 56.7376V60.3789C28.4517 62.1966 29.4254 63.8733 31.0012 64.7792V71.8779C31.0012 74.7004 33.2894 76.9886 36.1119 76.9886H41.2225C44.0451 76.9886 46.3332 74.7004 46.3332 71.8779V64.7792C47.909 63.8733 48.8828 62.1966 48.8885 60.3789V55.3219C48.9232 53.1941 50.0364 51.2297 51.8438 50.1065C52.9041 49.4187 53.9096 48.6497 54.8514 47.8067L53.147 45.903C52.3045 46.6581 51.4044 47.3463 50.4549 47.9613C47.918 49.5536 46.365 52.3268 46.3332 55.3219V60.3789C46.3332 61.7903 45.1892 62.9343 43.7779 62.9343H33.5566C32.1452 62.9343 31.0012 61.7903 31.0012 60.3789V55.2159C30.9717 52.2774 29.4431 49.5578 26.9485 48.0048C16.8219 41.6417 13.7708 28.2743 20.1339 18.1477C24.0819 11.8646 30.972 8.04039 38.3925 8.01388C38.3735 8.05939 38.3567 8.10587 38.3427 8.15314C38.2953 8.48853 38.3831 8.82919 38.5867 9.09989L41.5982 13.1156C41.9157 13.5265 41.9462 14.0909 41.6748 14.5338C41.4136 14.9794 40.9084 15.2225 40.3972 15.1484L35.4271 14.438C34.7285 14.3378 34.0812 14.8229 33.9809 15.5213C33.9809 15.5217 33.9808 15.5222 33.9808 15.5227L32.896 23.1108C32.7959 23.8092 33.2809 24.4566 33.9793 24.5569C33.9798 24.5569 33.9803 24.5571 33.9808 24.5571L38.9509 25.2674C39.6494 25.3669 40.1351 26.0139 40.0356 26.7125C39.9878 27.0482 39.8085 27.351 39.5373 27.5545L35.5216 30.5659C34.957 30.9893 34.8427 31.7901 35.2661 32.3546L39.8657 38.4874C40.2891 39.052 41.0898 39.1664 41.6544 38.743L45.6714 35.7315C46.2364 35.3089 47.0372 35.4244 47.4598 35.9896C47.662 36.26 47.749 36.5995 47.7016 36.9338L46.9925 41.9039C46.8922 42.6023 47.3771 43.2499 48.0756 43.3502C48.0758 43.3502 48.0758 43.3502 48.0759 43.3502L55.6653 44.435C55.725 44.4426 55.7852 44.4465 55.8454 44.4465C56.4815 44.4473 57.0212 43.98 57.1116 43.3502L57.8207 38.3801C57.9202 37.6815 58.5672 37.1959 59.2657 37.2954C59.6014 37.3431 59.9042 37.5225 60.1077 37.7937L63.1204 41.8094C63.5438 42.3739 64.3446 42.4883 64.9092 42.0649L71.0419 37.4653C71.6065 37.0419 71.7209 36.2411 71.2975 35.6766L68.286 31.6609C67.97 31.2493 67.9395 30.6859 68.2094 30.2427C68.4651 29.7912 68.9748 29.5465 69.487 29.6294L74.4571 30.3385C75.1555 30.4388 75.8032 29.9538 75.9035 29.2554C75.9035 29.2552 75.9035 29.2552 75.9035 29.255L76.9869 21.6657C77.0872 20.9671 76.6023 20.3197 75.9038 20.2194ZM33.5566 65.4896H43.7779V68.0449H33.5566V65.4896ZM33.5566 70.6002H43.7779V71.8779C43.7779 73.2892 42.6339 74.4332 41.2225 74.4332H36.1119C34.7006 74.4332 33.5566 73.2892 33.5566 71.8779V70.6002ZM23.3851 48.5669C24.0827 49.1374 24.8116 49.6686 25.5686 50.1576C26.7758 50.9205 27.6846 52.0748 28.1431 53.4272L25.4025 56.1626L22.7488 54.333C21.5868 53.5322 19.9956 53.8252 19.1947 54.9872C19.0027 55.2659 18.8679 55.5799 18.7983 55.9109L18.1288 59.1013H15.0918L14.4223 55.916C14.1316 54.535 12.7765 53.6511 11.3955 53.9417C11.0644 54.0114 10.7504 54.1462 10.4717 54.3381L7.81675 56.1626L5.48885 53.8398L7.31718 51.1874C8.11876 50.0259 7.82681 48.4345 6.66526 47.633C6.38641 47.4405 6.0721 47.3054 5.74055 47.2356L2.55533 46.5648V43.5291L5.74055 42.8583C7.12106 42.5656 8.00297 41.2092 7.71022 39.8285C7.64075 39.5009 7.50772 39.1903 7.31846 38.9142L5.48885 36.2541L7.81675 33.9313L10.473 35.7609C11.6355 36.5609 13.2267 36.267 14.0267 35.1045C14.2183 34.8261 14.3528 34.5125 14.4223 34.1817L14.6459 33.1187C14.8506 34.5909 15.1897 36.041 15.659 37.4512C11.4551 37.9524 8.45335 41.7669 8.95451 45.9709C9.45567 50.1749 13.2701 53.1766 17.4741 52.6754C20.0049 52.3736 22.2202 50.8338 23.3851 48.5669ZM21.4009 46.7667C20.4468 49.4186 17.5236 50.795 14.8717 49.8411C12.2197 48.887 10.8434 45.9638 11.7973 43.3119C12.5272 41.2831 14.4534 39.9318 16.6095 39.9363C16.6261 39.9363 16.6414 39.9363 16.658 39.9363C17.833 42.4698 19.4376 44.7806 21.4009 46.7667ZM73.5474 27.6247L69.8422 27.0958C67.7465 26.7965 65.8051 28.2529 65.5058 30.3484C65.3621 31.3547 65.624 32.377 66.2341 33.1902L68.479 36.1838L64.3904 39.2502L62.1443 36.2579C60.8743 34.5642 58.4718 34.2207 56.7783 35.4907C55.965 36.1004 55.4273 37.0084 55.2832 38.0147L54.7658 41.725L49.7075 41.0019L50.2365 37.2967C50.5366 35.2011 49.081 33.2591 46.9855 32.9591C45.9785 32.8149 44.9557 33.0768 44.142 33.6873L41.1484 35.9321L38.082 31.8436L41.0743 29.5975C42.768 28.3275 43.1116 25.925 41.8416 24.2314C41.2318 23.4182 40.3239 22.8805 39.3176 22.7364L35.6123 22.2074L36.3355 17.1492L40.0407 17.6781C42.1362 17.9782 44.0783 16.5226 44.3782 14.4271C44.5224 13.4202 44.2605 12.3974 43.6501 11.5837L41.3976 8.58755L45.4861 5.52115L47.7322 8.51472C49.0022 10.2084 51.4047 10.552 53.0983 9.28196C53.9115 8.67219 54.4492 7.76425 54.5933 6.75793L55.1223 3.05271L60.1805 3.77459L59.6516 7.47981C59.3523 9.5755 60.8085 11.5169 62.9042 11.8162C63.9105 11.9599 64.9328 11.698 65.746 11.0879L68.7396 8.84308L71.806 12.9316L68.8124 15.1777C67.1187 16.4477 66.7752 18.8502 68.0452 20.5438C68.6549 21.357 69.5629 21.8947 70.5692 22.0388L74.2744 22.5677L73.5474 27.6247Z" fill="#E31625"/>
<path d="M54.9396 12.165C49.2945 12.165 44.7183 16.7413 44.7183 22.3863C44.7183 28.0314 49.2945 32.6077 54.9396 32.6077C60.5846 32.6077 65.1609 28.0314 65.1609 22.3863C65.1545 16.7439 60.5821 12.1713 54.9396 12.165ZM54.9396 30.0523C50.7057 30.0523 47.2736 26.6202 47.2736 22.3863C47.2736 18.1525 50.7057 14.7204 54.9396 14.7204C59.1734 14.7204 62.6056 18.1525 62.6056 22.3863C62.6006 26.6181 59.1714 30.0474 54.9396 30.0523Z" fill="black"/>
<path d="M39.9448 56.5461H37.3895V60.3791H39.9448V56.5461Z" fill="black"/>
<path d="M33.0787 43.998C25.1915 40.917 21.2954 32.0254 24.3767 24.1382C25.5707 21.082 27.7135 18.4895 30.4902 16.7416L29.1243 14.5798C20.7659 19.8456 18.2586 30.8902 23.5243 39.2486C25.5636 42.4858 28.5872 44.9838 32.1511 46.3758C35.3057 47.5844 37.3887 50.6125 37.3895 53.9906H39.9449C39.9489 49.5584 37.2175 45.5835 33.0787 43.998Z" fill="black"/>
<path d="M71.8864 47.6023H62.9427V50.1576H71.8864V47.6023Z" fill="black"/>
<path d="M62.4832 54.2858L60.8475 56.249L68.5141 62.6363L70.1497 60.673L62.4832 54.2858Z" fill="black"/>
<path d="M57.8322 57.8237H55.2769V66.7674H57.8322V57.8237Z" fill="black"/>
<path d="M11.5252 19.5313L1.30463 22.0862L1.92398 24.5639L12.1446 22.009L11.5252 19.5313Z" fill="black"/>
<path d="M4.91142 6.95668L3.427 9.03491L12.3699 15.4226L13.8544 13.3443L4.91142 6.95668Z" fill="black"/>
<path d="M16.8498 0.0108444L14.3742 0.643799L16.9874 10.8643L19.463 10.2314L16.8498 0.0108444Z" fill="black"/>
</g>
<defs>
<clipPath id="clip0">
<rect width="77" height="77" fill="white"/>
</clipPath>
</defs>
</svg>
