<svg width="77" height="77" viewBox="0 0 77 77" fill="none" xmlns="http://www.w3.org/2000/svg">
<path d="M71.8667 7.7H56.4667V6.41667C56.4667 2.87309 53.5936 0 50.05 0C46.5064 0 43.6333 2.87309 43.6333 6.41667V7.7H30.8V10.2667H36.0286C35.7228 10.7999 35.5154 11.3839 35.4151 11.9899L35.2735 12.8333H29.5167C28.808 12.8333 28.2333 13.408 28.2333 14.1167V15.4H34.8461L34.6682 16.4728C34.6061 16.845 34.7108 17.2254 34.9545 17.513C35.1983 17.8006 35.5561 17.9667 35.9333 17.9667H64.1667C64.5439 17.9667 64.9017 17.8006 65.1455 17.513C65.3892 17.2254 65.4939 16.845 65.4318 16.4728L65.2539 15.4H69.3V60.3167H61.6C60.8913 60.3167 60.3167 60.8913 60.3167 61.6V69.3H33.3667V71.8667H70.5833C71.292 71.8667 71.8667 71.292 71.8667 70.5833V14.1167C71.8667 13.408 71.292 12.8333 70.5833 12.8333H64.8265L64.6849 11.9899C64.5846 11.3839 64.3772 10.7999 64.0714 10.2667H71.8667C73.2841 10.2667 74.4333 11.4159 74.4333 12.8333V71.8667C74.4333 73.2841 73.2841 74.4333 71.8667 74.4333H35.9333V77H71.8667C74.7015 77 77 74.7015 77 71.8667V12.8333C77 9.99847 74.7015 7.7 71.8667 7.7ZM62.8833 62.8833H67.4853L62.8833 67.4853V62.8833ZM69.3 69.3H64.698L69.3 64.698V69.3ZM37.4479 15.4L37.9454 12.411C38.1522 11.1728 39.2238 10.266 40.4789 10.2667H44.9167C45.6254 10.2667 46.2 9.69205 46.2 8.98333V6.41667C46.2 4.29052 47.9239 2.56667 50.05 2.56667C52.1761 2.56667 53.9 4.29052 53.9 6.41667V8.98333C53.9 9.69205 54.4746 10.2667 55.1833 10.2667H59.6211C60.8762 10.266 61.9478 11.1728 62.1546 12.411L62.6521 15.4H37.4479Z" fill="#E31625"/>
<path d="M39.7833 28.2334H48.7667V30.8001H39.7833V28.2334Z" fill="black"/>
<path d="M51.3333 28.2334H65.45V30.8001H51.3333V28.2334Z" fill="black"/>
<path d="M39.7833 33.3667H44.9167V35.9334H39.7833V33.3667Z" fill="black"/>
<path d="M47.4833 33.3667H65.45V35.9334H47.4833V33.3667Z" fill="black"/>
<path d="M39.7833 41.0667H65.45V43.6333H39.7833V41.0667Z" fill="black"/>
<path d="M39.7833 46.2H55.1833V48.7666H39.7833V46.2Z" fill="black"/>
<path d="M57.75 46.2H65.45V48.7666H57.75V46.2Z" fill="black"/>
<path d="M34.65 53.8999H37.2167V56.4666H34.65V53.8999Z" fill="black"/>
<path d="M39.7833 53.8999H65.45V56.4666H39.7833V53.8999Z" fill="black"/>
<path d="M39.7833 59.0334H47.4833V61.6001H39.7833V59.0334Z" fill="black"/>
<path d="M50.05 59.0334H57.75V61.6001H50.05V59.0334Z" fill="black"/>
<path d="M41.0667 21.8167H51.3334V24.3833H41.0667V21.8167Z" fill="black"/>
<path d="M53.9 21.8167H59.0334V24.3833H53.9V21.8167Z" fill="black"/>
<path d="M48.7667 5.1333H51.3333V7.69997H48.7667V5.1333Z" fill="black"/>
<path d="M1.28333 64.1665H12.8333V71.4818L10.4822 75.0085C10.2215 75.402 10.1984 75.907 10.4214 76.3231C10.6445 76.7392 11.0781 76.9993 11.55 76.9999H32.0833C32.5564 76.9999 32.9919 76.7392 33.215 76.3219C33.4381 75.9045 33.4137 75.3982 33.1511 75.0041L30.8 71.4818V51.3332H35.9333C36.642 51.3332 37.2167 50.7586 37.2167 50.0499V26.9499C37.211 21.9908 33.1925 17.9722 28.2333 17.9666H15.4C10.4409 17.9722 6.42231 21.9908 6.41667 26.9499V48.7665H1.28333C0.574617 48.7665 0 49.3412 0 50.0499V62.8832C0 63.5919 0.574617 64.1665 1.28333 64.1665ZM20.5333 74.4332H13.9487L15.1844 72.579C15.3248 72.3678 15.3994 72.1197 15.4 71.8665V64.1665H20.5333V74.4332ZM23.1 74.4332V48.7665H15.4V46.1999H28.2333V71.8665C28.234 72.1197 28.3085 72.3678 28.4489 72.579L29.6846 74.4332H23.1ZM34.65 48.7665H30.8V46.1999H34.65V48.7665ZM8.98333 26.9499C8.98772 23.4076 11.8577 20.5376 15.4 20.5332H20.5333V41.0665H23.1V20.5332H28.2333C31.7757 20.5376 34.6456 23.4076 34.65 26.9499V43.6332H30.8V26.9499H28.2333V43.6332H15.4V26.9499H12.8333V43.6332H8.98333V26.9499ZM8.98333 46.1999H12.8333V48.7665H8.98333V46.1999ZM2.56667 51.3332H20.5333V53.0107L11.55 56.3794L2.56667 53.0107V51.3332ZM2.56667 55.7516L11.0995 58.9524C11.3896 59.0595 11.7079 59.0595 11.998 58.9524L20.5333 55.7516V61.5999H2.56667V55.7516Z" fill="#E31625"/>
<path d="M28.2333 8.98333V6.41667C28.2333 2.87309 25.3602 0 21.8167 0C18.2731 0 15.4 2.87309 15.4 6.41667V8.98333C15.4 12.5269 18.2731 15.4 21.8167 15.4C25.3602 15.4 28.2333 12.5269 28.2333 8.98333ZM17.9667 8.98333V6.41667C17.9667 4.29052 19.6905 2.56667 21.8167 2.56667C23.9428 2.56667 25.6667 4.29052 25.6667 6.41667V8.98333C25.6667 11.1095 23.9428 12.8333 21.8167 12.8333C19.6905 12.8333 17.9667 11.1095 17.9667 8.98333Z" fill="black"/>
</svg>
