<svg width="73" height="73" viewBox="0 0 73 73" fill="none" xmlns="http://www.w3.org/2000/svg">
<path d="M6.4035 67.8771H66.5965V24.3333H6.4035V67.8771ZM64.0351 65.3157H11.0768L29.4216 49.1648L42.6154 62.3573C43.1161 62.858 43.9255 62.858 44.4263 62.3573C44.927 61.8565 44.927 61.0471 44.4263 60.5464L38.2699 54.39L50.0281 41.5139L64.0351 54.3529V65.3157ZM8.96491 26.8947H64.0351V50.8784L50.8131 38.7578C50.5621 38.5286 50.2266 38.3992 49.891 38.4223C49.5516 38.4376 49.2315 38.5875 49.0022 38.8385L36.459 52.5766L30.3846 46.5022C29.9057 46.0245 29.1398 46.0014 28.6326 46.4458L8.96491 63.7622V26.8947Z" fill="#E31625"/>
<path d="M19.2105 30.7368C15.2775 30.7368 12.0783 33.936 12.0783 37.869C12.0783 41.8008 15.2775 45 19.2105 45C23.1436 45 26.3428 41.8008 26.3428 37.869C26.3428 33.936 23.1436 30.7368 19.2105 30.7368ZM19.2105 42.4399C16.6901 42.4399 14.6397 40.3895 14.6397 37.8703C14.6397 35.3512 16.6901 33.2982 19.2105 33.2982C21.731 33.2982 23.7814 35.3499 23.7814 37.869C23.7814 40.3882 21.731 42.4399 19.2105 42.4399Z" fill="#E31625"/>
<path d="M63.2411 19.2105C60.9486 17.1793 48.7525 6.4573 41.7919 2.02991C40.6239 0.787632 38.9769 0 37.1403 0C35.3038 0 33.6568 0.787632 32.4888 2.02991C25.5282 6.4573 13.3321 17.1793 11.0396 19.2105H1.2807V73H71.7193V19.2105H63.2411ZM33.3866 5.59539C33.3981 5.54032 33.4225 5.48909 33.4366 5.4353C33.6223 4.75012 33.9681 4.21991 34.2818 3.86772C34.2882 3.86132 34.2895 3.85235 34.2959 3.84467C34.999 3.06216 36.0082 2.5614 37.1403 2.5614C38.2725 2.5614 39.2817 3.06216 39.9848 3.84467C39.9912 3.85107 39.9925 3.86004 39.9989 3.86772C40.3126 4.21991 40.6584 4.7514 40.8441 5.43658C40.8582 5.49037 40.8813 5.5416 40.8941 5.59667C40.9492 5.84512 40.9825 6.11407 40.9825 6.40351C40.9825 8.52179 39.2586 10.2456 37.1403 10.2456C35.0221 10.2456 33.2982 8.52179 33.2982 6.40351C33.2982 6.11407 33.3315 5.84512 33.3866 5.59539ZM30.7368 6.33947C30.7368 6.36125 30.7368 6.38174 30.7368 6.40351C30.7368 9.9344 33.6095 12.807 37.1403 12.807C40.6712 12.807 43.5439 9.9344 43.5439 6.40351C43.5439 6.38174 43.5439 6.36125 43.5439 6.33947C48.8844 10.2238 55.7156 16.0485 59.3541 19.2105H14.9266C18.5651 16.0485 25.3976 10.2238 30.7368 6.33947ZM69.1579 70.4386H3.8421V21.7719H11.5263H62.7544H69.1579V70.4386Z" fill="#E31625"/>
</svg>
