<svg width="74" height="74" viewBox="0 0 74 74" fill="none" xmlns="http://www.w3.org/2000/svg">
<path d="M49.423 47.458C47.6697 47.458 46.2433 46.2234 46.2433 44.706C46.2433 43.1884 47.6697 41.9538 49.423 41.9538C51.1763 41.9538 52.6026 43.1884 52.6026 44.706C52.6026 45.5041 53.2499 46.1513 54.048 46.1513C54.8461 46.1513 55.4933 45.5041 55.4933 44.706C55.4933 42.0574 53.5198 39.8305 50.8683 39.2261V38.4744C50.8683 37.6763 50.2211 37.0291 49.423 37.0291C48.6249 37.0291 47.9777 37.6763 47.9777 38.4744V39.2261C45.3261 39.8305 43.3527 42.0574 43.3527 44.706C43.3527 47.8173 46.0758 50.3486 49.423 50.3486C51.1763 50.3486 52.6026 51.5832 52.6026 53.1008C52.6026 54.6183 51.1763 55.8529 49.423 55.8529C47.6697 55.8529 46.2433 54.6183 46.2433 53.1008C46.2433 52.3027 45.5961 51.6554 44.798 51.6554C43.9999 51.6554 43.3527 52.3027 43.3527 53.1008C43.3527 55.7493 45.3261 57.9762 47.9777 58.5806V59.205C47.9777 60.0031 48.6249 60.6503 49.423 60.6503C50.2211 60.6503 50.8683 60.0031 50.8683 59.205V58.5806C53.5198 57.9762 55.4933 55.7493 55.4933 53.1008C55.4933 49.9893 52.7702 47.458 49.423 47.458Z" fill="black"/>
<path d="M65.2531 38.8608C63.3651 35.9189 60.7052 33.5648 57.5609 32.0533C56.8413 31.7073 55.9777 32.0102 55.632 32.7297C55.2861 33.4492 55.5889 34.3126 56.3084 34.6584C61.7877 37.2924 65.328 42.9203 65.328 48.9961C65.328 51.5959 64.6872 54.1742 63.475 56.4526C63.1001 57.1572 63.3673 58.0324 64.072 58.4073C64.2883 58.5224 64.5207 58.577 64.7496 58.577C65.2667 58.577 65.767 58.2987 66.0268 57.8103C67.4607 55.1157 68.2186 52.0676 68.2186 48.9961C68.2186 45.3886 67.1932 41.8838 65.2531 38.8608Z" fill="black"/>
<path d="M51.6948 30.2072L51.5975 30.207C50.7994 30.207 50.1522 30.8541 50.1522 31.6523C50.1522 32.4506 50.7994 33.0977 51.5975 33.0977L51.6812 33.0978C51.6835 33.0978 51.6857 33.0978 51.6882 33.0978C52.4832 33.0978 53.1296 32.4552 53.1333 31.6593C53.1369 30.861 52.4929 30.2109 51.6948 30.2072Z" fill="black"/>
<path d="M42.5509 63.3338C37.0717 60.6998 33.5315 55.0719 33.5315 48.9962C33.5315 46.3964 34.1723 43.8181 35.3845 41.5397C35.7594 40.8351 35.4922 39.9598 34.7874 39.5849C34.083 39.21 33.2074 39.4773 32.8327 40.182C31.3988 42.8768 30.6408 45.9246 30.6408 48.9962C30.6408 52.6037 31.6663 56.1083 33.6063 59.1314C35.4943 62.0734 38.1543 64.4275 41.2986 65.9391C41.5005 66.0363 41.7138 66.0821 41.9238 66.0821C42.462 66.0821 42.9786 65.7802 43.2275 65.2627C43.573 64.5433 43.2704 63.6797 42.5509 63.3338Z" fill="black"/>
<path d="M47.2619 64.8946L47.1782 64.8943C46.3764 64.8928 45.73 65.5344 45.7264 66.3328C45.7226 67.1311 46.367 67.7812 47.1651 67.7849L47.2619 67.7852C48.06 67.7852 48.7072 67.138 48.7072 66.3399C48.7072 65.5418 48.06 64.8946 47.2619 64.8946Z" fill="black"/>
<path d="M55.9926 25.3172C55.8167 24.8981 55.6012 24.5031 55.3505 24.1367H59.1132C62.7791 24.1367 65.7616 21.1541 65.7616 17.4882C65.7616 13.8224 62.7791 10.8398 59.1132 10.8398H47.5391C48.2749 9.77001 48.7069 8.47573 48.7069 7.08202C48.7069 3.41614 45.7244 0.433594 42.0585 0.433594H6.64843C2.98254 0.433594 0 3.41614 0 7.08202C0 10.7479 2.98254 13.7304 6.64843 13.7304H18.2225C17.4867 14.8003 17.0547 16.0945 17.0547 17.4882C17.0547 18.882 17.4865 20.1762 18.2225 21.2461H14.4531C10.7872 21.2461 7.80467 24.2286 7.80467 27.8945C7.80467 29.9999 8.78951 31.8786 10.3217 33.0976C8.78951 34.3166 7.80467 36.1953 7.80467 38.3007C7.80467 40.4061 8.78951 42.2849 10.3217 43.5038C8.78951 44.7228 7.80467 46.6016 7.80467 48.7069C7.80467 50.8123 8.78951 52.6911 10.3217 53.9101C8.78951 55.129 7.80467 57.0078 7.80467 59.1132C7.80467 62.7791 10.7872 65.7616 14.4531 65.7616H31.4861C35.9732 70.561 42.3565 73.5664 49.4297 73.5664C62.9778 73.5664 74 62.5442 74 48.9962C74 37.7203 66.3644 28.1955 55.9926 25.3172ZM59.1132 13.7304C61.1853 13.7304 62.871 15.4163 62.871 17.4882C62.871 19.5602 61.1853 21.2461 59.1132 21.2461H49.8632H23.7031C21.6309 21.2461 19.9453 19.5602 19.9453 17.4882C19.9453 15.4163 21.6309 13.7304 23.7031 13.7304H59.1132ZM6.64843 10.8398C4.57628 10.8398 2.89062 9.15402 2.89062 7.08202C2.89062 5.01002 4.57628 3.32421 6.64843 3.32421H42.0585C44.1307 3.32421 45.8163 5.01002 45.8163 7.08202C45.8163 9.15402 44.1307 10.8398 42.0585 10.8398H6.64843ZM14.4531 24.1367H49.8632C50.4454 24.1367 51.0028 24.272 51.5029 24.5142C50.8193 24.4568 50.1281 24.4259 49.4297 24.4259C42.6447 24.4259 36.4935 27.1906 32.0428 31.6523H14.4531C12.3811 31.6523 10.6953 29.9665 10.6953 27.8945C10.6953 25.8225 12.3811 24.1367 14.4531 24.1367ZM14.4531 34.5429H29.5732C27.9325 36.7908 26.6639 39.3262 25.8583 42.0585H14.4531C12.381 42.0585 10.6953 40.3729 10.6953 38.3007C10.6953 36.2287 12.381 34.5429 14.4531 34.5429ZM14.4531 44.9491H25.1946C24.9754 46.2662 24.8595 47.6178 24.8595 48.9962C24.8595 50.1735 24.9446 51.3312 25.1055 52.4647H14.4531C12.381 52.4647 10.6953 50.7791 10.6953 48.7069C10.6953 46.6348 12.381 44.9491 14.4531 44.9491ZM14.4531 62.871C12.381 62.871 10.6953 61.1853 10.6953 59.1132C10.6953 57.041 12.381 55.3554 14.4531 55.3554H25.6956C26.4249 58.0744 27.6096 60.6085 29.1633 62.871H14.4531ZM49.4297 70.6758C37.4756 70.6758 27.7501 60.9503 27.7501 48.9962C27.7501 37.042 37.4756 27.3165 49.4297 27.3165C61.3839 27.3165 71.1094 37.042 71.1094 48.9962C71.1094 60.9503 61.3839 70.6758 49.4297 70.6758Z" fill="#E31625"/>
</svg>
