<svg width="77" height="77" viewBox="0 0 77 77" fill="none" xmlns="http://www.w3.org/2000/svg">
<path d="M72.18 35.1422C72.1788 35.0952 72.1765 35.0488 72.1706 35.003C72.1676 34.9783 72.1624 34.9542 72.1582 34.9301C72.1512 34.8902 72.1436 34.8508 72.1336 34.8115C72.1271 34.7862 72.1195 34.7615 72.1112 34.7363C72.0995 34.6992 72.0872 34.6634 72.0725 34.6276C72.0631 34.6029 72.0525 34.5788 72.0419 34.5553C72.0255 34.5195 72.0073 34.4854 71.9879 34.4513C71.9755 34.429 71.9638 34.4067 71.9503 34.3855C71.9285 34.3503 71.9039 34.3168 71.8792 34.2839C71.8657 34.2651 71.8528 34.2463 71.8381 34.2287C71.8058 34.1893 71.7705 34.1523 71.7341 34.1159C71.7247 34.1065 71.7165 34.0959 71.7065 34.0871C71.6613 34.0448 71.6143 34.0049 71.5637 33.9679L62.2847 27.1679L62.3053 17.4336C62.327 17.3314 62.3417 17.2268 62.3417 17.1193V1.51566C62.3417 0.678523 61.6632 0 60.826 0H48.7812C47.9441 0 47.2656 0.678523 47.2656 1.51566V5.66199H16.5811C16.1792 5.66199 15.7933 5.82179 15.5095 6.10612C15.2252 6.39045 15.0654 6.77642 15.0654 7.17824L15.0672 27.2032L5.74702 33.9579C5.74644 33.9585 5.74585 33.9585 5.74585 33.9585L5.73939 33.9632C5.6871 34.0008 5.63893 34.0419 5.59252 34.0848C5.57901 34.0977 5.56667 34.1124 5.55375 34.1259C5.52144 34.1582 5.48971 34.1917 5.46034 34.2263C5.44507 34.2451 5.43155 34.2651 5.41687 34.2845C5.39278 34.3168 5.36928 34.3491 5.34755 34.3832C5.33403 34.4055 5.3217 34.4278 5.30877 34.4502C5.28997 34.4837 5.27176 34.5183 5.2559 34.553C5.24474 34.5771 5.23417 34.6011 5.22418 34.6258C5.21008 34.6617 5.19716 34.6981 5.18541 34.7345C5.17777 34.7598 5.16954 34.785 5.16308 34.8103C5.1531 34.8491 5.14546 34.8884 5.13841 34.9284C5.1343 34.953 5.12901 34.9771 5.12607 35.0018C5.1202 35.0476 5.11785 35.0946 5.11609 35.141C5.1155 35.1575 5.11315 35.1739 5.11315 35.1904V75.4841C5.11315 76.3212 5.79167 76.9997 6.62881 76.9997H70.6678C71.505 76.9997 72.1835 76.3212 72.1835 75.4841V35.191C72.1835 35.1745 72.1806 35.1586 72.18 35.1422ZM68.053 35.1539L62.3417 39.097V30.9683L68.053 35.1539ZM50.2969 3.03132H59.3104V13.6756L55.8279 10.4857C55.5377 10.2201 55.1711 10.0874 54.8039 10.0874C54.4368 10.0874 54.0696 10.2201 53.78 10.4857L50.2969 13.6756V3.03132ZM47.2656 8.6939V17.1193C47.2656 17.7203 47.621 18.2649 48.1708 18.5069C48.7213 18.749 49.3622 18.6432 49.8052 18.2373L54.8039 13.6586L59.2734 17.7526L59.224 41.2495L42.6017 52.7262C40.2371 54.3588 37.0595 54.3588 34.695 52.7262L18.1002 41.2683L18.0973 8.6939H47.2656ZM15.0654 39.1734L9.25302 35.161L15.0654 30.9483V39.1734ZM8.14447 73.969V38.0795L15.7198 43.3115C15.7257 43.3156 15.7322 43.318 15.7386 43.3221L32.9725 55.2212C33.2909 55.4409 33.6193 55.6401 33.9565 55.8186C35.4164 56.5917 37.0325 56.9789 38.6486 56.9789C40.0938 56.9789 41.5384 56.6675 42.8719 56.0489C43.1445 55.9232 43.413 55.7852 43.6744 55.633C43.8953 55.5049 44.1121 55.3675 44.3241 55.2212L61.3553 43.4625C61.4728 43.4184 61.5868 43.3632 61.6931 43.2898L69.1522 38.0936V73.969H8.14447Z" fill="#E31625"/>
<path d="M55.338 69.8473C55.0248 69.0706 54.1413 68.6964 53.3652 69.0095C52.5892 69.3227 52.2138 70.2062 52.5275 70.9822L52.5528 71.0463C52.7913 71.6367 53.3594 71.995 53.9592 71.995C54.1477 71.995 54.3398 71.9592 54.5255 71.8846C55.3021 71.5709 55.6775 70.6879 55.3638 69.9113L55.338 69.8473Z" fill="black"/>
<path d="M41.9895 38.0172C41.677 37.2406 40.7941 36.8646 40.0174 37.1777C39.2408 37.4903 38.8648 38.3732 39.1779 39.1499L39.2038 39.2139C39.4411 39.8049 40.0098 40.1638 40.6102 40.1638C40.7988 40.1638 40.9903 40.1286 41.1759 40.0534C41.9525 39.7408 42.3279 38.8579 42.0154 38.0813L41.9895 38.0172Z" fill="black"/>
<path d="M26.773 55.385H11.7092C10.8721 55.385 10.1936 56.0641 10.1936 56.9013V65.0271C10.1936 65.8642 10.8721 66.5427 11.7092 66.5427H26.773C27.6101 66.5427 28.2887 65.8642 28.2887 65.0271V56.9013C28.2887 56.0641 27.6101 55.385 26.773 55.385ZM25.2573 63.5114H13.2249V58.4169H25.2573V63.5114Z" fill="black"/>
<path d="M26.773 68.7283H11.7092C10.8721 68.7283 10.1936 69.4068 10.1936 70.2439C10.1936 71.0805 10.8721 71.7596 11.7092 71.7596H26.773C27.6101 71.7596 28.2887 71.0805 28.2887 70.2439C28.2887 69.4068 27.6101 68.7283 26.773 68.7283Z" fill="black"/>
<path d="M65.6832 63.1772H50.6188C49.7823 63.1772 49.1032 63.8558 49.1032 64.6929C49.1032 65.5301 49.7823 66.2086 50.6188 66.2086H65.6832C66.5198 66.2086 67.1989 65.5301 67.1989 64.6929C67.1989 63.8558 66.5203 63.1772 65.6832 63.1772Z" fill="black"/>
<path d="M65.6832 57.6714H57.2854C56.4483 57.6714 55.7697 58.3499 55.7697 59.1871C55.7697 60.0242 56.4483 60.7027 57.2854 60.7027H65.6832C66.5198 60.7027 67.1989 60.0242 67.1989 59.1871C67.1989 58.3499 66.5204 57.6714 65.6832 57.6714Z" fill="black"/>
<path d="M65.6832 68.9314H60.826C59.9889 68.9314 59.3104 69.6099 59.3104 70.4471C59.3104 71.2836 59.9889 71.9627 60.826 71.9627H65.6832C66.5198 71.9627 67.1989 71.2836 67.1989 70.4471C67.1989 69.6099 66.5203 68.9314 65.6832 68.9314Z" fill="black"/>
<path d="M24.3409 19.8411H37.8121C38.6486 19.8411 39.3277 19.1626 39.3277 18.3255C39.3277 17.4883 38.6486 16.8098 37.8121 16.8098H24.3409C23.5038 16.8098 22.8247 17.4883 22.8247 18.3255C22.8247 19.1626 23.5038 19.8411 24.3409 19.8411Z" fill="black"/>
<path d="M24.3409 26.826H43.6327C44.4698 26.826 45.1483 26.1475 45.1483 25.3103C45.1483 24.4738 44.4698 23.7947 43.6327 23.7947H24.3409C23.5038 23.7947 22.8247 24.4738 22.8247 25.3103C22.8247 26.1475 23.5038 26.826 24.3409 26.826Z" fill="black"/>
<path d="M24.3409 33.5073H43.6327C44.4698 33.5073 45.1483 32.8281 45.1483 31.9916C45.1483 31.1545 44.4698 30.4753 43.6327 30.4753H24.3409C23.5038 30.4753 22.8247 31.1545 22.8247 31.9916C22.8247 32.8281 23.5038 33.5073 24.3409 33.5073Z" fill="black"/>
<path d="M24.3409 40.1309H33.3209C34.158 40.1309 34.8366 39.4524 34.8366 38.6153C34.8366 37.7781 34.158 37.0996 33.3209 37.0996H24.3409C23.5038 37.0996 22.8247 37.7781 22.8247 38.6153C22.8247 39.4524 23.5038 40.1309 24.3409 40.1309Z" fill="black"/>
</svg>
