<svg width="77" height="77" viewBox="0 0 77 77" fill="none" xmlns="http://www.w3.org/2000/svg">
<path d="M20.0308 24.6558H35.9146C36.7453 24.6558 37.4185 23.9819 37.4185 23.1519C37.4185 22.3212 36.7453 21.6479 35.9146 21.6479H20.0308C19.2001 21.6479 18.5269 22.3212 18.5269 23.1519C18.5269 23.9819 19.2001 24.6558 20.0308 24.6558Z" fill="black"/>
<path d="M20.0308 33.7188H31.7113C32.542 33.7188 33.2152 33.0455 33.2152 32.2148C33.2152 31.3848 32.542 30.7109 31.7113 30.7109H20.0308C19.2001 30.7109 18.5269 31.3848 18.5269 32.2148C18.5269 33.0455 19.2001 33.7188 20.0308 33.7188Z" fill="black"/>
<path d="M25.9965 39.7742H20.0308C19.2001 39.7742 18.5269 40.4474 18.5269 41.2781C18.5269 42.1082 19.2001 42.782 20.0308 42.782H25.9965C26.8271 42.782 27.5004 42.1082 27.5004 41.2781C27.5004 40.4474 26.8271 39.7742 25.9965 39.7742Z" fill="black"/>
<path d="M24.442 48.8369H20.0308C19.2001 48.8369 18.5269 49.5107 18.5269 50.3408C18.5269 51.1715 19.2001 51.8447 20.0308 51.8447H24.442C25.2727 51.8447 25.9459 51.1715 25.9459 50.3408C25.9459 49.5107 25.2727 48.8369 24.442 48.8369Z" fill="black"/>
<path d="M14.031 26.5604C13.9934 26.47 13.9482 26.383 13.8941 26.302C13.8389 26.2191 13.7755 26.1422 13.7061 26.0729C13.3572 25.7227 12.8384 25.5629 12.3497 25.661C12.2533 25.6804 12.1588 25.711 12.0683 25.7486C11.9766 25.7862 11.8897 25.8326 11.8086 25.8866C11.7258 25.9407 11.6488 26.0041 11.5795 26.0729C11.5108 26.1422 11.4473 26.2191 11.3933 26.302C11.3392 26.383 11.2928 26.47 11.2552 26.5604C11.2176 26.6521 11.1889 26.7467 11.1695 26.8418C11.1495 26.9394 11.1389 27.0386 11.1389 27.1362C11.1389 27.2343 11.1495 27.3335 11.1695 27.4299C11.1889 27.5257 11.2176 27.6208 11.2552 27.7107C11.2928 27.8023 11.3392 27.8899 11.3933 27.9709C11.4473 28.0538 11.5108 28.1307 11.5795 28.1995C11.6488 28.2688 11.7258 28.3322 11.8086 28.3863C11.8897 28.4415 11.9766 28.4867 12.0683 28.5243C12.1588 28.5619 12.2533 28.5919 12.3497 28.6119C12.446 28.6295 12.5453 28.6401 12.6428 28.6401C12.7409 28.6401 12.8402 28.6295 12.9377 28.6119C13.0323 28.5919 13.1275 28.5619 13.2191 28.5243C13.309 28.4867 13.3965 28.4415 13.4776 28.3863C13.5604 28.3322 13.6374 28.2688 13.7061 28.1995C13.7755 28.1307 13.8389 28.0538 13.8941 27.9709C13.9482 27.8899 13.9934 27.8023 14.031 27.7107C14.0686 27.6208 14.0986 27.5257 14.1168 27.4299C14.1362 27.3335 14.1467 27.2343 14.1467 27.1362C14.1467 27.0386 14.1362 26.9394 14.1168 26.8418C14.0986 26.7473 14.0686 26.6521 14.031 26.5604Z" fill="black"/>
<path d="M68.0594 37.2305L70.8475 33.8937C71.5084 33.1036 71.8215 32.1037 71.7299 31.0774C71.6376 30.0511 71.1512 29.1223 70.3617 28.4638C68.7297 27.1003 66.2935 27.3182 64.93 28.9496L61.9545 32.5108C59.681 31.283 57.2518 30.45 54.7058 30.0235V26.9716H54.7093C56.6303 26.9716 58.1935 25.4084 58.1935 23.488C58.1935 21.567 56.6303 20.0037 54.7093 20.0037H52.3524V14.3617C52.3524 10.8833 49.5226 8.05354 46.0436 8.05354H44.7353V6.39278C44.7353 2.86741 41.8673 0 38.3426 0H11.2787C6.6354 0 2.85742 3.77798 2.85742 8.42129V51.9394C2.85742 55.4642 5.72483 58.3316 9.24961 58.3316H11.1395V59.1305C11.1395 62.6095 13.9693 65.4393 17.4482 65.4393H30.4259C34.5581 72.3573 42.1205 77 50.7474 77C63.7903 77 74.4011 66.3892 74.4011 53.3464C74.4011 47.2855 72.1581 41.6159 68.0594 37.2305ZM67.2387 30.8783C67.5383 30.5199 68.0741 30.4717 68.4342 30.7725C68.6075 30.917 68.7138 31.1209 68.7338 31.3459C68.7544 31.5715 68.6856 31.7912 68.5405 31.9645L68.5399 31.9651L65.8705 35.1597C65.8429 35.1368 65.8141 35.115 65.7865 35.0921C65.6244 34.9582 65.4605 34.8266 65.2948 34.6973C65.2584 34.6692 65.2225 34.6398 65.1861 34.6116C64.987 34.4577 64.7855 34.3079 64.5822 34.161C64.564 34.1481 64.547 34.134 64.5287 34.121L67.2387 30.8783ZM51.698 29.7115C51.6128 29.7086 51.527 29.7068 51.4412 29.7045C51.4213 29.7039 51.4013 29.7033 51.3813 29.7027C50.9607 29.6916 50.5389 29.6916 50.1177 29.7027C50.0907 29.7033 50.0636 29.7039 50.0366 29.7051C49.9561 29.7074 49.8756 29.7092 49.7957 29.7121V26.9716H51.698V29.7115ZM55.1857 23.488C55.1857 23.7506 54.9719 23.9638 54.7093 23.9638H53.2165C53.2113 23.9638 53.2066 23.9632 53.2019 23.9632H48.2913C48.2866 23.9632 48.2819 23.9638 48.2772 23.9638H46.7838C46.5212 23.9638 46.308 23.7506 46.308 23.488C46.308 23.2254 46.5212 23.0121 46.7838 23.0121H54.7093C54.9719 23.0121 55.1857 23.2254 55.1857 23.488ZM28.9038 62.4321H17.4482C15.6277 62.4321 14.1473 60.9511 14.1473 59.1311V33.1517C14.1473 32.3216 13.4741 31.6478 12.6434 31.6478C11.8127 31.6478 11.1395 32.3216 11.1395 33.1517V55.3238H9.24961C7.38324 55.3238 5.86523 53.8058 5.86523 51.9394V8.42129C5.86523 5.43639 8.29381 3.00781 11.2787 3.00781H38.3426C40.2089 3.00781 41.7275 4.52641 41.7275 6.39278V8.05354H17.4482C13.9693 8.05354 11.1395 10.8833 11.1395 14.3617V21.1211C11.1395 21.9512 11.8127 22.625 12.6434 22.625C13.4741 22.625 14.1473 21.9512 14.1473 21.1211V14.3617C14.1473 12.5418 15.6277 11.0613 17.4482 11.0613H46.0436C47.8642 11.0613 49.3452 12.5418 49.3452 14.3617V20.0043H46.7844C44.8628 20.0043 43.3002 21.567 43.3002 23.488C43.3002 25.409 44.8628 26.9716 46.7844 26.9716L46.7879 30.0241C46.7415 30.0323 46.6957 30.0411 46.6499 30.0493C46.57 30.0629 46.4907 30.0775 46.4108 30.0922C46.3215 30.1087 46.2322 30.1263 46.1429 30.1439C46.0612 30.1598 45.9796 30.1756 45.8985 30.1927C45.8116 30.2109 45.7252 30.2303 45.6389 30.2491C45.556 30.2673 45.4738 30.2855 45.3915 30.3043C45.3069 30.3243 45.2223 30.3448 45.1377 30.3654C45.0543 30.386 44.9709 30.4059 44.8875 30.4271C44.8058 30.4476 44.7248 30.47 44.6437 30.4911C44.5579 30.514 44.4727 30.5363 44.3876 30.5598C44.3112 30.5816 44.2354 30.6039 44.159 30.6262C43.9193 30.6955 43.6814 30.7672 43.4447 30.8442C43.4382 30.8465 43.4312 30.8483 43.4241 30.8506C43.3295 30.8812 43.2355 30.9141 43.141 30.9458C43.0734 30.9687 43.0058 30.991 42.9389 31.0145C42.8472 31.0469 42.7562 31.0803 42.6645 31.1132C42.5952 31.1385 42.5259 31.1632 42.4572 31.189C42.3673 31.2225 42.2774 31.2578 42.1875 31.2924C42.1182 31.3194 42.0489 31.3465 41.9795 31.3741C41.8908 31.4093 41.8027 31.4457 41.714 31.4822C41.6447 31.5109 41.5754 31.5397 41.5061 31.5691C41.4185 31.6061 41.331 31.6443 41.2435 31.6825C41.1747 31.713 41.1066 31.743 41.0384 31.7741C40.9509 31.8135 40.864 31.8534 40.777 31.8934C40.7094 31.9245 40.6425 31.9562 40.5755 31.9886C40.4886 32.0303 40.4016 32.072 40.3153 32.1143C40.2489 32.1472 40.1831 32.1801 40.1173 32.213C40.0309 32.2564 39.9446 32.3005 39.8588 32.3446C39.7936 32.3786 39.729 32.4133 39.6644 32.4474C39.578 32.4932 39.4922 32.539 39.4065 32.5854C39.3442 32.6195 39.2819 32.6547 39.2202 32.6894C39.1333 32.7382 39.0458 32.7863 38.9594 32.8363C38.9012 32.8698 38.8443 32.9038 38.7867 32.9379C38.6968 32.9902 38.6069 33.0425 38.5176 33.0965C38.4742 33.1229 38.4313 33.15 38.3878 33.177C38.1651 33.3133 37.9443 33.4537 37.7263 33.5976C37.7093 33.6082 37.6928 33.6188 37.6764 33.6299C37.5894 33.6875 37.5031 33.7468 37.4167 33.8062C37.3615 33.8438 37.3063 33.8808 37.2511 33.919C37.1712 33.9748 37.0919 34.0318 37.0125 34.0887C36.952 34.1316 36.8909 34.1745 36.831 34.2186C36.7546 34.2744 36.6789 34.3308 36.6025 34.3878C36.5414 34.4336 36.4797 34.4794 36.418 34.5258C36.3434 34.5828 36.2694 34.641 36.1954 34.6991C36.1337 34.7467 36.0726 34.7949 36.0115 34.8436C35.9387 34.9018 35.8664 34.9605 35.7941 35.0193C35.7325 35.0692 35.6714 35.1197 35.6109 35.1703C35.5398 35.2296 35.4693 35.2895 35.3988 35.3494C35.3377 35.4011 35.2772 35.4534 35.2173 35.5063C35.1473 35.5668 35.078 35.6279 35.0087 35.6896C34.9494 35.7424 34.89 35.7965 34.8313 35.85C34.7626 35.9128 34.6938 35.9751 34.6257 36.0385C34.5675 36.0932 34.5094 36.1484 34.4512 36.2036C34.3842 36.2676 34.3167 36.3317 34.2497 36.3963C34.1927 36.4521 34.1363 36.5085 34.0793 36.5649C34.013 36.6307 33.9466 36.6965 33.8808 36.7629C33.8261 36.8187 33.7721 36.8757 33.7175 36.9326C33.6511 37.0014 33.5847 37.0695 33.5189 37.1388C33.4725 37.1888 33.4267 37.2393 33.3808 37.2892C33.3115 37.3644 33.2416 37.4385 33.1729 37.5142C29.2522 41.8638 27.0926 47.4864 27.0926 53.3464C27.0926 55.7332 27.4492 58.0379 28.1101 60.2115C28.1142 60.2262 28.1189 60.2408 28.123 60.2555C28.1636 60.3883 28.2059 60.5205 28.2488 60.6521C28.2711 60.7208 28.2934 60.7895 28.3157 60.8577C28.341 60.9323 28.3668 61.0057 28.3921 61.0792C28.4362 61.2072 28.4808 61.3347 28.5272 61.4616C28.5313 61.4722 28.5349 61.4822 28.5384 61.4921C28.6535 61.8076 28.7745 62.1213 28.9038 62.4321ZM50.7474 73.9922C41.8756 73.9922 34.2932 68.3672 31.3776 60.497C31.3682 60.4705 31.3576 60.4441 31.3476 60.4171C31.31 60.3131 31.2736 60.2085 31.2372 60.104C31.2031 60.0041 31.169 59.9048 31.1361 59.8049C31.1138 59.738 31.0921 59.6704 31.0704 59.6034C30.5657 58.0102 30.2532 56.3548 30.1445 54.6793C30.1427 54.6529 30.141 54.6265 30.1392 54.6C30.1286 54.4167 30.1198 54.2334 30.1134 54.0496C30.1128 54.0231 30.1116 53.9967 30.1104 53.9697C30.1046 53.7623 30.101 53.5543 30.101 53.3464C30.101 45.2805 34.7191 38.2227 41.5748 34.8342C41.5807 34.8313 41.5859 34.8284 41.5912 34.826C41.6576 34.7931 41.7246 34.762 41.791 34.7302C41.8656 34.6944 41.9396 34.658 42.0154 34.6227C42.0171 34.6222 42.0195 34.621 42.0218 34.6198C44.0075 33.6975 46.1717 33.0789 48.4587 32.8269C49.9097 32.6647 51.4448 32.6612 52.9023 32.8145C52.9475 32.8192 52.9927 32.8222 53.0374 32.8275C56.0646 33.1605 58.9161 34.1357 61.5133 35.726C61.6696 35.8218 61.8241 35.9199 61.978 36.0197C63.0536 36.7188 64.0646 37.5189 64.9917 38.4037C69.1198 42.3367 71.3932 47.6439 71.3932 53.3464C71.3932 64.7302 62.1313 73.9922 50.7474 73.9922Z" fill="#E31625"/>
<path d="M50.7469 35.501C40.9069 35.501 32.9015 43.5063 32.9015 53.3463C32.9015 63.1864 40.9069 71.1911 50.7469 71.1911C60.5869 71.1911 68.5922 63.1864 68.5922 53.3463C68.5922 43.5063 60.5869 35.501 50.7469 35.501ZM50.7469 68.1833C42.5659 68.1833 35.9093 61.5274 35.9093 53.3463C35.9093 45.1647 42.5653 38.5088 50.7469 38.5088C58.9285 38.5088 65.5844 45.1647 65.5844 53.3463C65.5844 61.5274 58.9285 68.1833 50.7469 68.1833Z" fill="black"/>
<path d="M57.7753 43.5515C57.1003 43.0668 56.161 43.2213 55.6763 43.8963L50.1394 51.6133L45.4198 50.288C44.6196 50.0635 43.7896 50.53 43.5651 51.3295C43.3407 52.1291 43.8066 52.9591 44.6061 53.1841L50.3404 54.7938C50.4749 54.832 50.6118 54.8502 50.7469 54.8502C51.2233 54.8502 51.6815 54.6228 51.9688 54.2228L58.1201 45.6499C58.6048 44.9749 58.4497 44.0356 57.7753 43.5515Z" fill="#E31625"/>
<path d="M50.7468 44.0051C51.5775 44.0051 52.2507 43.3313 52.2507 42.5012V41.1118C52.2507 40.2817 51.5775 39.6079 50.7468 39.6079C49.9162 39.6079 49.2429 40.2817 49.2429 41.1118V42.5012C49.2429 43.3313 49.9162 44.0051 50.7468 44.0051Z" fill="black"/>
<path d="M50.7468 62.6877C49.9162 62.6877 49.2429 63.361 49.2429 64.1917V65.5804C49.2429 66.4111 49.9162 67.0843 50.7468 67.0843C51.5775 67.0843 52.2507 66.4111 52.2507 65.5804V64.1917C52.2507 63.361 51.5775 62.6877 50.7468 62.6877Z" fill="black"/>
<path d="M62.9814 51.8425H61.592C60.7614 51.8425 60.0881 52.5158 60.0881 53.3464C60.0881 54.1765 60.7614 54.8503 61.592 54.8503H62.9814C63.8121 54.8503 64.4853 54.1765 64.4853 53.3464C64.4853 52.5158 63.8121 51.8425 62.9814 51.8425Z" fill="black"/>
<path d="M39.9017 51.8425H38.5123C37.6817 51.8425 37.0084 52.5158 37.0084 53.3464C37.0084 54.1765 37.6817 54.8503 38.5123 54.8503H39.9017C40.7323 54.8503 41.4056 54.1765 41.4056 53.3464C41.4056 52.5158 40.7323 51.8425 39.9017 51.8425Z" fill="black"/>
</svg>
