<svg width="77" height="77" viewBox="0 0 77 77" fill="none" xmlns="http://www.w3.org/2000/svg">
<g clip-path="url(#clip0)">
<path d="M38.5005 0.00253339H32.0839C18.8012 0.017572 8.03713 10.7816 8.0221 24.0644V26.761L0.200492 40.9349C0.0702571 41.1724 0.00183127 41.4388 0.00153049 41.7097C-0.00117646 41.8008 -0.00117646 41.8921 0.00153049 41.9832C0.0770245 44.5655 2.23161 46.5977 4.8139 46.522C5.9806 46.5869 7.09977 47.006 8.0221 47.7235V52.9384C8.01849 53.061 8.01849 53.1837 8.0221 53.3064C8.12376 56.7485 10.9964 59.4566 14.4386 59.355H24.0634C24.1545 59.3577 24.2458 59.3577 24.3369 59.355C26.9192 59.2795 28.9514 57.1249 28.8757 54.5426V44.9179H25.6675V54.5426C25.6769 54.638 25.6769 54.7341 25.6675 54.8294C25.5883 55.6362 24.8702 56.2259 24.0634 56.1468H14.4386C14.3107 56.1549 14.1822 56.1549 14.0542 56.1468C12.3886 56.0406 11.1243 54.6043 11.2304 52.9386V46.9585C11.2306 46.499 11.0337 46.0616 10.6898 45.757C9.08097 44.2747 6.99947 43.4092 4.8139 43.314C4.80683 43.3149 4.79961 43.3157 4.79254 43.3164C4.01911 43.3984 3.32552 42.8379 3.24341 42.0643L11.0315 27.948C11.1617 27.7105 11.2301 27.444 11.2304 27.1732V24.0644C11.2437 12.5527 20.5725 3.22396 32.0841 3.21073H38.4814C38.579 3.20035 38.6775 3.19975 38.7752 3.20892C39.5858 3.28517 40.181 4.00417 40.1048 4.81475V12.8353H43.313V4.8149C43.3157 4.72377 43.3157 4.63248 43.313 4.54135C43.2374 1.95906 41.0828 -0.073111 38.5005 0.00253339Z" fill="#E31625"/>
<path d="M65.7711 48.1258H48.1256V51.334H65.7709C65.8663 51.3247 65.9624 51.3247 66.0577 51.334C66.8646 51.4133 67.4544 52.1314 67.3751 52.9382V55.97C67.1441 56.9277 65.5977 62.5629 60.9586 62.5629C60.0726 62.5629 59.3544 63.2812 59.3544 64.1671V73.7918H28.8762V68.9795H25.668V75.396C25.668 76.2819 26.3862 77.0002 27.2721 77.0002H60.9587C61.8447 77.0002 62.5629 76.2819 62.5629 75.396V65.6301C67.5774 64.682 69.9675 59.3916 70.5514 56.4673C70.5729 56.3617 70.5836 56.2542 70.5835 56.1465V52.9383C70.5862 52.8472 70.5862 52.7559 70.5835 52.6648C70.508 50.0824 68.3534 48.0502 65.7711 48.1258Z" fill="#E31625"/>
<path d="M75.3958 19.2515H71.3518C71.182 18.7749 70.9877 18.3075 70.7695 17.8511L73.6312 14.9894C74.2574 14.363 74.2574 13.3476 73.6312 12.7211L69.0931 8.18302C68.4668 7.55681 67.4514 7.55681 66.8249 8.18302L63.9631 11.0447C63.5066 10.8274 63.0392 10.6337 62.5627 10.4641V6.41838C62.5627 5.53245 61.8445 4.81421 60.9586 4.81421H54.5422C53.6563 4.81421 52.938 5.53245 52.938 6.41838V10.4639C52.0646 10.7724 51.2233 11.165 50.426 11.6365L52.0557 14.3988C52.9577 13.8678 53.9297 13.4655 54.9431 13.2037C55.6513 13.0208 56.1461 12.3823 56.1462 11.6509V8.02255H59.3544V11.6511C59.3535 12.3821 59.8469 13.0213 60.5543 13.2055C61.5678 13.4673 62.5397 13.8696 63.4418 14.4006C64.0722 14.7731 64.8748 14.6714 65.3924 14.1535L67.9591 11.5869L70.2289 13.8518L67.6622 16.4185C67.1438 16.9357 67.0416 17.7384 67.4136 18.3691C67.9457 19.271 68.349 20.243 68.6119 21.2566C68.7946 21.9641 69.4324 22.4588 70.1631 22.4597H73.7917V25.6664H70.1663C69.4356 25.6673 68.7978 26.1619 68.6151 26.8694C68.3522 27.883 67.9488 28.855 67.4168 29.7569C67.0447 30.3876 67.147 31.1902 67.6654 31.7075L70.232 34.2742L67.9637 36.5425L65.3971 33.9758C64.8794 33.4579 64.0768 33.3562 63.4464 33.7287C62.5444 34.2597 61.5725 34.662 60.559 34.9238C59.8508 35.1067 59.3561 35.7453 59.3559 36.4766V40.1051H56.1477V36.4782C56.1476 35.7469 55.6528 35.1082 54.9446 34.9255C53.9312 34.6637 52.9592 34.2614 52.0572 33.7304C51.4268 33.3579 50.6242 33.4595 50.1065 33.9775L47.5402 36.5438L45.2719 34.2755L47.8386 31.7089C48.3569 31.1917 48.4593 30.3889 48.0871 29.7582C47.5551 28.8563 47.1517 27.8844 46.8889 26.8708C46.7061 26.1632 46.0684 25.6686 45.3376 25.6677H40.1051V28.8759H44.1506C44.3198 29.3525 44.5137 29.8199 44.7313 30.2763L41.8696 33.138C41.2433 33.7644 41.2433 34.7798 41.8696 35.4063L46.4076 39.9443C47.034 40.5706 48.0494 40.5706 48.6759 39.9443L51.5376 37.0826C51.9942 37.2999 52.4616 37.4936 52.938 37.6633V41.7088C52.938 42.5948 53.6563 43.313 54.5422 43.313H60.9587C61.8446 43.313 62.5629 42.5948 62.5629 41.7088V37.6648C63.0393 37.4952 63.5067 37.3013 63.9633 37.0841L66.825 39.9443C67.4514 40.5706 68.4668 40.5706 69.0933 39.9443L73.6313 35.4063C74.2576 34.7799 74.2576 33.7645 73.6313 33.138L70.768 30.2763C70.9862 29.8199 71.1805 29.3525 71.3503 28.8759H75.3958C76.2818 28.8759 77 28.1577 77 27.2717V20.8555C76.9999 19.9696 76.2818 19.2515 75.3958 19.2515Z" fill="black"/>
<path d="M57.7504 17.6475C54.2067 17.6475 51.3338 20.5203 51.3338 24.064C51.3338 27.6077 54.2065 30.4805 57.7504 30.4805C61.2941 30.4805 64.1669 27.6077 64.1669 24.064C64.1669 20.5203 61.2942 17.6475 57.7504 17.6475ZM57.7504 27.2722C55.9785 27.2722 54.5422 25.8359 54.5422 24.064C54.5422 22.2921 55.9785 20.8558 57.7504 20.8558C59.5222 20.8558 60.9586 22.2921 60.9586 24.064C60.9587 25.8359 59.5224 27.2722 57.7504 27.2722Z" fill="black"/>
<path d="M24.0638 25.668V27.2721H19.2514V25.668H16.0432V27.2721C16.0423 27.3165 16.0423 27.3607 16.0432 27.4051C16.0799 29.1402 17.5163 30.517 19.2514 30.4803H24.0638C24.1082 30.4812 24.1524 30.4812 24.1968 30.4803C25.9319 30.4436 27.3087 29.0073 27.272 27.2721V25.668H24.0638Z" fill="#E31625"/>
<path d="M44.9174 44.9175C42.2597 44.9175 40.1051 47.0721 40.1051 49.7298C40.1051 52.3876 42.2597 54.5422 44.9174 54.5422C47.5752 54.5422 49.7298 52.3876 49.7298 49.7298C49.7298 47.0721 47.5752 44.9175 44.9174 44.9175ZM44.9174 51.334C44.0315 51.334 43.3133 50.6158 43.3133 49.7298C43.3133 48.8439 44.0315 48.1257 44.9174 48.1257C45.8034 48.1257 46.5216 48.8439 46.5216 49.7298C46.5216 50.6158 45.8034 51.334 44.9174 51.334Z" fill="#E31625"/>
<path d="M27.2722 36.897C24.6144 36.897 22.4598 39.0516 22.4598 41.7093C22.4598 44.3671 24.6144 46.5217 27.2722 46.5217C29.9299 46.5217 32.0845 44.3671 32.0845 41.7093C32.0845 39.0516 29.9299 36.897 27.2722 36.897ZM27.2722 43.3135C26.3862 43.3135 25.668 42.5953 25.668 41.7093C25.668 40.8234 26.3862 40.1052 27.2722 40.1052C28.1581 40.1052 28.8763 40.8234 28.8763 41.7093C28.8762 42.5953 28.1581 43.3135 27.2722 43.3135Z" fill="#E31625"/>
<path d="M41.7092 11.231C39.0515 11.231 36.8969 13.3855 36.8969 16.0433C36.8969 18.7011 39.0515 20.8557 41.7092 20.8557C44.367 20.8557 46.5216 18.7011 46.5216 16.0433C46.5216 13.3855 44.367 11.231 41.7092 11.231ZM41.7092 17.6475C40.8233 17.6475 40.1051 16.9293 40.1051 16.0433C40.1051 15.1574 40.8233 14.4392 41.7092 14.4392C42.5952 14.4392 43.3134 15.1574 43.3134 16.0433C43.3134 16.9293 42.5952 17.6475 41.7092 17.6475Z" fill="#E31625"/>
<path d="M36.8967 25.668H33.6885V28.8762H36.8967V25.668Z" fill="black"/>
<path d="M36.8967 32.0845H33.6885V35.2927H36.8967V32.0845Z" fill="black"/>
<path d="M28.8762 62.563H25.668V65.7712H28.8762V62.563Z" fill="black"/>
</g>
<defs>
<clipPath id="clip0">
<rect width="77" height="77" fill="white"/>
</clipPath>
</defs>
</svg>
