<?xml version="1.0" encoding="utf-8"?><svg xmlns="http://www.w3.org/2000/svg" xmlns:xlink="http://www.w3.org/1999/xlink"><symbol viewBox="0 0 48 48" id="about_one" xmlns="http://www.w3.org/2000/svg"><path d="M47.99 28.733c0-6.371-2.625-14.702-9.93-17.692V7.848l2.173-1.737a.828.828 0 0 0 .31-.646V.83a.827.827 0 0 0-.827-.827h-2.483a.824.824 0 0 0-.584.242l-1.07 1.07-1.07-1.07a.827.827 0 0 0-.585-.242h-3.31c-.22 0-.43.087-.585.242l-1.07 1.07-1.07-1.07a.827.827 0 0 0-.584-.242h-2.483a.827.827 0 0 0-.827.827v4.634c0 .251.114.489.31.646l2.172 1.737v3.193c-7.304 2.99-9.929 11.324-9.929 17.692-.015 1.494.217 2.98.687 4.399-.356-.02-.714-.032-1.072-.032h-2.097a.827.827 0 0 0-.827-.827h-6.62a.827.827 0 0 0-.827.827H0v1.655h5.792v8.274H0v1.655h5.792c0 .457.37.827.827.827h6.62c.456 0 .827-.37.827-.827v-.315l6.177 2.565a14.314 14.314 0 0 0 10.53.116l12.782-4.874a3.01 3.01 0 0 0 1.69-1.61 3.042 3.042 0 0 0-.536-3.303 11.478 11.478 0 0 0 3.28-8.53zM12.41 43.856H7.447v-9.928h4.964v9.928zM25.65 5.069v-3.41h1.312l1.412 1.413a.827.827 0 0 0 1.17 0l1.413-1.412h2.624l1.413 1.412a.827.827 0 0 0 1.17 0l1.412-1.412h1.312v3.409l-1.945 1.555h-9.35L25.65 5.068zm10.756 3.21v2.482h-8.274V8.278h8.274zm7.322 31.62a1.367 1.367 0 0 1-.766.734L30.18 45.505a12.659 12.659 0 0 1-9.31-.1l-6.804-2.828v-7.822h2.097c2.744.003 5.45.642 7.905 1.866.81.404 1.704.615 2.61.616h6.418a1.241 1.241 0 0 1 .273 2.45c-.108.01-.214.032-.324.032h-9.878v1.655h9.929c.017 0 .033-.005.05-.005a5.096 5.096 0 0 0 1.91-.404l6.918-2.937c.33-.14.702-.14 1.031 0 .343.145.612.423.745.77.14.355.133.752-.022 1.1zm-.493-3.525a2.945 2.945 0 0 0-1.908.132l-5.365 2.278c.015-.101.026-.203.03-.305a2.896 2.896 0 0 0-2.896-2.896h-6.418c-.65 0-1.29-.152-1.87-.441a19.398 19.398 0 0 0-5.702-1.806 11.336 11.336 0 0 1-.903-4.602c0-5.957 2.433-13.777 9.267-16.318h9.598c6.834 2.54 9.267 10.36 9.267 16.318a9.81 9.81 0 0 1-3.1 7.64z"/><path d="M34.026 23.715l-2.99-.997a.615.615 0 0 1 .193-1.199h2.08c.34 0 .615.276.615.616v.542h1.655v-.542a2.272 2.272 0 0 0-2.27-2.27h-.213V18.21h-1.654v1.654h-.213a2.27 2.27 0 0 0-.717 4.424l2.99.997a.615.615 0 0 1-.193 1.199h-2.08a.616.616 0 0 1-.615-.616v-.543H28.96v.543a2.272 2.272 0 0 0 2.27 2.27h.213v1.655h1.654V28.14h.213a2.27 2.27 0 0 0 .717-4.424z"/><path d="M32.269 14.9a9.102 9.102 0 0 0-9.101 9.1 9.112 9.112 0 0 0 9.101 9.102 9.102 9.102 0 0 0 0-18.203zm0 16.548a7.447 7.447 0 0 1-7.447-7.447 7.455 7.455 0 0 1 7.447-7.446 7.447 7.447 0 1 1 0 14.893z"/><defs><clipPath id="aclip0"><path transform="matrix(1 0 0 -1 0 48)" d="M0 0h48v48H0z"/></clipPath></defs></symbol><symbol viewBox="0 0 52 52" id="about_three" xmlns="http://www.w3.org/2000/svg"><path d="M48.75 7.313V4.874a3.25 3.25 0 0 0-3.25-3.25H10.562a3.25 3.25 0 0 0-3.25 3.25V6.5H5.688a2.437 2.437 0 0 0 0 4.875h1.625v32.5h-3.25a.812.812 0 0 0-.812.813v2.437a3.25 3.25 0 0 0 3.25 3.25h29.25a12.988 12.988 0 0 0 8.125-23.132V8.125h4.063a.812.812 0 0 0 .812-.813zM4.875 8.938a.812.812 0 0 1 .813-.813h21.937V9.75H5.687a.812.812 0 0 1-.812-.813zm28.246-.813l1.625.813-1.625.812H29.25V8.125h3.87zM6.5 48.75a1.625 1.625 0 0 1-1.625-1.625V45.5h20.743a13.101 13.101 0 0 0 3.852 3.25H6.5zm40.625-11.375A11.375 11.375 0 1 1 35.75 26a11.387 11.387 0 0 1 11.375 11.375zm-11.375-13a12.977 12.977 0 0 0-11.24 19.5H8.936v-32.5h24.376c.125 0 .25-.03.363-.085l3.25-1.625a.812.812 0 0 0 0-1.455l-3.25-1.625a.813.813 0 0 0-.364-.085H8.939V4.875a1.625 1.625 0 0 1 1.624-1.625h32.14a3.216 3.216 0 0 0-.452 1.625v21.26a12.905 12.905 0 0 0-6.5-1.76zM47.125 6.5h-3.25V4.875a1.625 1.625 0 1 1 3.25 0V6.5z"/><path d="M33.453 33.928l-1.15 1.15 1.15 1.148 1.148-1.148-1.148-1.15zm4.595 4.596l-1.15 1.149 1.15 1.149 1.149-1.15-1.15-1.148zm.574-5.171l-6.893 6.894 1.149 1.15 6.893-6.894-1.149-1.15z"/><path d="M35.75 27.625a9.75 9.75 0 1 0 9.75 9.75 9.76 9.76 0 0 0-9.75-9.75zm0 17.875a8.125 8.125 0 1 1 8.125-8.125A8.134 8.134 0 0 1 35.75 45.5zM14.625 13.813H13v1.624h1.625v-1.624zm25.188 0H16.25v1.624h23.563v-1.624zm0 3.25H11.375v1.625h28.438v-1.625zm0 3.25H11.375v1.625h28.438v-1.625zm-12.188 3.25h-16.25v1.625h16.25v-1.625zM19.5 39.813h-8.125v1.624H19.5v-1.624zM11.375 29.25v6.5a.812.812 0 0 0 .813.813h8.937v-1.626H13v-4.874h10.563v-1.625H12.188a.812.812 0 0 0-.813.812zm35.75-17.875H45.5v13.813h1.625V11.374zm-41.437 3.25H4.063v19.5h1.625v-19.5zm0 21.125H4.063v1.625h1.625V35.75z"/></symbol><symbol viewBox="0 0 48 48" id="about_two" xmlns="http://www.w3.org/2000/svg"><path d="M47.2 26.4h-8a.8.8 0 0 0-.8.8v.8h-6.231a3.98 3.98 0 0 0-2.219.672L23.758 32.8h-6.376a3.378 3.378 0 0 0-2.816 1.509 3.389 3.389 0 0 0-.456 2.713l-9.863-3.084a3.146 3.146 0 0 0-2.119-.024A3.108 3.108 0 0 0 0 36.868c0 1.253.746 2.378 1.9 2.866l17.446 7.381c1.388.587 2.856.885 4.364.885h.203c1.205 0 2.397-.193 3.557-.58l10.93-3.886V44.8a.8.8 0 0 0 .8.8h8a.8.8 0 0 0 .8-.8V27.2a.8.8 0 0 0-.8-.8zm-8.8 15.435l-11.451 4.072a9.588 9.588 0 0 1-3.036.493h-.203a9.552 9.552 0 0 1-3.74-.758L2.523 38.26a1.51 1.51 0 0 1-.923-1.394c0-.652.416-1.228 1.076-1.448a1.558 1.558 0 0 1 1.051.032l11.524 3.604c.01.01.024.017.035.028.302.283.65.51 1.032.664l.048.018c.165.065.336.114.512.153l.125.026c.195.034.391.057.594.057H29.6v-1.6H17.597c-.15 0-.295-.026-.436-.06a1.883 1.883 0 0 1-.15-.05 1.781 1.781 0 0 1-.253-.11c-.052-.029-.104-.055-.152-.088a1.822 1.822 0 0 1-.255-.21c-.024-.024-.053-.043-.076-.068a1.791 1.791 0 0 1-.273-.4l-.216-.43a1.788 1.788 0 0 1 1.597-2.584H24a.804.804 0 0 0 .444-.134l6.394-4.263a2.383 2.383 0 0 1 1.33-.403H38.4v12.235zm8 2.165H40V28h6.4v16zm-4.8-28.8a3.203 3.203 0 0 0-3.2 3.2c0 1.765 1.435 3.2 3.2 3.2 1.765 0 3.2-1.435 3.2-3.2 0-1.765-1.435-3.2-3.2-3.2zm0 4.8c-.882 0-1.6-.718-1.6-1.6 0-.882.718-1.6 1.6-1.6.882 0 1.6.718 1.6 1.6 0 .882-.718 1.6-1.6 1.6zM30.4 4a3.203 3.203 0 0 0-3.2 3.2c0 1.765 1.435 3.2 3.2 3.2 1.765 0 3.2-1.435 3.2-3.2 0-1.765-1.435-3.2-3.2-3.2zm0 4.8c-.882 0-1.6-.718-1.6-1.6 0-.882.718-1.6 1.6-1.6.882 0 1.6.718 1.6 1.6 0 .882-.718 1.6-1.6 1.6zm13.031-4.563L27.434 20.234l1.131 1.132L44.562 5.368l-1.13-1.131zM12.8 0C5.742 0 0 5.742 0 12.8c0 7.058 5.742 12.8 12.8 12.8 7.058 0 12.8-5.742 12.8-12.8C25.6 5.742 19.858 0 12.8 0zm0 24C6.624 24 1.6 18.976 1.6 12.8c0-6.176 5.024-11.2 11.2-11.2C18.976 1.6 24 6.624 24 12.8 24 18.976 18.976 24 12.8 24z"/><path d="M17.3 15.375l-3.7-2.96V6.514A3.195 3.195 0 0 1 16 9.6h1.6a4.805 4.805 0 0 0-4-4.728V3.2H12v1.672A4.803 4.803 0 0 0 8 9.6a.8.8 0 0 0 .3.625l3.7 2.96v5.901A3.197 3.197 0 0 1 9.6 16H8a4.805 4.805 0 0 0 4 4.728V22.4h1.6v-1.672a4.803 4.803 0 0 0 4-4.728.8.8 0 0 0-.3-.625zm-5.3-4.24L9.62 9.232A3.198 3.198 0 0 1 12 6.514v4.621zm1.6 7.95v-4.62l2.38 1.903a3.198 3.198 0 0 1-2.38 2.718zM4.8 24.8H3.2v1.6h1.6v-1.6zm0 3.2H3.2v3.2h1.6V28zm17.6-3.2h-1.6v1.6h1.6v-1.6zm0 3.2h-1.6v3.2h1.6V28zm-8.8-.8H12v1.6h1.6v-1.6zm0 3.2H12v2.4h1.6v-2.4z"/><defs><clipPath id="cclip0"><path d="M0 0h48v48H0z"/></clipPath></defs></symbol><symbol viewBox="0 0 22 8" id="arrow" xmlns="http://www.w3.org/2000/svg"><path d="M21.354 4.354a.5.5 0 0 0 0-.708L18.172.464a.5.5 0 1 0-.707.708L20.293 4l-2.828 2.828a.5.5 0 1 0 .707.708l3.182-3.182zM0 4.5h21v-1H0v1z"/></symbol><symbol viewBox="0 0 43 43" id="docs" xmlns="http://www.w3.org/2000/svg"><path d="M5.004 5.014v37.248c0 .396.321.716.717.716h27.22c.395 0 .716-.32.716-.716V12.177c0-.016-.008-.03-.01-.045a.672.672 0 0 0-.036-.184c-.008-.023-.014-.045-.024-.068a.709.709 0 0 0-.143-.21L26.28 4.509a.695.695 0 0 0-.277-.167.71.71 0 0 0-.185-.037c-.012.002-.026-.006-.041-.006H5.72a.716.716 0 0 0-.717.716zm26.207 6.447h-4.717V6.743l4.717 4.718zM6.437 5.73H25.06v6.446c0 .396.32.716.716.716h6.447v28.653H6.437V5.73z"/><path d="M35.09 37.248v1.432h2.148c.396 0 .717-.32.717-.716V.716A.716.716 0 0 0 37.238 0h-27.22a.716.716 0 0 0-.716.716v2.15h1.433V1.431h25.787v35.816H35.09z"/><path d="M10.735 14.326h17.191v1.433H10.735v-1.433zm0-4.298h5.73v1.433h-5.73v-1.433zm0 8.596h11.46v1.433h-11.46v-1.433zm12.893 0h4.298v1.433h-4.298v-1.433zm-12.893 4.298h17.191v1.432H10.735v-1.432zm0 8.595h17.191v1.433H10.735v-1.433zm6.446-4.297h10.745v1.432H17.18V27.22zm-6.446 0h5.014v1.432h-5.014V27.22zm0 8.595H13.6v1.433h-2.865v-1.433zm4.298 0h12.893v1.433H15.033v-1.433z"/></symbol><symbol viewBox="0 0 101 35" id="dorohov" xmlns="http://www.w3.org/2000/svg"><path d="M41.737 15.585V7.88h3.206c2.372 0 4.12 1.432 4.12 3.831 0 2.4-1.706 3.831-4.079 3.831h-3.247v.043zm5.329-3.832c0-1.178-.708-2.105-2.082-2.105h-1.249v4.21h1.25c1.29 0 2.08-.968 2.08-2.104zm2.747.001c0-2.358 1.749-3.958 4.08-3.958s4.038 1.642 4.038 3.958c0 2.315-1.748 3.957-4.038 3.957-2.373 0-4.08-1.642-4.08-3.957zm6.12 0c0-1.263-.791-2.232-2.04-2.232s-2.081.969-2.081 2.232c0 1.263.79 2.23 2.081 2.23 1.207 0 2.04-1.01 2.04-2.23zm7.41 3.831l-1.29-2.569h-1v2.569h-1.956V7.88h3.788c1.665 0 2.623 1.137 2.623 2.568 0 1.348-.791 2.063-1.499 2.316l1.54 2.82h-2.206zm.208-5.137c0-.505-.416-.8-.957-.8h-1.54v1.642h1.54c.5 0 .957-.294.957-.842zm2.748 1.306c0-2.358 1.748-3.958 4.08-3.958 2.33 0 4.037 1.642 4.037 3.958 0 2.315-1.748 3.957-4.038 3.957-2.331 0-4.08-1.642-4.08-3.957zm6.16 0c0-1.263-.79-2.232-2.04-2.232-1.248 0-2.08.969-2.08 2.232 0 1.263.79 2.23 2.08 2.23 1.208 0 2.04-1.01 2.04-2.23zm8.243 3.831V12.51h-3.163v3.074h-1.957V7.88h1.957v2.905h3.163V7.922h1.957v7.663h-1.957zm3.123-3.831c0-2.358 1.748-3.958 4.079-3.958 2.332 0 4.039 1.642 4.039 3.958 0 2.315-1.749 3.957-4.039 3.957-2.331 0-4.079-1.642-4.079-3.957zm6.119 0c0-1.263-.791-2.232-2.081-2.232-1.249 0-2.082.969-2.082 2.232 0 1.263.791 2.23 2.082 2.23 1.29 0 2.081-1.01 2.081-2.23zm4.913 3.831L91.984 7.88h2.207l1.873 5.557 1.873-5.557h2.207l-2.873 7.662h-2.414v.043zm-53.12 11.493v-7.662h3.206c2.372 0 4.12 1.431 4.12 3.831s-1.706 3.831-4.079 3.831h-3.247zm5.329-3.831c0-1.179-.708-2.105-2.082-2.105h-1.249v4.21h1.25c1.29 0 2.08-.968 2.08-2.105zm3.164 3.831v-7.662h5.536v1.726h-3.621v1.179h3.538v1.726h-3.538v1.305h3.621v1.726H50.23zm6.41-1.053l1.041-1.473a3.388 3.388 0 0 0 2.415 1.01c.666 0 1.082-.252 1.082-.631 0-1.053-4.288-.21-4.288-3.158 0-1.305 1.082-2.442 3.04-2.442 1.206 0 2.289.38 3.08 1.053l-1.083 1.431c-.624-.547-1.457-.8-2.206-.8-.583 0-.833.211-.833.548 0 .968 4.288.252 4.288 3.115 0 1.558-1.124 2.568-3.164 2.568-1.54 0-2.622-.505-3.372-1.22zm7.66 1.053v-7.662h1.957v7.662H64.3zm3.123-3.831c0-2.442 1.831-3.957 4.121-3.957 1.707 0 2.706.926 3.247 1.852l-1.623.842c-.292-.505-.875-.969-1.624-.969-1.249 0-2.123.969-2.123 2.232 0 1.263.874 2.231 2.123 2.231.541 0 1.124-.21 1.415-.463v-.59h-1.707V22.7h3.664v3.073c-.833.926-1.915 1.515-3.372 1.515-2.248-.042-4.121-1.6-4.121-4.041zm14.029 3.831l-3.206-4.42v4.462H76.29v-7.704h1.998l3.081 4.21v-4.21h1.956v7.662h-1.873zM13.887.892H.898v33.132H13.97c10.99 0 18.067-6.525 18.067-16.587C31.996 7.375 24.92.892 13.887.892zm-.333 26.48H7.767V8.007h5.87c6.786 0 11.531 2.694 11.531 9.472 0 5.43-4.33 9.893-11.614 9.893z"/><path d="M14.886 13.522h-1.499v7.873h1.499c2.956 0 4.704-1.81 4.704-4.042-.042-2.737-1.957-3.831-4.704-3.831z"/></symbol><symbol viewBox="0 0 24 24" id="form_comm" xmlns="http://www.w3.org/2000/svg"><path d="M11.84 0C5.214.09-.086 5.535.002 12.162.09 18.785 5.535 24.087 12.162 24c6.625-.09 11.926-5.534 11.838-12.16C23.91 5.213 18.466-.089 11.84 0zm-.035 19.304h-.066c-1.02-.031-1.74-.783-1.711-1.788.028-.988.765-1.706 1.752-1.706l.06.001c1.048.031 1.76.775 1.73 1.81-.03.99-.755 1.683-1.765 1.683zm4.293-8.52c-.24.341-.768.765-1.433 1.283l-.732.505c-.402.313-.645.607-.736.896-.072.228-.107.288-.113.752l-.001.117h-2.796l.008-.236c.034-.973.058-1.545.461-2.018.632-.742 2.027-1.64 2.086-1.678a2.2 2.2 0 0 0 .494-.505c.294-.405.424-.724.424-1.037a2.02 2.02 0 0 0-.384-1.193c-.245-.346-.71-.52-1.383-.52-.668 0-1.125.212-1.399.646a2.596 2.596 0 0 0-.423 1.396v.119H7.288l.005-.124c.075-1.766.705-3.038 1.873-3.78.734-.472 1.647-.712 2.712-.712 1.395 0 2.572.34 3.5 1.008.938.677 1.415 1.691 1.415 3.014 0 .74-.234 1.436-.695 2.067z"/></symbol><symbol viewBox="0 0 23 23" id="form_email" xmlns="http://www.w3.org/2000/svg"><path d="M11.5 0C5.15 0 .002 5.149.002 11.5c0 6.35 5.149 11.5 11.5 11.5C17.85 23 23 17.85 23 11.5 23 5.149 17.85 0 11.5 0zm0 4.04l6.806 4.243H4.696L11.5 4.039zm6.891 11.02c0 .68-.552 1.231-1.233 1.231H5.844c-.68 0-1.232-.551-1.232-1.232V8.553c0-.072.007-.142.019-.21l6.502 4.053.025.013a.808.808 0 0 0 .167.07l.015.003a.73.73 0 0 0 .16.02h.001a.69.69 0 0 0 .161-.02l.015-.003a.69.69 0 0 0 .168-.07l.025-.013 6.502-4.054c.012.069.019.139.019.21v6.507z"/><defs><clipPath id="hclip0"><path d="M0 0h23v23H0z"/></clipPath></defs></symbol><symbol viewBox="0 0 24 24" id="form_name" xmlns="http://www.w3.org/2000/svg"><path d="M12 0C5.375 0 .002 5.373.002 12s5.373 12 12 12 12-5.373 12-12S18.628 0 12 0zm.037 17.661H6.838c0-3.749 3.292-3.748 4.023-4.728l.084-.447c-1.027-.52-1.751-1.774-1.751-3.24 0-1.933 1.257-3.5 2.807-3.5s2.807 1.567 2.807 3.5c0 1.454-.712 2.7-1.724 3.228l.095.508c.801.933 3.984.994 3.984 4.68h-5.126z"/><defs><clipPath id="iclip0"><path d="M0 0h24v24H0z"/></clipPath></defs></symbol><symbol viewBox="0 0 23 23" id="form_phone" xmlns="http://www.w3.org/2000/svg"><path d="M11.501 0C5.151 0 .001 5.15.001 11.5S5.151 23 11.501 23s11.5-5.15 11.5-11.5S17.85 0 11.5 0zm6.073 16.78l-.921.92c-.164.165-.646.267-.661.267a10.867 10.867 0 0 1-7.779-3.18 10.88 10.88 0 0 1-3.18-7.804c0-.002.105-.47.269-.632l.92-.92c.338-.34.985-.492 1.438-.34l.194.064c.452.151.927.651 1.051 1.112l.464 1.7c.125.462-.044 1.119-.38 1.456l-.616.614a6.53 6.53 0 0 0 4.592 4.594l.615-.615c.338-.339.995-.507 1.456-.382l1.7.464c.46.127.96.599 1.112 1.05l.064.197c.15.452-.001 1.1-.338 1.435z"/><defs><clipPath id="jclip0"><path d="M0 0h23v23H0z"/></clipPath></defs></symbol><symbol viewBox="0 0 45 45" id="program1" xmlns="http://www.w3.org/2000/svg"><path d="M42.363 31.29h-2.812V8.19h.29a.879.879 0 0 0 .744-1.345L37.66 2.173a.879.879 0 0 0-1.49 0l-2.926 4.673a.879.879 0 0 0 .745 1.345h.29v17.034a.879.879 0 0 0 1.757 0V7.312a.88.88 0 0 0-.51-.798l1.39-2.218 1.388 2.218a.88.88 0 0 0-.51.798V31.29h-6.328a2.64 2.64 0 0 0-2.637 2.637v.327a2.623 2.623 0 0 0-.879-.151H24V24.42a4.4 4.4 0 0 0-4.394-4.395h-1.04v-1.07c.37.165.78.258 1.21.258h4.56a2.606 2.606 0 0 0 2.604-2.603 2.606 2.606 0 0 0-2.604-2.604h-2.26v-.989a5.81 5.81 0 0 0-4.241-5.586 4.065 4.065 0 0 0 .89-2.543v-.802A4.09 4.09 0 0 0 14.64 0a4.091 4.091 0 0 0-4.087 4.086v.802c0 .944.323 1.813.862 2.506a5.81 5.81 0 0 0-4.377 5.623v4.555a4.394 4.394 0 0 0 3.515 4.3v4.979a.879.879 0 1 0 1.758 0v-5.068h7.295a2.64 2.64 0 0 1 2.637 2.637v9.682h-2.11V25.48a.879.879 0 0 0-.878-.879h-3.961a.879.879 0 0 0-.879.879v12.84H12.31v-4.306a.879.879 0 0 0-1.758 0v4.306H2.637A2.64 2.64 0 0 0 0 40.957v3.164c0 .485.393.88.879.88H44.12a.879.879 0 0 0 .879-.88V33.926a2.64 2.64 0 0 0-2.637-2.637zM12.31 4.085a2.331 2.331 0 0 1 2.329-2.328 2.331 2.331 0 0 1 2.328 2.328v.802a2.331 2.331 0 0 1-2.328 2.329 2.331 2.331 0 0 1-2.329-2.329v-.802zm5.377 8.945a.879.879 0 0 0-.879.879v6.115H12.31V13.91a.879.879 0 0 0-1.758 0v6.142a2.633 2.633 0 0 1-1.757-2.48v-4.554a4.048 4.048 0 0 1 4.043-4.044h3.436a4.048 4.048 0 0 1 4.043 4.043v1.868c0 .486.394.88.88.88h3.138a.847.847 0 0 1 0 1.69h-4.56a1.21 1.21 0 0 1-1.21-1.209V13.91a.879.879 0 0 0-.878-.879zm-3.273 30.211H1.758v-2.285a.88.88 0 0 1 .879-.879h10.898a.88.88 0 0 1 .88.88v2.284zm1.758-16.882h2.203v7.742H17.05c-.308 0-.604.053-.88.15V26.36zm12.656 16.882H16.172v-6.504a.88.88 0 0 1 .879-.879h10.898a.88.88 0 0 1 .88.88v6.503zm14.414 0H30.586v-9.315a.88.88 0 0 1 .879-.88h10.898a.88.88 0 0 1 .88.88v9.316z"/><path d="M12.053 29.647a.886.886 0 0 0-.622-.257.887.887 0 0 0-.621.257.886.886 0 0 0-.258.622.884.884 0 0 0 .879.879.885.885 0 0 0 .622-.258.886.886 0 0 0 .257-.621.886.886 0 0 0-.258-.622zm23.725-1.704a.886.886 0 0 0-.622-.257.885.885 0 0 0-.621.257.886.886 0 0 0-.258.621c0 .232.094.458.258.622.163.163.39.257.621.257a.885.885 0 0 0 .622-.257.885.885 0 0 0 .257-.622.886.886 0 0 0-.257-.62z"/><defs><clipPath id="kclip0"><path d="M0 0h45v45H0z"/></clipPath></defs></symbol><symbol viewBox="0 0 46 46" id="program2" xmlns="http://www.w3.org/2000/svg"><path d="M46 40.158L40.087 37.2H23.652v-2.956h19.217V14.96c.174.04.352.067.535.067a2.425 2.425 0 0 0 2.422-2.422v-.397c0-.79-.387-1.532-1.034-1.985L30.304.082 23.736 4.68H5.495L.173 13.55h1.305v9.119L0 24.359V46.07h23.652v-2.957h16.435L46 40.158zM25.87 38.68h13.303v2.956H25.87V38.68zm-1.479 2.956h-2.956a1.48 1.48 0 0 1-1.479-1.478 1.48 1.48 0 0 1 1.479-1.478h2.956v2.956zm16.26-.456v-2.043l2.044 1.02-2.043 1.023zm-3.695-8.413h-5.913v-8.13a.74.74 0 0 1 .74-.74h4.434a.74.74 0 0 1 .74.74v8.13zm1.478 0v-8.13a2.22 2.22 0 0 0-2.217-2.218h-4.435a2.22 2.22 0 0 0-2.217 2.217v8.13h-5.913V17.985h-4.435V14.15l11.087-7.826 11.087 7.826v18.617h-2.957zm5.51-21.331a.942.942 0 0 1 .403.773v.397a.945.945 0 0 1-1.488.77l-12.555-8.86-12.554 8.861a.945.945 0 0 1-1.49-.77v-.398a.94.94 0 0 1 .403-.773l13.641-9.549 13.64 9.549zM6.332 6.158h15.293l-5.808 4.066a2.416 2.416 0 0 0-1.017 1.847H2.784l3.547-5.913zM2.956 13.55h12.018a2.426 2.426 0 0 0 2.23 1.479c.182 0 .36-.027.535-.067v3.023H5.577l-2.62 2.996v-7.43zm2.218 7.142v3.206H2.368l2.806-3.206zm17 23.902H1.478V25.375h5.174v-5.913h15.522v17.74h-.74a2.96 2.96 0 0 0-2.956 2.956 2.96 2.96 0 0 0 2.956 2.956h.74v1.479z"/><path d="M16.26 26.854h-1.624l1.453-1.744-1.136-.946-2.241 2.69H2.957v10.348H16.26V26.854zm-1.478 8.87H4.436v-7.392h7.044l-3.399 4.08-1.645-1.646L5.39 31.81l2.79 2.79 5.225-6.269h1.378v7.391zM2.957 41.636H17v1.478H2.957v-1.478zm0-2.956H17v1.478H2.957V38.68zM8.13 20.94h12.565v1.479H8.13v-1.478zm24.392 5.914H34v1.478h-1.478v-1.478zm-8.131-9.609h11.826V12.81H24.391v4.435zm1.478-2.956h8.87v1.478h-8.87v-1.478z"/><defs><clipPath id="lclip0"><path d="M0 0h46v46H0z"/></clipPath></defs></symbol><symbol viewBox="0 0 45 45" id="program3" xmlns="http://www.w3.org/2000/svg"><path d="M42.75 5.25H2.25A2.25 2.25 0 0 0 0 7.5v30a2.25 2.25 0 0 0 2.25 2.25h40.5A2.25 2.25 0 0 0 45 37.5v-30a2.25 2.25 0 0 0-2.25-2.25zm.75 32.25a.75.75 0 0 1-.75.75H2.25a.75.75 0 0 1-.75-.75v-30a.75.75 0 0 1 .75-.75h40.5a.75.75 0 0 1 .75.75v30z"/><path d="M39.75 27H27a1.5 1.5 0 0 0-1.5 1.5v6A1.5 1.5 0 0 0 27 36h12.75a1.5 1.5 0 0 0 1.5-1.5v-6a1.5 1.5 0 0 0-1.5-1.5zM27 34.5v-6h5.425l-3.6 6H27zm3.575 0l3.6-6h2l-3.6 6h-2zm9.175 0h-5.425l3.6-6h1.825v6zm0-12h-9a.75.75 0 1 0 0 1.5h9a.75.75 0 1 0 0-1.5zm-11.25.75a.75.75 0 0 0-.75-.75h-3a.75.75 0 1 0 0 1.5h3a.75.75 0 0 0 .75-.75zm11.25-4.5h-3a.75.75 0 1 0 0 1.5h3a.75.75 0 0 0 0-1.5zm-15 1.5h9a.75.75 0 0 0 0-1.5h-9a.75.75 0 1 0 0 1.5zm15-5.25h-7.5a.75.75 0 1 0 0 1.5h7.5a.75.75 0 1 0 0-1.5zm-15 1.5h4.5a.75.75 0 1 0 0-1.5h-4.5a.75.75 0 1 0 0 1.5zM36 12.75h3.75a.75.75 0 0 0 0-1.5H36a.75.75 0 1 0 0 1.5zm-11.25 0H33a.75.75 0 0 0 0-1.5h-8.25a.75.75 0 1 0 0 1.5zm-12 .75a4.5 4.5 0 1 0 0 9 4.5 4.5 0 0 0 0-9zm0 7.5a3 3 0 1 1 0-6 3 3 0 0 1 0 6z"/><path d="M19.114 24.364a8.26 8.26 0 0 0 .739-.844.75.75 0 0 0 .075-.79l-.585-1.169c.244-.45.441-.925.588-1.417l1.238-.411a.75.75 0 0 0 .506-.614 8.478 8.478 0 0 0 0-2.238.75.75 0 0 0-.506-.614l-1.238-.41a7.396 7.396 0 0 0-.588-1.418l.585-1.168a.75.75 0 0 0-.075-.791 8.51 8.51 0 0 0-1.583-1.583.75.75 0 0 0-.79-.075l-1.169.584a7.42 7.42 0 0 0-1.417-.588l-.412-1.239a.75.75 0 0 0-.614-.505 8.37 8.37 0 0 0-2.236 0 .75.75 0 0 0-.614.505l-.412 1.239a7.418 7.418 0 0 0-1.417.588l-1.168-.584a.75.75 0 0 0-.79.075 8.505 8.505 0 0 0-1.583 1.583.75.75 0 0 0-.075.79l.584 1.169c-.244.45-.441.926-.587 1.418l-1.239.41a.75.75 0 0 0-.506.614 8.473 8.473 0 0 0 0 2.238.75.75 0 0 0 .506.614l1.239.411c.146.492.343.966.587 1.417l-.584 1.169a.75.75 0 0 0 .075.79 8.504 8.504 0 0 0 1.582 1.583.75.75 0 0 0 .79.075l1.17-.584c.45.244.925.441 1.416.588l.412 1.239a.75.75 0 0 0 .614.506 8.458 8.458 0 0 0 2.236 0 .75.75 0 0 0 .614-.506l.412-1.239a7.42 7.42 0 0 0 1.417-.588l1.169.584a.75.75 0 0 0 .79-.075c.298-.227.58-.474.844-.74zm-1.397-.745l-1.096-.547a.75.75 0 0 0-.73.033 5.965 5.965 0 0 1-1.754.727.75.75 0 0 0-.538.493l-.387 1.16a6.784 6.784 0 0 1-.924 0l-.387-1.16a.75.75 0 0 0-.537-.493 5.967 5.967 0 0 1-1.755-.727.75.75 0 0 0-.73-.033l-1.095.547a8.2 8.2 0 0 1-.337-.316c-.112-.11-.214-.225-.316-.337l.548-1.095a.75.75 0 0 0-.032-.73 5.948 5.948 0 0 1-.728-1.753.75.75 0 0 0-.493-.54l-1.16-.386a7.022 7.022 0 0 1 0-.924l1.16-.386a.75.75 0 0 0 .493-.54c.147-.62.392-1.211.728-1.753a.75.75 0 0 0 .032-.73l-.548-1.095a9.02 9.02 0 0 1 .316-.337c.11-.113.225-.215.337-.316l1.096.547a.75.75 0 0 0 .73-.033 5.965 5.965 0 0 1 1.754-.727.75.75 0 0 0 .537-.493l.387-1.16c.308-.02.617-.02.924 0l.387 1.16a.75.75 0 0 0 .538.493c.62.147 1.212.393 1.754.728a.75.75 0 0 0 .73.032l1.096-.547c.114.101.225.205.336.316.112.11.215.225.316.337l-.547 1.095a.75.75 0 0 0 .032.73c.335.542.58 1.134.727 1.754a.75.75 0 0 0 .494.539l1.16.386a7.697 7.697 0 0 1 0 .924l-1.16.386a.75.75 0 0 0-.494.54 5.946 5.946 0 0 1-.727 1.754.75.75 0 0 0-.032.729l.547 1.095a8.261 8.261 0 0 1-.316.337c-.11.113-.222.215-.336.316z"/><path d="M13.283 17.468a1.202 1.202 0 0 0-.113-.09.578.578 0 0 0-.135-.068.718.718 0 0 0-.57 0 .675.675 0 0 0-.405.405.707.707 0 0 0 0 .57.675.675 0 0 0 .405.405.751.751 0 0 0 .435.045.48.48 0 0 0 .135-.045.563.563 0 0 0 .135-.068.97.97 0 0 0 .113-.09.864.864 0 0 0 .157-.247.706.706 0 0 0 0-.57.872.872 0 0 0-.157-.247zM13.5 29.25a3 3 0 1 0 0 6 3 3 0 0 0 0-6zm0 4.5a1.5 1.5 0 1 1 0-3 1.5 1.5 0 0 1 0 3zM6 29.25a3 3 0 1 0 0 6 3 3 0 0 0 0-6zm0 4.5a1.5 1.5 0 1 1 0-3 1.5 1.5 0 0 1 0 3zm15-4.5a3 3 0 1 0 0 6 3 3 0 0 0 0-6zm0 4.5a1.5 1.5 0 1 1 0-3 1.5 1.5 0 0 1 0 3z"/></symbol><symbol viewBox="0 0 45 45" id="program4" xmlns="http://www.w3.org/2000/svg"><path d="M40.645 43.548V31.935h2.903v-9.791c0-.967-.65-1.828-1.579-2.094l-3.501-1v-.194a3.633 3.633 0 0 0 1.451-2.888v-1.451a3.634 3.634 0 0 0-3.629-3.63c-2 0-3.629 1.629-3.629 3.63v1.452c0 1.134.547 2.207 1.452 2.888v.193l-2.177.622v-1.883c0-.967-.65-1.828-1.58-2.094l-3.501-1v-.193a3.633 3.633 0 0 0 1.451-2.888v-1.452a3.633 3.633 0 0 0-3.629-3.629c-2 0-3.629 1.628-3.629 3.63v1.45c0 1.135.548 2.208 1.452 2.889v.193l-3.501 1a2.187 2.187 0 0 0-1.58 2.094v8.34h-5.95l-.323-1.452h3.37c.8 0 1.452-.65 1.452-1.451v-7.258c0-.8-.651-1.452-1.452-1.452H2.903c-.8 0-1.451.651-1.451 1.452v7.258c0 .8.65 1.451 1.451 1.451h3.37L5.95 26.13H0v4.355h2.177v13.064H0V45h45v-1.452h-4.355zm-5.08-23.404v-2.093l-.361-.21a2.154 2.154 0 0 1-1.091-1.873v-1.452c0-1.2.977-2.177 2.177-2.177 1.2 0 2.178.977 2.178 2.177v1.452c0 .775-.408 1.476-1.091 1.873l-.36.21v2.093l4.553 1.3a.73.73 0 0 1 .527.7v8.34h-1.452v-5.807h-1.451v18.871h-2.178V30.484h-1.451v13.064h-2.178v-18.87h-1.451v5.806h-1.452v-8.34a.73.73 0 0 1 .527-.699l4.554-1.301zM18.87 17.789a.73.73 0 0 1 .527-.699l4.554-1.3v-2.094l-.361-.21a2.154 2.154 0 0 1-1.091-1.873v-1.452c0-1.2.977-2.177 2.177-2.177 1.2 0 2.178.977 2.178 2.177v1.452c0 .775-.408 1.476-1.091 1.873l-.36.21v2.093l4.553 1.3a.73.73 0 0 1 .527.7v2.31a2.183 2.183 0 0 0-1.452 2.044v3.986h-10.16v-8.34zM2.903 23.226v-7.258h11.613v7.258h-3.692l-.523-2.352a1.62 1.62 0 0 0-1.591-1.277 1.62 1.62 0 0 0-1.592 1.276l-.523 2.353H2.903zm5.632-2.038c.037-.165.313-.165.349 0l1.099 4.941H7.437l1.098-4.941zM1.452 27.58h27.58v1.451H1.452V27.58zm27.58 2.903v1.451h2.904v5.807H3.629v-7.258h25.403zM3.63 42.097h5.08v-1.452H3.63v-1.451h28.306v1.451H10.162v1.452h21.775v1.451H3.629v-1.451zm7.983-39.194h1.451v1.452h-1.451V2.903zm2.903 0h1.452v1.452h-1.452V2.903zm-5.806 0h1.452v1.452H8.71V2.903z"/><path d="M15.242 9.992V7.258h3.63V0H5.806v7.258h4.88l4.555 2.734zm-7.984-8.54H17.42v4.355h-3.63v1.62l-2.702-1.62h-3.83V1.452zm24.678 8.54l4.556-2.734h4.88V0H28.306v7.258h3.629v2.734zm-2.178-4.185V1.452H39.92v4.355h-3.83l-2.703 1.62v-1.62h-3.629z"/><path d="M31.21 2.903h7.258v1.452H31.21V2.903z"/><defs><clipPath id="nclip0"><path d="M0 0h45v45H0z"/></clipPath></defs></symbol><symbol viewBox="0 0 45 45" id="program5" xmlns="http://www.w3.org/2000/svg"><path d="M28.902 32.408c-.473-.284-.958-.57-1.444-.85.114-.973.115-1.957 0-2.928.488-.282.973-.567 1.444-.85a1.897 1.897 0 0 0 .769-2.338l-1.035-2.498a1.897 1.897 0 0 0-2.197-1.11c-.533.133-1.078.274-1.622.42a12.58 12.58 0 0 0-2.07-2.07c.145-.544.286-1.09.42-1.623a1.897 1.897 0 0 0-1.11-2.197l-2.498-1.034a1.897 1.897 0 0 0-2.339.768c-.283.472-.57.958-.85 1.444a12.573 12.573 0 0 0-2.928 0 92.768 92.768 0 0 0-.85-1.444 1.897 1.897 0 0 0-2.338-.768l-2.498 1.034a1.897 1.897 0 0 0-1.11 2.197c.133.535.274 1.08.42 1.622a12.569 12.569 0 0 0-2.07 2.07 93.668 93.668 0 0 0-1.623-.42 1.897 1.897 0 0 0-2.197 1.11L.142 25.442A1.897 1.897 0 0 0 .91 27.78c.473.284.958.57 1.445.85a12.584 12.584 0 0 0 0 2.929c-.488.28-.973.566-1.445.85a1.897 1.897 0 0 0-.768 2.338l1.035 2.498a1.897 1.897 0 0 0 2.196 1.11 93.381 93.381 0 0 0 1.622-.42 12.584 12.584 0 0 0 2.071 2.07c-.146.544-.287 1.09-.42 1.623a1.897 1.897 0 0 0 1.11 2.196l2.498 1.035a1.897 1.897 0 0 0 2.339-.768c.281-.469.567-.954.85-1.444a12.6 12.6 0 0 0 2.928 0c.28.485.565.97.85 1.444a1.897 1.897 0 0 0 2.338.768l2.498-1.034a1.897 1.897 0 0 0 1.11-2.197 94.927 94.927 0 0 0-.42-1.622 12.588 12.588 0 0 0 2.07-2.07c.543.145 1.088.286 1.623.42a1.897 1.897 0 0 0 2.196-1.111l1.035-2.498a1.897 1.897 0 0 0-.769-2.338zm-2.085 3.964a90.78 90.78 0 0 1-1.556-.404 1.882 1.882 0 0 0-1.98.66 10.559 10.559 0 0 1-1.842 1.843 1.881 1.881 0 0 0-.659 1.978c.141.523.277 1.046.405 1.555l-2.296.951a91.007 91.007 0 0 1-.814-1.385 1.882 1.882 0 0 0-1.865-.934 10.52 10.52 0 0 1-2.606 0 1.881 1.881 0 0 0-1.866.933 89.5 89.5 0 0 1-.814 1.386l-2.296-.95c.128-.513.264-1.036.404-1.556a1.882 1.882 0 0 0-.66-1.98 10.563 10.563 0 0 1-1.843-1.842 1.88 1.88 0 0 0-1.978-.66c-.52.141-1.043.277-1.555.405l-.951-2.296c.453-.272.919-.545 1.385-.813a1.881 1.881 0 0 0 .934-1.865 10.573 10.573 0 0 1 0-2.606 1.882 1.882 0 0 0-.933-1.867 91.505 91.505 0 0 1-1.386-.814l.95-2.296a83.55 83.55 0 0 1 1.556.405 1.882 1.882 0 0 0 1.98-.66 10.56 10.56 0 0 1 1.842-1.843 1.881 1.881 0 0 0 .659-1.979 92.516 92.516 0 0 1-.404-1.555l2.296-.95c.27.451.544.917.813 1.385a1.881 1.881 0 0 0 1.865.933c.864-.108 1.74-.108 2.607 0a1.882 1.882 0 0 0 1.866-.933 82.9 82.9 0 0 1 .814-1.386l2.296.951a92.038 92.038 0 0 1-.405 1.556c-.198.736.06 1.513.66 1.98a10.564 10.564 0 0 1 1.843 1.842 1.881 1.881 0 0 0 1.979.658c.52-.14 1.042-.276 1.555-.404l.95 2.296c-.452.271-.918.545-1.385.814a1.881 1.881 0 0 0-.933 1.864c.107.864.107 1.741 0 2.607a1.882 1.882 0 0 0 .932 1.866c.466.268.932.541 1.387.814l-.951 2.296z"/><path d="M21.249 27.467a6.872 6.872 0 0 0-8.97-3.715 6.873 6.873 0 0 0-3.715 8.969 6.82 6.82 0 0 0 3.715 3.715 6.87 6.87 0 0 0 2.627.526 6.873 6.873 0 0 0 6.342-9.495zm-4.486 7.108a4.82 4.82 0 0 1-3.713 0 4.82 4.82 0 0 1-2.625-2.625 4.856 4.856 0 0 1 4.475-6.707 4.859 4.859 0 0 1 4.488 2.995 4.856 4.856 0 0 1-2.625 6.337zM43.642 8.871a67.972 67.972 0 0 0-1.064-.15 9.37 9.37 0 0 0-.722-1.742c.22-.288.437-.576.646-.86a1.605 1.605 0 0 0-.156-2.076l-1.39-1.39a1.605 1.605 0 0 0-2.076-.155c-.284.21-.572.427-.86.646a9.37 9.37 0 0 0-1.741-.722 80.42 80.42 0 0 0-.15-1.064A1.605 1.605 0 0 0 34.548 0h-1.964c-.784 0-1.463.584-1.579 1.358-.052.347-.102.704-.15 1.064a9.373 9.373 0 0 0-1.742.722c-.287-.22-.575-.436-.86-.646a1.605 1.605 0 0 0-2.076.156L24.79 4.043a1.605 1.605 0 0 0-.157 2.076c.21.284.427.572.647.86a9.389 9.389 0 0 0-.722 1.742c-.36.048-.717.098-1.064.15a1.605 1.605 0 0 0-1.358 1.579v1.965c0 .784.583 1.463 1.357 1.579.348.052.705.102 1.065.15.181.603.423 1.187.722 1.742-.22.288-.437.576-.647.86a1.605 1.605 0 0 0 .157 2.076l1.389 1.389a1.605 1.605 0 0 0 2.076.156c.285-.21.573-.427.86-.646a9.37 9.37 0 0 0 1.742.722c.048.36.098.717.15 1.064a1.605 1.605 0 0 0 1.579 1.358h1.965c.784 0 1.463-.584 1.578-1.358.052-.348.103-.705.15-1.064a9.357 9.357 0 0 0 1.743-.722c.286.22.575.436.86.646a1.602 1.602 0 0 0 2.075-.156l1.39-1.39a1.605 1.605 0 0 0 .156-2.076c-.21-.283-.427-.572-.646-.859.298-.555.54-1.139.722-1.742.36-.048.716-.098 1.064-.15A1.605 1.605 0 0 0 45 12.414V10.45c0-.784-.584-1.463-1.358-1.579zm-.556 3.27c-.316.046-.638.09-.96.133a1.591 1.591 0 0 0-1.334 1.155 7.45 7.45 0 0 1-.704 1.7 1.592 1.592 0 0 0 .125 1.76c.198.258.395.517.586.773l-1.002 1.003a66.495 66.495 0 0 1-.774-.587 1.592 1.592 0 0 0-1.76-.125 7.453 7.453 0 0 1-1.699.704 1.591 1.591 0 0 0-1.156 1.333 62.23 62.23 0 0 1-.132.962h-1.418c-.045-.316-.09-.638-.132-.961a1.592 1.592 0 0 0-1.156-1.333 7.448 7.448 0 0 1-1.698-.704 1.592 1.592 0 0 0-1.76.124 65.67 65.67 0 0 1-.775.587l-1.002-1.003c.191-.256.388-.516.587-.774a1.592 1.592 0 0 0 .124-1.76 7.452 7.452 0 0 1-.704-1.699 1.591 1.591 0 0 0-1.333-1.155 65.707 65.707 0 0 1-.96-.133v-1.417a67.1 67.1 0 0 1 .96-.133 1.591 1.591 0 0 0 1.333-1.155 7.45 7.45 0 0 1 .704-1.7 1.592 1.592 0 0 0-.125-1.76 66.448 66.448 0 0 1-.586-.773L27.337 4.2c.258.192.517.389.774.587.51.393 1.202.442 1.76.125a7.454 7.454 0 0 1 1.7-.705 1.59 1.59 0 0 0 1.155-1.332c.042-.324.087-.646.132-.961h1.418c.046.315.09.637.132.96a1.59 1.59 0 0 0 1.156 1.333c.592.164 1.164.4 1.699.704.558.318 1.25.268 1.76-.124.258-.198.517-.395.774-.587l1.002 1.003a67.5 67.5 0 0 1-.586.774 1.592 1.592 0 0 0-.125 1.76c.304.535.541 1.107.704 1.699a1.59 1.59 0 0 0 1.333 1.155c.323.043.645.087.961.133v1.417z"/><path d="M33.568 7.354a4.083 4.083 0 0 0-4.079 4.078 4.083 4.083 0 0 0 4.079 4.079 4.083 4.083 0 0 0 4.078-4.079 4.083 4.083 0 0 0-4.078-4.078zm0 6.344a2.268 2.268 0 0 1-2.266-2.266 2.268 2.268 0 0 1 2.266-2.265 2.268 2.268 0 0 1 2.265 2.265 2.268 2.268 0 0 1-2.265 2.266z"/><defs><clipPath id="oclip0"><path d="M0 0h45v45H0z"/></clipPath></defs></symbol><symbol viewBox="0 0 45 45" id="program6" xmlns="http://www.w3.org/2000/svg"><path d="M3.629 4.355h21.774v5.08c0 .402.324.726.726.726h5.08v5.807h1.452V9.435c0-.2-.082-.382-.213-.513l-5.805-5.805a.725.725 0 0 0-.514-.214H6.532V1.452h27.58v15.967h1.452V.726A.725.725 0 0 0 34.84 0H5.806a.725.725 0 0 0-.726.726v2.177H2.903a.725.725 0 0 0-.726.726v40.645c0 .402.325.726.726.726h24.678v-1.452H3.628V4.355zM26.855 5.38l3.328 3.329h-3.328V5.38z"/><path d="M42.097 21.774h-1.093c-3.241 0-6.29-1.427-8.364-3.916l-.146-.177c-.275-.332-.841-.332-1.116 0l-.147.176a10.858 10.858 0 0 1-8.364 3.917h-1.093a.725.725 0 0 0-.726.726v11.755a8.001 8.001 0 0 0 4.024 6.932l6.503 3.717a.725.725 0 0 0 .72 0l6.504-3.717a8.001 8.001 0 0 0 4.023-6.932V22.5a.725.725 0 0 0-.725-.726zm-.726 12.481a6.544 6.544 0 0 1-3.292 5.671l-6.144 3.513-6.143-3.511a6.546 6.546 0 0 1-3.292-5.673v-11.03h.367a12.3 12.3 0 0 0 9.068-3.97 12.303 12.303 0 0 0 9.069 3.97h.367v11.03z"/><path d="M31.936 23.952c-4.402 0-7.984 3.581-7.984 7.983 0 4.402 3.582 7.984 7.983 7.984 4.402 0 7.984-3.582 7.984-7.983 0-4.402-3.581-7.984-7.983-7.984zm0 14.516a6.54 6.54 0 0 1-6.533-6.533 6.54 6.54 0 0 1 6.533-6.532 6.54 6.54 0 0 1 6.532 6.533 6.54 6.54 0 0 1-6.533 6.532z"/><path d="M31.59 34.192l-1.319-1.318-1.026 1.026 2.177 2.178a.724.724 0 0 0 1.209-.305l2.178-7.258-1.391-.417-1.828 6.094zM5.08 11.613h18.872v1.452H5.08v-1.452zm0 2.903h18.872v1.452H5.08v-1.452zm0 2.904h18.872v1.451H5.08v-1.452zm0 2.903h14.517v1.451H5.08v-1.451zm0 2.903h14.517v1.451H5.08v-1.451zm0 2.903h14.517v1.452H5.08v-1.452zm0 8.71h14.517v1.451H5.08v-1.45zm0 2.903h14.517v1.452H5.08v-1.452zm0 2.903h14.517v1.452H5.08v-1.452zm.727-34.839h1.451v1.452H5.807V5.806zm2.903 0h1.452v1.452H8.71V5.806zm2.903 0h1.451v1.452h-1.451V5.806zm2.903 0h9.436v1.452h-9.436V5.806z"/></symbol><symbol viewBox="0 0 47 47" id="program7" xmlns="http://www.w3.org/2000/svg"><path d="M19.828 35.265H5.14v1.438h14.687v-1.438zm4.391-.015H22.78v4.406h1.438V35.25zm4.406 0h-1.438v4.406h1.438V35.25zm4.407 0h-1.438v4.406h1.438V35.25zm4.405 0H36v4.406h1.438V35.25zm4.407 0h-1.438v4.406h1.438V35.25z"/><path d="M46.25 44.078V22.337l-10.343 5.171-1.446-26.024h-7.23l-1.485 23.761-4.546 2.273-1.439-19.424H12.56L11.067 25.24.75 30.4v13.678H0v1.438h47v-1.438h-.75zM28.582 2.922h4.52l.082 1.5h-4.696l.094-1.5zm-.184 2.938h4.866l.084 1.5h-5.044l.094-1.5zm-.183 2.937h5.213l1.078 19.412-2.943 1.471v-7.343l-4.33 2.165.982-15.705zm-14.337.734h4.548l.111 1.5h-4.79l.13-1.5zm-.256 2.938h5.022l.11 1.5h-5.262l.13-1.5zm-.255 2.938h5.494l.949 12.806-2.935 1.467v-7.343l-4.297 2.148.789-9.079zm-8.211 28.67H2.188v-1.499h2.968v1.5zm13.219 0H6.594v-5.17h11.78v5.17zm26.437 0h-25v-1.499h25v1.5zm0-2.937h-25v-3.672H5.157v3.672H2.188v-9.852l13.25-6.625v7.344l14.687-7.344v7.344l14.687-7.344V41.14z"/></symbol><symbol viewBox="0 0 45 45" id="program8" xmlns="http://www.w3.org/2000/svg"><path d="M11.586 9.61a4.464 4.464 0 0 0-3.22-1.36h-.232a4.464 4.464 0 0 0-3.216 1.36 4.125 4.125 0 0 0-1.164 3.058l.087 2.02a4.31 4.31 0 0 0 4.38 4.062h.057a4.311 4.311 0 0 0 4.38-4.063l.092-2.019a4.126 4.126 0 0 0-1.164-3.058zm-.426 5.015a2.815 2.815 0 0 1-2.882 2.625h-.057a2.815 2.815 0 0 1-2.881-2.625l-.026-.613a6.769 6.769 0 0 0 3.92-1.471 3.35 3.35 0 0 0 1.957 1.371l-.031.713zm-.94-3.545a.75.75 0 0 0-.6-.64.743.743 0 0 0-.797.36c-.01.016-.94 1.489-3.567 1.714A2.645 2.645 0 0 1 6 10.65a2.965 2.965 0 0 1 2.134-.9h.231a2.965 2.965 0 0 1 2.135.9c.437.456.697 1.053.732 1.684a1.774 1.774 0 0 1-1.013-1.254zm30.616 16.53a4.463 4.463 0 0 0-3.22-1.36h-.232a4.463 4.463 0 0 0-3.216 1.36 4.124 4.124 0 0 0-1.164 3.058l.087 2.02a4.31 4.31 0 0 0 4.38 4.062h.057a4.31 4.31 0 0 0 4.38-4.063L42 30.668a4.126 4.126 0 0 0-1.164-3.058zm-.336 2.997l-.09 2.018a2.816 2.816 0 0 1-2.882 2.625h-.057a2.816 2.816 0 0 1-2.881-2.625l-.09-2.021a2.647 2.647 0 0 1 .75-1.954 2.964 2.964 0 0 1 2.134-.9h.231a2.964 2.964 0 0 1 2.135.9c.508.522.78 1.23.75 1.957z"/><path d="M23.169 10.907a2.076 2.076 0 0 0-2.887 0L11.91 19.28a.75.75 0 0 1-.53.22H3.75A3.754 3.754 0 0 0 0 23.25v10.5a2.25 2.25 0 0 0 3 2.122v.878c0 .414.336.75.75.75h9a.75.75 0 0 0 .75-.75V24.59a.75.75 0 0 1 .201-.512l9.517-10.235a2.076 2.076 0 0 0-.05-2.936zm-1.022 1.887a.293.293 0 0 1-.008.008L12.6 23.057a2.25 2.25 0 0 0-.6 1.532V36H4.5V24.75a.75.75 0 0 0-1.5 0v9a.75.75 0 0 1-1.5 0v-10.5A2.25 2.25 0 0 1 3.75 21h7.628a2.234 2.234 0 0 0 1.592-.66l8.373-8.372a.592.592 0 0 1 .814 0 .584.584 0 0 1-.01.826z"/><path d="M8.25 21.75a.75.75 0 0 0-.75.75v9a.75.75 0 0 0 1.5 0v-9a.75.75 0 0 0-.75-.75zm16.082 5.86a4.463 4.463 0 0 0-3.217-1.36h-.23a4.463 4.463 0 0 0-3.217 1.36 4.124 4.124 0 0 0-1.164 3.058l.087 2.02a4.31 4.31 0 0 0 4.38 4.062h.057a4.31 4.31 0 0 0 4.38-4.063l.088-2.019a4.124 4.124 0 0 0-1.164-3.058zM24 30.607l-.09 2.018a2.816 2.816 0 0 1-2.882 2.625h-.057a2.816 2.816 0 0 1-2.881-2.625L18 30.604a2.647 2.647 0 0 1 .75-1.954 2.965 2.965 0 0 1 2.134-.9h.231a2.965 2.965 0 0 1 2.135.9c.509.522.78 1.23.75 1.957zm.875 6.893h-7.75a3.629 3.629 0 0 0-3.625 3.625v3.125a.75.75 0 0 0 1.5 0v-3.125A2.127 2.127 0 0 1 17.125 39h7.75A2.127 2.127 0 0 1 27 41.125v3.125a.75.75 0 0 0 1.5 0v-3.125a3.629 3.629 0 0 0-3.625-3.625zm16.5 0h-7.75A3.629 3.629 0 0 0 30 41.125v3.125a.75.75 0 0 0 1.5 0v-3.125A2.127 2.127 0 0 1 33.625 39h7.75a2.127 2.127 0 0 1 2.125 2.125v3.125a.75.75 0 0 0 1.5 0v-3.125a3.629 3.629 0 0 0-3.625-3.625zM42.788 0H16.463a2.234 2.234 0 0 0-2.213 2.25V13.5a.75.75 0 0 0 1.5 0v-9H43.5v18a.733.733 0 0 1-.712.75H17.194a.75.75 0 1 0 0 1.5h25.594A2.234 2.234 0 0 0 45 22.5V2.25A2.234 2.234 0 0 0 42.788 0zm.712 3H15.75v-.75a.733.733 0 0 1 .713-.75h26.325a.733.733 0 0 1 .712.75V3z"/><path d="M41.25 9.563a.75.75 0 0 0-.75.75V21a.75.75 0 0 0 1.5 0V10.312a.75.75 0 0 0-.75-.75zm-3 4.687a.75.75 0 0 0-.75.75v6a.75.75 0 0 0 1.5 0v-6a.75.75 0 0 0-.75-.75zm-3-1.5a.75.75 0 0 0-.75.75V21a.75.75 0 0 0 1.5 0v-7.5a.75.75 0 0 0-.75-.75zm-3 4.5a.75.75 0 0 0-.75.75v3a.75.75 0 0 0 1.5 0v-3a.75.75 0 0 0-.75-.75z"/><path d="M41.666 6.126a.75.75 0 0 0-1.04.208l-2.56 3.84L35.7 8.4a.75.75 0 0 0-1.125.265l-2.92 5.842L28.8 16.65a.75.75 0 1 0 .9 1.2l3-2.25a.757.757 0 0 0 .225-.265l2.597-5.196L37.8 11.85a.75.75 0 0 0 1.074-.184l3-4.5a.75.75 0 0 0-.208-1.04zM27 6h-9a.75.75 0 0 0 0 1.5h9A.75.75 0 0 0 27 6zm4.5 0H30a.75.75 0 0 0 0 1.5h1.5a.75.75 0 0 0 0-1.5z"/><defs><clipPath id="rclip0"><path d="M0 0h45v45H0z"/></clipPath></defs></symbol></svg>