<?xml version="1.0" encoding="utf-8"?><svg xmlns="http://www.w3.org/2000/svg" xmlns:xlink="http://www.w3.org/1999/xlink"><symbol viewBox="0 0 48 48" id="ib1" xmlns="http://www.w3.org/2000/svg"><path d="M47.99 28.733c0-6.371-2.625-14.702-9.93-17.692V7.848l2.173-1.737a.828.828 0 0 0 .31-.646V.83a.827.827 0 0 0-.827-.827h-2.483a.824.824 0 0 0-.584.242l-1.07 1.07-1.07-1.07a.827.827 0 0 0-.585-.242h-3.31c-.22 0-.43.087-.585.242l-1.07 1.07-1.07-1.07a.827.827 0 0 0-.584-.242h-2.483a.827.827 0 0 0-.827.827v4.634c0 .251.114.489.31.646l2.172 1.737v3.193c-7.304 2.99-9.929 11.324-9.929 17.692-.015 1.494.217 2.98.687 4.399-.356-.02-.714-.032-1.072-.032h-2.097a.827.827 0 0 0-.827-.827h-6.62a.827.827 0 0 0-.827.827H0v1.655h5.792v8.274H0v1.655h5.792c0 .457.37.827.827.827h6.62c.456 0 .827-.37.827-.827v-.315l6.177 2.565a14.314 14.314 0 0 0 10.53.116l12.782-4.874a3.01 3.01 0 0 0 1.69-1.61 3.042 3.042 0 0 0-.536-3.303 11.478 11.478 0 0 0 3.28-8.53zM12.41 43.856H7.447v-9.928h4.964v9.928zM25.65 5.069v-3.41h1.312l1.412 1.413a.827.827 0 0 0 1.17 0l1.413-1.412h2.624l1.413 1.412a.827.827 0 0 0 1.17 0l1.412-1.412h1.312v3.409l-1.945 1.555h-9.35L25.65 5.068zm10.756 3.21v2.482h-8.274V8.278h8.274zm7.322 31.62a1.367 1.367 0 0 1-.766.734L30.18 45.505a12.659 12.659 0 0 1-9.31-.1l-6.804-2.828v-7.822h2.097c2.744.003 5.45.642 7.905 1.866.81.404 1.704.615 2.61.616h6.418a1.241 1.241 0 0 1 .273 2.45c-.108.01-.214.032-.324.032h-9.878v1.655h9.929c.017 0 .033-.005.05-.005a5.096 5.096 0 0 0 1.91-.404l6.918-2.937c.33-.14.702-.14 1.031 0 .343.145.612.423.745.77.14.355.133.752-.022 1.1zm-.493-3.525a2.945 2.945 0 0 0-1.908.132l-5.365 2.278c.015-.101.026-.203.03-.305a2.896 2.896 0 0 0-2.896-2.896h-6.418c-.65 0-1.29-.152-1.87-.441a19.398 19.398 0 0 0-5.702-1.806 11.336 11.336 0 0 1-.903-4.602c0-5.957 2.433-13.777 9.267-16.318h9.598c6.834 2.54 9.267 10.36 9.267 16.318a9.81 9.81 0 0 1-3.1 7.64z"/><path d="M34.026 23.715l-2.99-.997a.615.615 0 0 1 .193-1.199h2.08c.34 0 .615.276.615.616v.542h1.655v-.542a2.272 2.272 0 0 0-2.27-2.27h-.213V18.21h-1.654v1.654h-.213a2.27 2.27 0 0 0-.717 4.424l2.99.997a.615.615 0 0 1-.193 1.199h-2.08a.616.616 0 0 1-.615-.616v-.543H28.96v.543a2.272 2.272 0 0 0 2.27 2.27h.213v1.655h1.654V28.14h.213a2.27 2.27 0 0 0 .717-4.424z"/><path d="M32.269 14.9a9.102 9.102 0 0 0-9.101 9.1 9.112 9.112 0 0 0 9.101 9.102 9.102 9.102 0 0 0 0-18.203zm0 16.548a7.447 7.447 0 0 1-7.447-7.447 7.455 7.455 0 0 1 7.447-7.446 7.447 7.447 0 1 1 0 14.893z"/><defs><clipPath id="aclip0"><path transform="matrix(1 0 0 -1 0 48)" d="M0 0h48v48H0z"/></clipPath></defs></symbol><symbol viewBox="0 0 48 48" id="ib2" xmlns="http://www.w3.org/2000/svg"><path d="M47.2 26.4h-8a.8.8 0 0 0-.8.8v.8h-6.231a3.98 3.98 0 0 0-2.219.672L23.758 32.8h-6.376a3.378 3.378 0 0 0-2.816 1.509 3.389 3.389 0 0 0-.456 2.713l-9.863-3.084a3.146 3.146 0 0 0-2.119-.024A3.108 3.108 0 0 0 0 36.868c0 1.253.746 2.378 1.9 2.866l17.446 7.381c1.388.587 2.856.885 4.364.885h.203c1.205 0 2.397-.193 3.557-.58l10.93-3.886V44.8a.8.8 0 0 0 .8.8h8a.8.8 0 0 0 .8-.8V27.2a.8.8 0 0 0-.8-.8zm-8.8 15.435l-11.451 4.072a9.588 9.588 0 0 1-3.036.493h-.203a9.552 9.552 0 0 1-3.74-.758L2.523 38.26a1.51 1.51 0 0 1-.923-1.394c0-.652.416-1.228 1.076-1.448a1.558 1.558 0 0 1 1.051.032l11.524 3.604c.01.01.024.017.035.028.302.283.65.51 1.032.664l.048.018c.165.065.336.114.512.153l.125.026c.195.034.391.057.594.057H29.6v-1.6H17.597c-.15 0-.295-.026-.436-.06a1.883 1.883 0 0 1-.15-.05 1.781 1.781 0 0 1-.253-.11c-.052-.029-.104-.055-.152-.088a1.822 1.822 0 0 1-.255-.21c-.024-.024-.053-.043-.076-.068a1.791 1.791 0 0 1-.273-.4l-.216-.43a1.788 1.788 0 0 1 1.597-2.584H24a.804.804 0 0 0 .444-.134l6.394-4.263a2.383 2.383 0 0 1 1.33-.403H38.4v12.235zm8 2.165H40V28h6.4v16zm-4.8-28.8a3.203 3.203 0 0 0-3.2 3.2c0 1.765 1.435 3.2 3.2 3.2 1.765 0 3.2-1.435 3.2-3.2 0-1.765-1.435-3.2-3.2-3.2zm0 4.8c-.882 0-1.6-.718-1.6-1.6 0-.882.718-1.6 1.6-1.6.882 0 1.6.718 1.6 1.6 0 .882-.718 1.6-1.6 1.6zM30.4 4a3.203 3.203 0 0 0-3.2 3.2c0 1.765 1.435 3.2 3.2 3.2 1.765 0 3.2-1.435 3.2-3.2 0-1.765-1.435-3.2-3.2-3.2zm0 4.8c-.882 0-1.6-.718-1.6-1.6 0-.882.718-1.6 1.6-1.6.882 0 1.6.718 1.6 1.6 0 .882-.718 1.6-1.6 1.6zm13.031-4.563L27.434 20.234l1.131 1.132L44.562 5.368l-1.13-1.131zM12.8 0C5.742 0 0 5.742 0 12.8c0 7.058 5.742 12.8 12.8 12.8 7.058 0 12.8-5.742 12.8-12.8C25.6 5.742 19.858 0 12.8 0zm0 24C6.624 24 1.6 18.976 1.6 12.8c0-6.176 5.024-11.2 11.2-11.2C18.976 1.6 24 6.624 24 12.8 24 18.976 18.976 24 12.8 24z"/><path d="M17.3 15.375l-3.7-2.96V6.514A3.195 3.195 0 0 1 16 9.6h1.6a4.805 4.805 0 0 0-4-4.728V3.2H12v1.672A4.803 4.803 0 0 0 8 9.6a.8.8 0 0 0 .3.625l3.7 2.96v5.901A3.197 3.197 0 0 1 9.6 16H8a4.805 4.805 0 0 0 4 4.728V22.4h1.6v-1.672a4.803 4.803 0 0 0 4-4.728.8.8 0 0 0-.3-.625zm-5.3-4.24L9.62 9.232A3.198 3.198 0 0 1 12 6.514v4.621zm1.6 7.95v-4.62l2.38 1.903a3.198 3.198 0 0 1-2.38 2.718zM4.8 24.8H3.2v1.6h1.6v-1.6zm0 3.2H3.2v3.2h1.6V28zm17.6-3.2h-1.6v1.6h1.6v-1.6zm0 3.2h-1.6v3.2h1.6V28zm-8.8-.8H12v1.6h1.6v-1.6zm0 3.2H12v2.4h1.6v-2.4z"/><defs><clipPath id="bclip0"><path d="M0 0h48v48H0z"/></clipPath></defs></symbol></svg>