<svg width="142" height="62" viewBox="0 0 142 62" fill="none" xmlns="http://www.w3.org/2000/svg">
<g clip-path="url(#clip0)">
<path fill-rule="evenodd" clip-rule="evenodd" d="M38.4291 30.6613L30.0814 37.158L21.7339 43.6547V30.6613V17.668L30.0814 24.1646L38.4291 30.6613Z" fill="#2B2A29"/>
<path fill-rule="evenodd" clip-rule="evenodd" d="M49.7256 30.6613L40.9973 37.4543L32.269 44.2473V38.3156L42.1041 30.6613L32.269 23.0068V17.0752L40.9973 23.8681L49.7256 30.6613Z" fill="#E31E24"/>
<path d="M69.3473 14.8843C69.6668 14.8953 69.9628 14.9533 70.2354 15.0578C70.5081 15.1624 70.7448 15.3056 70.9459 15.4889C71.1469 15.6706 71.3038 15.8853 71.4168 16.1331C71.5297 16.3823 71.5861 16.655 71.5861 16.9537V17.7468C71.5861 18.0511 71.5311 18.3292 71.4209 18.5826C71.3108 18.8372 71.1566 19.0576 70.9583 19.2447C70.7599 19.4321 70.5232 19.5808 70.2478 19.6881C69.9725 19.7955 69.6723 19.852 69.3473 19.8576V20.3367H68.2155V19.8576C67.8795 19.8409 67.574 19.7777 67.2986 19.6674C67.0232 19.5573 66.7878 19.41 66.5922 19.2282C66.3966 19.0465 66.2452 18.8317 66.1379 18.5826C66.0305 18.3347 65.9767 18.0594 65.9767 17.7551V16.9537C65.9767 16.655 66.036 16.381 66.1544 16.129C66.2728 15.8784 66.4325 15.6636 66.6336 15.4847C66.8347 15.3043 67.0714 15.1624 67.344 15.0578C67.6166 14.9533 67.9072 14.8953 68.2156 14.8843V14.5869H69.3474V14.8843H69.3473ZM70.4791 17.0708C70.4791 16.7128 70.3745 16.4319 70.1651 16.2254C69.9558 16.0201 69.6832 15.9115 69.3473 15.9003V18.8413C69.6723 18.8303 69.9422 18.723 70.1569 18.5205C70.3716 18.3167 70.4791 18.0372 70.4791 17.6792V17.0707V17.0708ZM67.0837 17.6793C67.0837 17.8556 67.1141 18.0154 67.1746 18.1572C67.2351 18.3004 67.3164 18.4215 67.4183 18.5206C67.5201 18.6184 67.6398 18.6955 67.7775 18.7505C67.9152 18.8056 68.0612 18.8358 68.2154 18.8413V15.9003C68.0612 15.9059 67.9152 15.9362 67.7775 15.9912C67.6398 16.0464 67.5201 16.1248 67.4183 16.2253C67.3164 16.3272 67.235 16.4496 67.1746 16.5928C67.114 16.7346 67.0837 16.8944 67.0837 17.0707V17.6792V17.6793ZM76.8732 18.5192C76.8732 18.8277 76.8154 19.0975 76.6997 19.3288C76.584 19.56 76.4285 19.7557 76.2301 19.9154C76.0318 20.0751 75.7991 20.1949 75.5334 20.2747C75.2664 20.3545 74.9855 20.3944 74.688 20.3944C74.3906 20.3944 74.1097 20.3545 73.8426 20.2747C73.5769 20.1949 73.3443 20.075 73.1459 19.9154C72.9476 19.7557 72.7921 19.5601 72.6764 19.3288C72.5607 19.0975 72.5029 18.8277 72.5029 18.5192V16.4292C72.5029 16.1262 72.5635 15.8591 72.6847 15.6279C72.8058 15.3966 72.9669 15.2038 73.1708 15.0495C73.3746 14.8953 73.6086 14.7798 73.8716 14.7026C74.1359 14.6255 74.4071 14.5869 74.688 14.5869C74.9689 14.5869 75.2401 14.6282 75.5045 14.7108C75.7688 14.7934 76.0015 14.9132 76.2053 15.0702C76.4092 15.2271 76.5702 15.4226 76.6914 15.6567C76.8126 15.8907 76.8732 16.1592 76.8732 16.4621V18.5191V18.5192ZM75.7414 16.6605C75.7414 16.4732 75.7111 16.3148 75.6505 16.1853C75.5899 16.056 75.5101 15.95 75.411 15.8673C75.3119 15.7848 75.2003 15.7241 75.0764 15.6855C74.9525 15.647 74.8244 15.6277 74.6922 15.6277C74.5601 15.6277 74.4307 15.647 74.304 15.6855C74.1774 15.7241 74.0645 15.7847 73.9652 15.8673C73.8662 15.9499 73.7862 16.056 73.7258 16.1853C73.6651 16.3148 73.6349 16.4732 73.6349 16.6605V18.321C73.6349 18.5082 73.6652 18.6679 73.7258 18.8001C73.7863 18.9323 73.8662 19.0397 73.9652 19.1223C74.0644 19.2049 74.1773 19.2641 74.304 19.3C74.4307 19.3358 74.5601 19.3537 74.6922 19.3537C74.8244 19.3537 74.9525 19.3358 75.0764 19.3C75.2003 19.2641 75.3118 19.205 75.411 19.1223C75.5101 19.0398 75.59 18.9323 75.6505 18.8001C75.7112 18.6679 75.7414 18.5082 75.7414 18.321V16.6605ZM81.0368 20.3367V17.9575H78.9384V20.3367H77.8066V14.6447H78.9384V16.9413H81.0368V14.6447H82.1851V20.3367H81.0368ZM83.1681 19.3371C83.2948 19.2435 83.4021 19.1318 83.4903 19.0025C83.5784 18.8731 83.6514 18.7147 83.7092 18.5274C83.7671 18.3401 83.8124 18.1212 83.8455 17.8706C83.8786 17.6201 83.9034 17.3241 83.9198 16.9826L84.0272 14.6447H87.8769C87.8769 15.4322 87.8783 16.2157 87.881 16.9949C87.8838 17.7743 87.8852 18.5577 87.8852 19.3453H88.3809V21.6088H87.3481V20.3366H83.7793V21.6088H82.7466V19.337H83.1679L83.1681 19.3371ZM85.0434 15.6443L84.9773 17.0073C84.9662 17.2497 84.9525 17.4797 84.9359 17.6971C84.9194 17.9147 84.8946 18.1212 84.8617 18.3168C84.8285 18.5124 84.7818 18.6968 84.7212 18.8703C84.6606 19.0438 84.578 19.2022 84.4734 19.3454H86.7618V15.6443H85.0434V15.6443ZM67.1167 26.6896H68.2733C68.5322 26.6896 68.7277 26.6181 68.8598 26.4736C68.992 26.3304 69.0581 26.1499 69.0581 25.9338C69.0581 25.7121 68.9906 25.529 68.8557 25.3858C68.7208 25.2413 68.5266 25.1697 68.2733 25.1697H67.1167V26.6897V26.6896ZM68.5294 24.1534C68.8103 24.1534 69.0525 24.2071 69.2564 24.3145C69.4602 24.4219 69.6294 24.561 69.7643 24.7317C69.8993 24.9024 69.9984 25.0938 70.0619 25.3059C70.1252 25.5179 70.1568 25.7258 70.1568 25.9297C70.1568 26.139 70.1196 26.3483 70.0452 26.5575C69.971 26.7669 69.8635 26.9568 69.723 27.1276C69.5826 27.2983 69.4091 27.4374 69.2026 27.5448C68.9961 27.6522 68.7606 27.7058 68.4963 27.7058H67.1167V29.8456H65.9849V24.1535H68.5294V24.1534ZM73.4696 28.6723H71.4869L71.1152 29.8455H69.909L71.9083 24.1534H73.0649L75.0476 29.8455H73.8167L73.4697 28.6723H73.4696ZM71.7926 27.7223H73.1639L72.9409 26.9953L72.4948 25.4918H72.4617L72.0238 26.9705L71.7926 27.7223ZM77.2862 24.104C77.5451 24.104 77.7928 24.1315 78.0297 24.1865C78.2666 24.2417 78.4758 24.331 78.6577 24.455C78.8394 24.5789 78.984 24.74 79.0914 24.9383C79.1987 25.1366 79.2525 25.3789 79.2525 25.6653C79.2525 25.9407 79.1822 26.1858 79.0417 26.4006C78.9013 26.6154 78.7127 26.7778 78.4758 26.8881C78.7512 26.9926 78.9592 27.1579 79.0997 27.3837C79.2401 27.6095 79.3103 27.8573 79.3103 28.1272C79.3103 28.4412 79.2511 28.7096 79.1327 28.9326C79.0143 29.1557 78.8573 29.3402 78.6618 29.4861C78.4662 29.6321 78.2405 29.7381 77.9844 29.8042C77.7283 29.8704 77.4598 29.9033 77.1789 29.9033C76.9862 29.9033 76.7962 29.8909 76.6089 29.8662C76.4217 29.8414 76.2413 29.8041 76.0678 29.7546C75.8943 29.7051 75.7332 29.6445 75.5845 29.5729C75.4358 29.5013 75.3064 29.4187 75.1963 29.325L75.7828 28.4907C75.8654 28.5568 75.9618 28.616 76.0719 28.6683C76.1821 28.7207 76.2977 28.7633 76.419 28.7963C76.5402 28.8294 76.6599 28.8556 76.7783 28.8748C76.8967 28.8941 77.0027 28.9037 77.0964 28.9037C77.4488 28.9037 77.7174 28.8307 77.9018 28.6848C78.0864 28.5389 78.1785 28.3447 78.1785 28.1024C78.1785 27.8546 78.0933 27.6687 77.9224 27.5448C77.7517 27.4208 77.526 27.3589 77.2451 27.3589H76.485V26.4667H77.212C77.3331 26.4667 77.4474 26.45 77.5549 26.417C77.6623 26.384 77.7573 26.3359 77.8399 26.2752C77.9224 26.2146 77.9886 26.1375 78.0382 26.0426C78.0879 25.949 78.1126 25.8428 78.1126 25.7272C78.1126 25.6047 78.085 25.5029 78.0299 25.4188C77.9749 25.3363 77.9033 25.2687 77.8153 25.2164C77.7271 25.1626 77.6265 25.1255 77.5137 25.1035C77.4008 25.0814 77.2838 25.0704 77.1625 25.0704C76.9753 25.0704 76.7687 25.1048 76.5429 25.1736C76.3171 25.2425 76.1244 25.3458 75.9645 25.4835L75.4111 24.6766C75.6479 24.4921 75.926 24.3488 76.2454 24.2512C76.565 24.1534 76.9118 24.1039 77.2864 24.1039L77.2862 24.104ZM84.4653 28.1547C84.4653 28.3859 84.4295 28.6022 84.3579 28.8059C84.2864 29.0097 84.1816 29.1886 84.0439 29.3428C83.9062 29.4957 83.7355 29.6182 83.5317 29.7091C83.328 29.7999 83.0911 29.8454 82.8213 29.8454H80.1529V24.1533H82.7139C83.0003 24.1533 83.2467 24.1946 83.4534 24.2773C83.6599 24.3599 83.8305 24.4728 83.9655 24.6173C84.1004 24.7605 84.2009 24.9259 84.267 25.113C84.3332 25.3003 84.3661 25.4972 84.3661 25.7009C84.3661 25.9103 84.3097 26.125 84.1968 26.3467C84.0839 26.5669 83.9062 26.7376 83.6639 26.8588C83.8016 26.925 83.92 27.0089 84.0192 27.1107C84.1182 27.2126 84.2009 27.3228 84.267 27.4412C84.3331 27.5582 84.3825 27.6794 84.4157 27.8033C84.4487 27.9272 84.4653 28.0443 84.4653 28.1545V28.1547ZM83.2013 25.814C83.2013 25.6047 83.1392 25.445 83.0154 25.3349C82.8915 25.2247 82.6973 25.1696 82.4329 25.1696H81.2846V26.417H82.4495C82.6862 26.417 82.8708 26.3619 83.0029 26.2518C83.1351 26.1416 83.2013 25.9957 83.2013 25.8139V25.814ZM83.2674 28.1148C83.2674 27.896 83.1985 27.7196 83.0609 27.5848C82.9232 27.4512 82.7332 27.3837 82.4908 27.3837H81.2847V28.8294H82.4991C82.7524 28.8294 82.9438 28.7647 83.0732 28.6366C83.2027 28.5072 83.2674 28.3337 83.2674 28.1148V28.1148ZM88.728 26.1362L88.1663 27.0036C88.1002 27.1083 88.019 27.2363 87.9226 27.3878C87.8263 27.5392 87.7202 27.7031 87.6045 27.8794C87.4889 28.0557 87.3706 28.2373 87.2494 28.4246C87.1282 28.6119 87.0112 28.7936 86.8982 28.9698C86.7853 29.1462 86.6794 29.31 86.5801 29.4615C86.481 29.6129 86.3984 29.741 86.3323 29.8456H85.3079V24.1535H86.4397V27.8959H86.4727L87.6597 26.0371L88.8712 24.1534H89.9012V29.8455H88.7694V26.1361H88.728V26.1362ZM93.1396 25.1697V29.8456H92.0078V25.1697H90.496V24.1535H94.6432V25.1697H93.1397H93.1396ZM98.6498 26.1362L98.0881 27.0036C98.0219 27.1083 97.9408 27.2363 97.8444 27.3878C97.748 27.5392 97.642 27.7031 97.5263 27.8794C97.4107 28.0557 97.2923 28.2373 97.1711 28.4246C97.0499 28.6119 96.933 28.7936 96.82 28.9698C96.7071 29.1462 96.6011 29.31 96.5018 29.4615C96.4028 29.6129 96.3201 29.741 96.2541 29.8456H95.2296V24.1535H96.3614V27.8959H96.3945L97.5814 26.0371L98.793 24.1534H99.8229V29.8455H98.6912V26.1361H98.6498V26.1362ZM105.011 24.1535V29.8456H103.879V27.5903H103.218C103.103 27.5903 102.998 27.6013 102.904 27.6233C102.811 27.6454 102.725 27.6839 102.648 27.739C102.571 27.7941 102.502 27.8698 102.442 27.9661C102.381 28.0625 102.329 28.1878 102.285 28.342L101.855 29.8455H100.608L101.087 28.284C101.153 28.0747 101.227 27.889 101.31 27.7265C101.393 27.5639 101.522 27.4359 101.698 27.3424C101.527 27.2927 101.384 27.2171 101.269 27.1152C101.153 27.0133 101.058 26.8964 100.984 26.7641C100.909 26.6319 100.856 26.4901 100.822 26.3386C100.789 26.1872 100.773 26.0371 100.773 25.8883C100.773 25.6736 100.807 25.4615 100.876 25.2523C100.945 25.0429 101.051 24.8571 101.193 24.6946C101.336 24.5322 101.516 24.4014 101.734 24.3022C101.95 24.2031 102.208 24.1535 102.505 24.1535H105.011H105.011ZM103.879 25.1697H102.739C102.458 25.1697 102.252 25.2386 102.119 25.3763C101.987 25.514 101.921 25.7012 101.921 25.9381C101.921 26.1583 101.99 26.325 102.128 26.4378C102.265 26.5507 102.464 26.6072 102.723 26.6072H103.879V25.1697ZM69.2151 39.3542V34.6784H67.1168V39.3542H65.985V33.6622H70.3635V39.3542H69.2151V39.3542ZM72.4535 36.1984H73.6101C73.869 36.1984 74.0645 36.1268 74.1966 35.9823C74.3288 35.8391 74.3949 35.6587 74.3949 35.4425C74.3949 35.2209 74.3274 35.0377 74.1925 34.8945C74.0576 34.75 73.8634 34.6785 73.6101 34.6785H72.4535V36.1985V36.1984ZM73.8662 33.6622C74.1471 33.6622 74.3893 33.7159 74.5932 33.8233C74.797 33.9307 74.9662 34.0698 75.1011 34.2405C75.2361 34.4112 75.3352 34.6025 75.3986 34.8147C75.462 35.0266 75.4936 35.2346 75.4936 35.4384C75.4936 35.6478 75.4564 35.857 75.382 36.0663C75.3078 36.2756 75.2003 36.4656 75.0598 36.6364C74.9194 36.8071 74.7459 36.9462 74.5394 37.0536C74.3329 37.161 74.0974 37.2146 73.8331 37.2146H72.4535V39.3543H71.3216V33.6623H73.8662V33.6622ZM80.4173 37.5366C80.4173 37.8451 80.3595 38.1149 80.2438 38.3462C80.1281 38.5775 79.9726 38.7731 79.7743 38.9328C79.5759 39.0925 79.3432 39.2123 79.0776 39.2921C78.8105 39.3719 78.5296 39.4119 78.2322 39.4119C77.9347 39.4119 77.6538 39.3719 77.3868 39.2921C77.1211 39.2123 76.8884 39.0924 76.6901 38.9328C76.4917 38.7731 76.3362 38.5776 76.2205 38.3462C76.1048 38.1149 76.047 37.8451 76.047 37.5366V35.4466C76.047 35.1436 76.1076 34.8765 76.2288 34.6453C76.3499 34.414 76.511 34.2212 76.7149 34.067C76.9187 33.9127 77.1527 33.7972 77.4157 33.72C77.6801 33.643 77.9513 33.6043 78.2322 33.6043C78.5131 33.6043 78.7843 33.6457 79.0486 33.7282C79.3129 33.8108 79.5456 33.9307 79.7494 34.0876C79.9533 34.2445 80.1143 34.44 80.2355 34.6741C80.3567 34.9082 80.4173 35.1766 80.4173 35.4796V37.5365V37.5366ZM79.2855 35.6779C79.2855 35.4906 79.2552 35.3323 79.1946 35.2028C79.134 35.0734 79.0542 34.9674 78.9551 34.8847C78.856 34.8022 78.7444 34.7415 78.6205 34.7029C78.4966 34.6644 78.3686 34.6451 78.2364 34.6451C78.1042 34.6451 77.9748 34.6644 77.8481 34.7029C77.7215 34.7415 77.6086 34.8021 77.5093 34.8847C77.4103 34.9673 77.3303 35.0734 77.2699 35.2028C77.2092 35.3323 77.179 35.4906 77.179 35.6779V37.3384C77.179 37.5256 77.2093 37.6853 77.2699 37.8175C77.3304 37.9497 77.4103 38.0571 77.5093 38.1398C77.6085 38.2223 77.7214 38.2816 77.8481 38.3174C77.9748 38.3532 78.1042 38.3711 78.2364 38.3711C78.3686 38.3711 78.4966 38.3532 78.6205 38.3174C78.7444 38.2816 78.8559 38.2224 78.9551 38.1398C79.0542 38.0572 79.1341 37.9497 79.1946 37.8175C79.2553 37.6853 79.2855 37.5256 79.2855 37.3384V35.6779ZM85.7044 36.2975L85.1771 37.3467L84.5341 38.5694H83.7191L83.0843 37.3715L82.5322 36.2976H82.4992V39.3542H81.3674V33.6622H82.4083L83.4244 35.6697L84.1101 37.0741H84.1598L84.8537 35.6367L85.8285 33.6622H86.8694V39.3542H85.7376V36.2976H85.7046L85.7044 36.2975ZM88.9841 38.3381H90.1571C90.4105 38.3381 90.613 38.2665 90.7644 38.1233C90.9159 37.9801 90.9915 37.8011 90.9915 37.5864C90.9915 37.3661 90.9159 37.1871 90.7644 37.0494C90.613 36.9117 90.4078 36.8428 90.1489 36.8428H88.9841V38.3381V38.3381ZM87.8523 39.3542V33.6622H88.9841V35.8267H90.2976C90.5785 35.8267 90.8291 35.8707 91.0495 35.9588C91.2697 36.047 91.457 36.1696 91.6112 36.3237C91.7654 36.4779 91.8838 36.6624 91.9663 36.8786C92.049 37.0933 92.0903 37.3288 92.0903 37.5822C92.0903 37.7915 92.0572 38.0021 91.9911 38.2114C91.925 38.4208 91.8218 38.6107 91.6813 38.7787C91.5409 38.9466 91.3605 39.0857 91.1402 39.1931C90.92 39.3005 90.6528 39.3542 90.339 39.3542H87.8524H87.8523ZM93.759 33.6622V39.3542H92.6272V33.6622H93.759ZM101.359 33.6622V39.3542H94.7586V33.6622H95.8904V38.3381H97.4931V33.6622H98.625V38.3381H100.228V33.6622H101.359H101.359ZM104.028 34.6784V36.1902C104.028 36.6638 104 37.0934 103.945 37.4789C103.89 37.8644 103.791 38.1976 103.648 38.4785C103.504 38.7594 103.305 38.9852 103.049 39.1559C102.793 39.3267 102.463 39.4396 102.061 39.4946L101.814 38.5695C102.05 38.4924 102.241 38.3931 102.384 38.272C102.527 38.1509 102.638 37.9967 102.718 37.8094C102.798 37.6221 102.85 37.399 102.875 37.1402C102.9 36.8814 102.912 36.5757 102.912 36.2233V33.6623H106.663V39.3543H105.515V34.6785H104.028L104.028 34.6784ZM107.687 33.6622H111.611V34.6784H108.819V35.9836H111.207V36.9998H108.819V38.3381H111.611V39.3542H107.687V33.6622ZM115.668 39.3542V36.975H113.569V39.3542H112.437V33.6622H113.569V35.9588H115.668V33.6622H116.816V39.3542H115.668ZM121.004 39.3542V36.975H118.906V39.3542H117.774V33.6622H118.906V35.9588H121.004V33.6622H122.153V39.3542H121.004ZM127.448 37.5367C127.448 37.8452 127.39 38.115 127.275 38.3463C127.159 38.5776 127.003 38.7732 126.805 38.9329C126.607 39.0926 126.374 39.2124 126.108 39.2922C125.841 39.372 125.56 39.412 125.263 39.412C124.965 39.412 124.685 39.372 124.417 39.2922C124.152 39.2124 123.919 39.0925 123.721 38.9329C123.522 38.7732 123.367 38.5777 123.251 38.3463C123.136 38.115 123.078 37.8452 123.078 37.5367V35.4467C123.078 35.1437 123.138 34.8766 123.26 34.6454C123.381 34.4141 123.542 34.2213 123.746 34.0671C123.949 33.9128 124.183 33.7973 124.446 33.7201C124.711 33.6431 124.982 33.6044 125.263 33.6044C125.544 33.6044 125.815 33.6458 126.079 33.7283C126.344 33.8109 126.576 33.9308 126.78 34.0877C126.984 34.2446 127.145 34.4401 127.266 34.6742C127.387 34.9083 127.448 35.1767 127.448 35.4797V37.5366V37.5367ZM126.316 35.678C126.316 35.4907 126.286 35.3324 126.225 35.2029C126.165 35.0735 126.085 34.9675 125.986 34.8848C125.887 34.8023 125.775 34.7416 125.651 34.703C125.527 34.6645 125.399 34.6452 125.267 34.6452C125.135 34.6452 125.006 34.6645 124.879 34.703C124.752 34.7416 124.639 34.8022 124.54 34.8848C124.441 34.9674 124.361 35.0735 124.301 35.2029C124.24 35.3324 124.21 35.4907 124.21 35.678V37.3385C124.21 37.5257 124.24 37.6854 124.301 37.8176C124.361 37.9498 124.441 38.0572 124.54 38.1399C124.639 38.2224 124.752 38.2817 124.879 38.3175C125.006 38.3533 125.135 38.3712 125.267 38.3712C125.399 38.3712 125.527 38.3533 125.651 38.3175C125.775 38.2817 125.887 38.2225 125.986 38.1399C126.085 38.0573 126.165 37.9498 126.225 37.8176C126.286 37.6854 126.316 37.5257 126.316 37.3385V35.678ZM131.736 35.0419C131.559 34.8932 131.369 34.79 131.166 34.7321C130.962 34.6742 130.763 34.6454 130.571 34.6454C130.444 34.6454 130.317 34.6633 130.191 34.6991C130.064 34.7349 129.951 34.7941 129.852 34.8767C129.753 34.9593 129.672 35.0668 129.608 35.199C129.545 35.3312 129.513 35.4909 129.513 35.6782V37.3387C129.513 37.5259 129.545 37.6843 129.608 37.8137C129.672 37.9431 129.754 38.0491 129.856 38.1317C129.958 38.2144 130.071 38.2749 130.195 38.3136C130.319 38.3521 130.444 38.3714 130.571 38.3714C130.763 38.3714 130.958 38.3439 131.153 38.2889C131.349 38.2337 131.546 38.1291 131.744 37.9749L132.281 38.8507C132.072 39.0269 131.815 39.1646 131.512 39.2636C131.21 39.3628 130.89 39.4124 130.554 39.4124C130.284 39.4124 130.02 39.3738 129.761 39.2968C129.502 39.2197 129.271 39.1053 129.067 38.9538C128.863 38.8024 128.698 38.6124 128.572 38.3838C128.445 38.1553 128.381 37.8869 128.381 37.5784V35.447C128.381 35.144 128.444 34.8783 128.567 34.6498C128.691 34.4213 128.854 34.2299 129.055 34.0757C129.256 33.9215 129.486 33.8058 129.745 33.7286C130.004 33.6516 130.268 33.613 130.538 33.613C130.868 33.613 131.186 33.6571 131.492 33.7451C131.798 33.8333 132.061 33.9737 132.281 34.1665L131.736 35.0422V35.0419ZM135.28 34.6785V39.3543H134.148V34.6785H132.636V33.6623H136.783V34.6785H135.28H135.28ZM140.79 35.645L140.228 36.5124C140.162 36.6171 140.081 36.7451 139.984 36.8966C139.888 37.048 139.782 37.2119 139.666 37.3881C139.551 37.5644 139.432 37.7461 139.311 37.9334C139.19 38.1206 139.073 38.3024 138.96 38.4786C138.847 38.6549 138.741 38.8187 138.642 38.9702C138.543 39.1217 138.46 39.2497 138.394 39.3543H137.37V33.6623H138.501V37.4046H138.535L139.721 35.5458L140.933 33.6622H141.963V39.3542H140.831V35.6449H140.79V35.645ZM68.934 45.3408C68.934 45.5603 68.8928 45.7525 68.8105 45.9171C68.7282 46.0818 68.6174 46.2209 68.4762 46.3346C68.3351 46.4483 68.1695 46.5336 67.9804 46.5904C67.7902 46.6472 67.5904 46.6756 67.3786 46.6756C67.167 46.6756 66.9671 46.6471 66.7768 46.5904C66.5877 46.5335 66.4221 46.4483 66.281 46.3346C66.1399 46.2209 66.0291 46.0818 65.9467 45.9171C65.8645 45.7525 65.8232 45.5604 65.8232 45.3408V43.8531C65.8232 43.6376 65.8665 43.4474 65.9526 43.2827C66.0388 43.1181 66.1536 42.9809 66.2987 42.8711C66.4437 42.7613 66.6103 42.679 66.7974 42.6241C66.9857 42.5693 67.1786 42.5419 67.3786 42.5419C67.5786 42.5419 67.7716 42.5713 67.9598 42.63C68.148 42.6889 68.3135 42.7741 68.4586 42.8858C68.6036 42.9975 68.7183 43.1367 68.8046 43.3033C68.8908 43.4699 68.934 43.661 68.934 43.8766V45.3409V45.3408ZM68.1284 44.0177C68.1284 43.8844 68.1069 43.7718 68.0636 43.6795C68.0205 43.5874 67.9638 43.512 67.8931 43.4532C67.8226 43.3944 67.7432 43.3513 67.6549 43.3238C67.5668 43.2963 67.4756 43.2826 67.3815 43.2826C67.2875 43.2826 67.1953 43.2963 67.1052 43.3238C67.0151 43.3513 66.9346 43.3944 66.8641 43.4532C66.7936 43.5121 66.7367 43.5874 66.6936 43.6795C66.6504 43.7717 66.6288 43.8844 66.6288 44.0177V45.1997C66.6288 45.333 66.6504 45.4466 66.6936 45.5408C66.7367 45.6348 66.7935 45.7113 66.8641 45.7701C66.9346 45.8289 67.0151 45.8709 67.1052 45.8965C67.1953 45.922 67.2875 45.9347 67.3815 45.9347C67.4756 45.9347 67.5668 45.922 67.6549 45.8965C67.7432 45.8709 67.8226 45.8288 67.8931 45.7701C67.9637 45.7112 68.0205 45.6348 68.0636 45.5408C68.1069 45.4467 68.1284 45.333 68.1284 45.1997V44.0177ZM70.4041 44.3881H71.2273C71.4115 44.3881 71.5507 44.3372 71.6448 44.2343C71.7388 44.1323 71.7859 44.0039 71.7859 43.8501C71.7859 43.6923 71.7378 43.5619 71.6419 43.46C71.5458 43.3572 71.4076 43.3062 71.2273 43.3062H70.4041V44.3881ZM71.4096 42.5829C71.6096 42.5829 71.782 42.6211 71.9271 42.6975C72.0721 42.7739 72.1926 42.873 72.2886 42.9945C72.3846 43.116 72.4553 43.2522 72.5003 43.4032C72.5454 43.5541 72.5679 43.7021 72.5679 43.8471C72.5679 43.9961 72.5414 44.1451 72.4886 44.294C72.4356 44.443 72.3593 44.5783 72.2593 44.6998C72.1593 44.8213 72.0359 44.9203 71.8889 44.9967C71.7418 45.0732 71.5742 45.1114 71.3862 45.1114H70.4042V46.6344H69.5986V42.5829H71.4097H71.4096ZM74.1969 43.3062V44.3822C74.1969 44.7194 74.1773 45.0251 74.138 45.2995C74.0988 45.5739 74.0283 45.8111 73.9264 46.011C73.8245 46.211 73.6824 46.3716 73.5001 46.4933C73.3178 46.6148 73.0836 46.6952 72.7974 46.7344L72.621 46.0758C72.7895 46.0209 72.9248 45.9503 73.0267 45.8641C73.1285 45.7779 73.208 45.6681 73.2648 45.5348C73.3217 45.4015 73.3589 45.2427 73.3765 45.0585C73.3941 44.8741 73.403 44.6567 73.403 44.4058V42.5829H76.0726V46.6344H75.2553V43.3062H74.1969V43.3062ZM79.8773 45.3408C79.8773 45.5603 79.8362 45.7525 79.7538 45.9171C79.6716 46.0818 79.5608 46.2209 79.4196 46.3346C79.2785 46.4483 79.1129 46.5336 78.9237 46.5904C78.7336 46.6472 78.5338 46.6756 78.322 46.6756C78.1104 46.6756 77.9104 46.6471 77.7202 46.5904C77.5311 46.5335 77.3654 46.4483 77.2243 46.3346C77.0832 46.2209 76.9725 46.0818 76.8901 45.9171C76.8078 45.7525 76.7666 45.5604 76.7666 45.3408V43.8531C76.7666 43.6376 76.8098 43.4474 76.896 43.2827C76.9822 43.1181 77.097 42.9809 77.2421 42.8711C77.3871 42.7613 77.5537 42.679 77.7408 42.6241C77.929 42.5693 78.122 42.5419 78.322 42.5419C78.522 42.5419 78.715 42.5713 78.9031 42.63C79.0914 42.6889 79.2569 42.7741 79.402 42.8858C79.547 42.9975 79.6617 43.1367 79.7479 43.3033C79.8342 43.4699 79.8773 43.661 79.8773 43.8766V45.3409V45.3408ZM79.0718 44.0177C79.0718 43.8844 79.0502 43.7718 79.007 43.6795C78.9639 43.5874 78.9071 43.512 78.8365 43.4532C78.7659 43.3944 78.6866 43.3513 78.5983 43.3238C78.5102 43.2963 78.419 43.2826 78.3249 43.2826C78.2309 43.2826 78.1387 43.2963 78.0485 43.3238C77.9585 43.3513 77.878 43.3944 77.8075 43.4532C77.737 43.5121 77.6801 43.5874 77.6369 43.6795C77.5938 43.7717 77.5722 43.8844 77.5722 44.0177V45.1997C77.5722 45.333 77.5938 45.4466 77.6369 45.5408C77.6801 45.6348 77.7369 45.7113 77.8075 45.7701C77.878 45.8289 77.9585 45.8709 78.0485 45.8965C78.1387 45.922 78.2309 45.9347 78.3249 45.9347C78.419 45.9347 78.5102 45.922 78.5983 45.8965C78.6866 45.8709 78.7659 45.8288 78.8365 45.7701C78.907 45.7112 78.9639 45.6348 79.007 45.5408C79.0502 45.4467 79.0718 45.333 79.0718 45.1997V44.0177ZM83.6173 45.4309C83.6173 45.5955 83.5918 45.7495 83.5408 45.8946C83.4898 46.0396 83.4154 46.167 83.3175 46.2767C83.2195 46.3855 83.0979 46.4728 82.9529 46.5374C82.8078 46.6022 82.6393 46.6344 82.4473 46.6344H80.5478V42.5829H82.3707C82.5746 42.5829 82.75 42.6123 82.897 42.6711C83.044 42.7299 83.1656 42.8102 83.2615 42.9131C83.3575 43.015 83.4292 43.1326 83.4761 43.2659C83.5232 43.3992 83.5466 43.5393 83.5466 43.6843C83.5466 43.8333 83.5064 43.9862 83.4261 44.144C83.3458 44.3008 83.2193 44.4223 83.0469 44.5086C83.1449 44.5556 83.2292 44.6154 83.2997 44.6879C83.3702 44.7604 83.4291 44.8388 83.4761 44.9231C83.5232 45.0063 83.5584 45.0927 83.582 45.1809C83.6055 45.269 83.6173 45.3524 83.6173 45.4307V45.4309ZM82.7175 43.7649C82.7175 43.6158 82.6734 43.5023 82.5853 43.4238C82.4971 43.3455 82.3589 43.3062 82.1707 43.3062H81.3533V44.1942H82.1825C82.351 44.1942 82.4824 44.1549 82.5763 44.0766C82.6704 43.9982 82.7175 43.8942 82.7175 43.7649V43.7649ZM82.7646 45.4025C82.7646 45.2466 82.7155 45.1212 82.6176 45.0252C82.5196 44.9302 82.3844 44.8821 82.2119 44.8821H81.3533V45.9112H82.2177C82.3981 45.9112 82.5343 45.8651 82.6264 45.774C82.7184 45.6819 82.7646 45.5584 82.7646 45.4026V45.4025ZM86.5986 43.5649C86.4731 43.459 86.3379 43.3855 86.1928 43.3444C86.0478 43.3032 85.9066 43.2826 85.7694 43.2826C85.6794 43.2826 85.5891 43.2954 85.4989 43.3209C85.4089 43.3464 85.3284 43.3886 85.258 43.4473C85.1874 43.5062 85.1296 43.5825 85.0844 43.6766C85.0393 43.7707 85.0168 43.8844 85.0168 44.0177V45.1997C85.0168 45.333 85.0393 45.4456 85.0844 45.5378C85.1296 45.6299 85.1883 45.7054 85.2609 45.7642C85.3333 45.823 85.4138 45.866 85.5019 45.8936C85.5901 45.921 85.6794 45.9347 85.7694 45.9347C85.9066 45.9347 86.0448 45.9151 86.184 45.8758C86.3232 45.8366 86.4633 45.7623 86.6044 45.6525L86.9867 46.2758C86.8377 46.4012 86.6553 46.4993 86.4398 46.5698C86.2242 46.6404 85.9968 46.6757 85.7577 46.6757C85.5656 46.6757 85.3774 46.6482 85.1932 46.5934C85.0089 46.5385 84.8443 46.4572 84.6993 46.3494C84.5543 46.2416 84.4367 46.1064 84.3465 45.9437C84.2563 45.781 84.2113 45.5899 84.2113 45.3703V43.8532C84.2113 43.6377 84.2554 43.4485 84.3436 43.2858C84.4318 43.1231 84.5475 42.9869 84.6906 42.8771C84.8337 42.7673 84.9974 42.685 85.1816 42.6301C85.3659 42.5752 85.554 42.5479 85.7461 42.5479C85.9813 42.5479 86.2077 42.5793 86.4253 42.642C86.6428 42.7047 86.8301 42.8047 86.9869 42.9419L86.5988 43.5652L86.5986 43.5649ZM87.5158 46.6344V42.5829H88.3213V44.2117H88.733C88.8114 44.2117 88.8849 44.2049 88.9535 44.1911C89.0221 44.1773 89.0848 44.1518 89.1416 44.1147C89.1986 44.0774 89.2494 44.0245 89.2945 43.9559C89.3397 43.8872 89.3798 43.8001 89.4151 43.6943L89.7679 42.5829H90.591L90.2266 43.7649C90.1637 43.9648 90.0835 44.1314 89.9855 44.2646C89.8875 44.3979 89.7757 44.4861 89.6503 44.5293C89.8189 44.5841 89.9502 44.6812 90.0443 44.8203C90.1383 44.9595 90.2148 45.129 90.2735 45.329L90.6616 46.6344H89.7854L89.4502 45.4583C89.4188 45.3486 89.3806 45.2583 89.3356 45.1878C89.2904 45.1173 89.2395 45.0624 89.1826 45.0231C89.1258 44.9839 89.0622 44.9574 88.9915 44.9438C88.921 44.9301 88.8445 44.9232 88.7622 44.9232H88.3211V46.6344H87.5156H87.5158ZM94.2369 45.3407C94.2369 45.5602 94.1958 45.7524 94.1135 45.917C94.0312 46.0817 93.9204 46.2208 93.7792 46.3345C93.6381 46.4482 93.4725 46.5335 93.2834 46.5903C93.0932 46.6471 92.8934 46.6755 92.6816 46.6755C92.47 46.6755 92.27 46.647 92.0798 46.5903C91.8907 46.5334 91.725 46.4482 91.5839 46.3345C91.4428 46.2208 91.3321 46.0817 91.2497 45.917C91.1675 45.7524 91.1262 45.5603 91.1262 45.3407V43.853C91.1262 43.6375 91.1695 43.4473 91.2556 43.2826C91.3418 43.118 91.4566 42.9808 91.6017 42.871C91.7467 42.7612 91.9133 42.6789 92.1004 42.624C92.2887 42.5692 92.4816 42.5418 92.6816 42.5418C92.8816 42.5418 93.0746 42.5712 93.2627 42.6299C93.451 42.6888 93.6165 42.774 93.7616 42.8857C93.9066 42.9974 94.0213 43.1366 94.1075 43.3032C94.1938 43.4698 94.2369 43.6609 94.2369 43.8765V45.3408V45.3407ZM93.4314 44.0176C93.4314 43.8843 93.4098 43.7717 93.3666 43.6794C93.3235 43.5873 93.2668 43.5119 93.1961 43.4531C93.1255 43.3943 93.0462 43.3512 92.9579 43.3237C92.8698 43.2962 92.7786 43.2825 92.6845 43.2825C92.5905 43.2825 92.4983 43.2962 92.4081 43.3237C92.3181 43.3512 92.2376 43.3943 92.1671 43.4531C92.0966 43.512 92.0397 43.5873 91.9965 43.6794C91.9534 43.7716 91.9318 43.8843 91.9318 44.0176V45.1996C91.9318 45.3329 91.9534 45.4465 91.9965 45.5407C92.0397 45.6347 92.0965 45.7112 92.1671 45.77C92.2376 45.8288 92.3181 45.8708 92.4081 45.8964C92.4983 45.9219 92.5905 45.9346 92.6845 45.9346C92.7786 45.9346 92.8698 45.9219 92.9579 45.8964C93.0462 45.8708 93.1255 45.8287 93.1961 45.77C93.2667 45.7111 93.3235 45.6347 93.3666 45.5407C93.4098 45.4466 93.4314 45.3329 93.4314 45.1996V44.0176Z" fill="#2B2A29"/>
<path d="M97.3417 43.994L96.9418 44.6115C96.8947 44.686 96.837 44.7771 96.7683 44.8849C96.6996 44.9927 96.6242 45.1093 96.542 45.2349C96.4596 45.3603 96.3754 45.4897 96.2891 45.6229C96.2029 45.7562 96.1196 45.8855 96.0392 46.011C95.9589 46.1364 95.8834 46.2531 95.8129 46.361C95.7423 46.4688 95.6835 46.5599 95.6364 46.6344H94.9072V42.5829H95.7128V45.2466H95.7364L96.5812 43.9235L97.4436 42.5829H98.1767V46.6344H97.3712V43.9941H97.3417L97.3417 43.994ZM96.6007 42.4358C96.436 42.4358 96.2978 42.4054 96.1861 42.3446C96.0745 42.2839 95.9842 42.2094 95.9156 42.1213C95.847 42.0331 95.7971 41.9369 95.7657 41.8331C95.7343 41.7292 95.7147 41.6341 95.7069 41.5479H96.2478C96.2478 41.5871 96.2557 41.6292 96.2714 41.6743C96.287 41.7194 96.3096 41.7615 96.339 41.8007C96.3685 41.84 96.4048 41.8722 96.4478 41.8977C96.491 41.9232 96.5419 41.9359 96.6007 41.9359C96.6635 41.9359 96.7173 41.9232 96.7624 41.8977C96.8076 41.8722 96.8447 41.8399 96.8741 41.8007C96.9035 41.7615 96.9261 41.7194 96.9418 41.6743C96.9575 41.6292 96.9653 41.5871 96.9653 41.5479H97.5004C97.4887 41.6341 97.467 41.7292 97.4357 41.8331C97.4043 41.9369 97.3544 42.0331 97.2857 42.1213C97.2171 42.2094 97.1279 42.284 97.0182 42.3446C96.9085 42.4055 96.7692 42.4358 96.6007 42.4358V42.4358ZM103.451 45.3405C103.451 45.5601 103.41 45.7522 103.328 45.9169C103.245 46.0816 103.135 46.2207 102.993 46.3344C102.852 46.448 102.687 46.5334 102.498 46.5901C102.307 46.647 102.108 46.6754 101.896 46.6754C101.684 46.6754 101.484 46.6469 101.294 46.5901C101.105 46.5333 100.939 46.448 100.798 46.3344C100.657 46.2207 100.546 46.0816 100.464 45.9169C100.382 45.7522 100.34 45.5602 100.34 45.3405V43.8529C100.34 43.6373 100.384 43.4472 100.47 43.2825C100.556 43.1179 100.671 42.9807 100.816 42.8709C100.961 42.7611 101.128 42.6788 101.315 42.6239C101.503 42.5691 101.696 42.5417 101.896 42.5417C102.096 42.5417 102.289 42.5711 102.477 42.6298C102.665 42.6887 102.831 42.7739 102.976 42.8856C103.121 42.9973 103.236 43.1365 103.322 43.3031C103.408 43.4697 103.451 43.6608 103.451 43.8764V45.3406V45.3405ZM102.646 44.0175C102.646 43.8842 102.624 43.7715 102.581 43.6793C102.538 43.5872 102.481 43.5118 102.41 43.453C102.34 43.3942 102.26 43.351 102.172 43.3236C102.084 43.2961 101.993 43.2824 101.899 43.2824C101.805 43.2824 101.713 43.2961 101.622 43.3236C101.532 43.351 101.452 43.3942 101.381 43.453C101.311 43.5119 101.254 43.5872 101.211 43.6793C101.168 43.7714 101.146 43.8842 101.146 44.0175V45.1995C101.146 45.3327 101.168 45.4464 101.211 45.5406C101.254 45.6346 101.311 45.7111 101.381 45.7699C101.452 45.8287 101.532 45.8707 101.622 45.8962C101.713 45.9218 101.805 45.9345 101.899 45.9345C101.993 45.9345 102.084 45.9218 102.172 45.8962C102.26 45.8707 102.34 45.8286 102.41 45.7699C102.481 45.711 102.538 45.6346 102.581 45.5406C102.624 45.4465 102.646 45.3327 102.646 45.1995V44.0175ZM104.116 42.5827H106.762V43.306H104.921V44.1233H105.845C106.048 44.1233 106.23 44.1547 106.388 44.2174C106.547 44.2801 106.681 44.3673 106.791 44.477C106.901 44.5868 106.985 44.7181 107.044 44.872C107.103 45.0249 107.132 45.1924 107.132 45.3728C107.132 45.5217 107.109 45.6717 107.062 45.8207C107.015 45.9696 106.94 46.1049 106.838 46.2244C106.736 46.344 106.606 46.4429 106.447 46.5194C106.288 46.5958 106.097 46.6341 105.874 46.6341H104.116V42.5826L104.116 42.5827ZM104.921 45.9109H105.745C105.925 45.9109 106.071 45.8599 106.183 45.7579C106.294 45.6561 106.35 45.5287 106.35 45.3758C106.35 45.219 106.294 45.0916 106.183 44.9936C106.071 44.8956 105.923 44.8466 105.739 44.8466H104.921V45.9109V45.9109ZM108.82 43.306V44.382C108.82 44.7192 108.8 45.0249 108.761 45.2993C108.722 45.5737 108.651 45.8109 108.549 46.0108C108.448 46.2108 108.305 46.3714 108.123 46.4931C107.941 46.6146 107.707 46.695 107.42 46.7341L107.244 46.0756C107.413 46.0206 107.548 45.9501 107.65 45.8639C107.752 45.7777 107.831 45.6679 107.888 45.5346C107.945 45.4013 107.982 45.2425 108 45.0582C108.017 44.8739 108.026 44.6565 108.026 44.4056V42.5827H110.696V46.6342H109.878V43.306H108.82V43.306ZM113.648 45.7992H112.236L111.972 46.6342H111.113L112.536 42.5827H113.36L114.771 46.6342H113.895L113.648 45.7992ZM112.454 45.123H113.43L113.271 44.6055L112.954 43.5354H112.93L112.619 44.588L112.454 45.1231L112.454 45.123ZM117.552 43.5647C117.427 43.4588 117.292 43.3853 117.146 43.3442C117.001 43.303 116.86 43.2824 116.723 43.2824C116.633 43.2824 116.543 43.2952 116.453 43.3207C116.362 43.3461 116.282 43.3884 116.212 43.4471C116.141 43.5059 116.083 43.5823 116.038 43.6764C115.993 43.7704 115.97 43.8842 115.97 44.0175V45.1995C115.97 45.3327 115.993 45.4454 116.038 45.5376C116.083 45.6297 116.142 45.7052 116.214 45.7639C116.287 45.8228 116.367 45.8658 116.456 45.8933C116.544 45.9208 116.633 45.9345 116.723 45.9345C116.86 45.9345 116.998 45.9149 117.138 45.8756C117.277 45.8364 117.417 45.7621 117.558 45.6523L117.94 46.2756C117.791 46.401 117.609 46.4991 117.393 46.5696C117.178 46.6402 116.95 46.6755 116.711 46.6755C116.519 46.6755 116.331 46.648 116.147 46.5931C115.962 46.5383 115.798 46.4569 115.653 46.3492C115.508 46.2414 115.39 46.1062 115.3 45.9435C115.21 45.7808 115.165 45.5897 115.165 45.3701V43.853C115.165 43.6374 115.209 43.4483 115.297 43.2856C115.385 43.1229 115.501 42.9867 115.644 42.8769C115.787 42.7671 115.951 42.6848 116.135 42.6299C116.32 42.575 116.508 42.5477 116.7 42.5477C116.935 42.5477 117.161 42.5791 117.379 42.6417C117.596 42.7045 117.784 42.8044 117.94 42.9416L117.552 43.565L117.552 43.5647ZM120.075 43.306V46.6342H119.269V43.306H118.193V42.5827H121.145V43.306H120.075H120.075ZM123.997 43.9939L123.597 44.6114C123.55 44.6859 123.492 44.777 123.424 44.8848C123.355 44.9926 123.279 45.1092 123.197 45.2348C123.115 45.3602 123.031 45.4896 122.944 45.6228C122.858 45.7561 122.775 45.8854 122.694 46.0109C122.614 46.1363 122.539 46.253 122.468 46.3609C122.398 46.4686 122.339 46.5598 122.292 46.6343H121.562V42.5828H122.368V45.2465H122.392L123.236 43.9234L124.099 42.5828H124.832V46.6343H124.026V43.994H123.997L123.997 43.9939Z" fill="#2B2A29"/>
<path fill-rule="evenodd" clip-rule="evenodd" d="M35.8143 7.69268C37.2814 8.02041 38.6962 8.48525 40.0458 9.07336L37.6319 13.5618C35.4807 12.684 33.1272 12.1989 30.6603 12.1989C20.464 12.1989 12.1982 20.4647 12.1982 30.661C12.1982 40.8577 20.464 49.1235 30.6603 49.1235C38.3127 49.1235 44.8771 44.4681 47.677 37.8349L52.1597 40.2458C51.6927 41.2915 51.1517 42.2965 50.5434 43.2549L55.2462 49.2948L49.294 55.247L43.2549 50.5447C41.0051 51.9733 38.4962 53.0305 35.8143 53.6297L34.8695 61.2216H26.452L25.5072 53.6299C22.8253 53.0308 20.3165 51.9733 18.0662 50.5447L12.0273 55.247L6.07504 49.2948L10.7776 43.2554C9.34947 41.0054 8.29232 38.4967 7.69309 35.8151L0.100098 34.87V26.4525L7.69309 25.5074C8.29232 22.8258 9.34947 20.3173 10.7776 18.0675L6.07484 12.0279L12.0271 6.07563L18.0664 10.7779C20.3165 9.34956 22.825 8.29201 25.5069 7.69288L26.452 0.100586H34.8695L35.8143 7.69288V7.69268Z" fill="#2B2A29" stroke="#2B2A29" stroke-width="0.200042" stroke-miterlimit="22.9256"/>
</g>
<defs>
<clipPath id="clip0">
<rect width="141.963" height="61.3212" fill="white"/>
</clipPath>
</defs>
</svg>
