<svg width="48" height="48" viewBox="0 0 48 48" fill="none" xmlns="http://www.w3.org/2000/svg">
<g clip-path="url(#clip0)">
<path d="M47.9898 28.7331C47.9898 22.362 45.3652 14.0309 38.0608 11.0406V7.84846L40.2328 6.1109C40.429 5.95379 40.5432 5.71601 40.5431 5.46469V0.831194C40.5431 0.374257 40.1726 0.00378418 39.7157 0.00378418H37.2334C37.014 0.00378418 36.8036 0.0910759 36.6485 0.246215L35.5786 1.31606L34.5088 0.246215C34.3536 0.0910759 34.1433 0.00378418 33.9238 0.00378418H30.6142C30.3947 0.00378418 30.1843 0.0910759 30.0292 0.246215L28.9593 1.31606L27.8895 0.246215C27.7344 0.0910759 27.524 0.00378418 27.3045 0.00378418H24.8223C24.3654 0.00378418 23.9949 0.374257 23.9949 0.831194V5.46469C23.9948 5.71601 24.109 5.95379 24.3052 6.1109L26.4771 7.84846V11.0406C19.1727 14.0309 16.5482 22.3654 16.5482 28.7331C16.5327 30.2271 16.7648 31.7134 17.2349 33.1316C16.8792 33.1118 16.5209 33.1002 16.1634 33.1002H14.066C14.066 32.6432 13.6955 32.2728 13.2386 32.2728H6.61928C6.16234 32.2728 5.79187 32.6432 5.79187 33.1002H0V34.755H5.79187V43.0291H0V44.6839H5.79187C5.79187 45.1408 6.16234 45.5113 6.61928 45.5113H13.2386C13.6955 45.5113 14.066 45.1408 14.066 44.6839V44.3687L20.2434 46.9336C23.611 48.309 27.3758 48.3508 30.773 47.0503L43.5548 42.176C44.312 41.8883 44.9214 41.3076 45.2452 40.5651C45.7423 39.456 45.5314 38.1576 44.7091 37.2629C46.9363 34.9964 48.1241 31.908 47.9898 28.7331ZM12.4111 43.8565H7.44669V33.9276H12.4111V43.8565ZM25.6497 5.06753V1.6586H26.962L28.3744 3.07099C28.6975 3.39399 29.2212 3.39399 29.5443 3.07099L30.9567 1.6586H33.5812L34.9936 3.07099C35.3167 3.39399 35.8405 3.39399 36.1636 3.07099L37.576 1.6586H38.8882V5.06753L36.943 6.62306H27.5933L25.6497 5.06753ZM36.406 8.27788V10.7601H28.1319V8.27788H36.406ZM43.7278 39.8982C43.5816 40.236 43.3054 40.5006 42.9616 40.6321L30.1798 45.5055C27.1764 46.656 23.8477 46.6203 20.8698 45.4054L14.066 42.5765V34.755H16.1634C18.9069 34.7582 21.6124 35.3969 24.0677 36.6208C24.8784 37.0255 25.772 37.2365 26.6782 37.2372H33.0964C33.7818 37.2417 34.3339 37.8009 34.3294 38.4863C34.3257 39.0604 33.9287 39.5572 33.3694 39.6872C33.261 39.6971 33.1551 39.7194 33.0451 39.7194H23.1675V41.3743H33.0451C33.0625 41.3743 33.079 41.3743 33.0964 41.3743C33.1129 41.3743 33.1287 41.3693 33.146 41.3693C33.8027 41.3588 34.4512 41.2213 35.0557 40.9647L41.9737 38.0282C42.3032 37.8876 42.6759 37.8876 43.0054 38.0282C43.3482 38.1729 43.6171 38.451 43.7501 38.7985C43.8907 39.1533 43.8826 39.5495 43.7278 39.8982ZM43.2346 36.3734C42.6017 36.2038 41.9303 36.25 41.3266 36.505L35.9617 38.7828C35.9773 38.682 35.9876 38.5803 35.9923 38.4783C35.9923 36.879 34.6958 35.5824 33.0964 35.5824H26.6782C26.0289 35.5815 25.3885 35.4302 24.8074 35.1406C23.0116 34.2477 21.0882 33.6386 19.1057 33.3352C18.4873 31.8809 18.1798 30.3132 18.203 28.7331C18.203 22.7758 20.6364 14.9559 27.47 12.4149H37.0679C43.9015 14.9559 46.3349 22.7758 46.3349 28.7331C46.4739 31.6117 45.3402 34.4057 43.2346 36.3734Z" fill="#E31625"/>
<path d="M34.0264 23.7151L31.0353 22.7181C30.7127 22.6123 30.5369 22.265 30.6427 21.9424C30.7258 21.6892 30.9624 21.5183 31.2289 21.5192H33.309C33.6487 21.5196 33.9238 21.7951 33.9238 22.1348V22.6775H35.5786V22.1348C35.5777 20.8816 34.5622 19.8657 33.309 19.8644H33.0964V18.2095H31.4416V19.8644H31.2289C29.9755 19.8635 28.9586 20.879 28.9578 22.1324C28.9572 23.1106 29.5833 23.9792 30.5116 24.2877L33.5026 25.2847C33.8252 25.3905 34.0011 25.7378 33.8953 26.0604C33.8122 26.3136 33.5756 26.4845 33.309 26.4836H31.2289C30.8893 26.4832 30.6142 26.2077 30.6142 25.868V25.3253H28.9593V25.868C28.9603 27.1213 29.9757 28.1371 31.2289 28.1385H31.4416V29.7933H33.0964V28.1385H33.309C34.5625 28.1393 35.5793 27.1238 35.5802 25.8704C35.5809 24.8922 34.9546 24.0236 34.0264 23.7151Z" fill="#E31625"/>
<path d="M32.269 14.8999C27.2424 14.8999 23.1675 18.9748 23.1675 24.0014C23.1734 29.0255 27.2449 33.097 32.269 33.1029C37.2956 33.1029 41.3705 29.028 41.3705 24.0014C41.3705 18.9748 37.2956 14.8999 32.269 14.8999ZM32.269 31.4481C28.1563 31.4481 24.8223 28.114 24.8223 24.0014C24.8268 19.8906 28.1582 16.5593 32.269 16.5547C36.3817 16.5547 39.7157 19.8887 39.7157 24.0014C39.7157 28.1141 36.3817 31.4481 32.269 31.4481Z" fill="#E31625"/>
</g>
<defs>
<clipPath id="clip0">
<rect width="48" height="48" fill="white" transform="matrix(1 0 0 -1 0 48)"/>
</clipPath>
</defs>
</svg>
