<svg width="52" height="52" viewBox="0 0 52 52" fill="none" xmlns="http://www.w3.org/2000/svg">
<path d="M48.75 7.3125V4.875C48.75 4.01305 48.4076 3.1864 47.7981 2.5769C47.1886 1.96741 46.362 1.625 45.5 1.625H10.5625C9.70055 1.625 8.8739 1.96741 8.2644 2.5769C7.65491 3.1864 7.3125 4.01305 7.3125 4.875V6.5H5.6875C5.04103 6.5 4.42105 6.75681 3.96393 7.21393C3.50681 7.67105 3.25 8.29103 3.25 8.9375C3.25 9.58397 3.50681 10.204 3.96393 10.6611C4.42105 11.1182 5.04103 11.375 5.6875 11.375H7.3125V43.875H4.0625C3.84701 43.875 3.64035 43.9606 3.48798 44.113C3.3356 44.2653 3.25 44.472 3.25 44.6875V47.125C3.25 47.987 3.59241 48.8136 4.2019 49.4231C4.8114 50.0326 5.63805 50.375 6.5 50.375H35.75C38.4426 50.3775 41.0694 49.5432 43.267 47.9874C45.4647 46.4316 47.1245 44.2312 48.0168 41.6908C48.9091 39.1504 48.9898 36.3954 48.2478 33.807C47.5058 31.2187 45.9777 28.925 43.875 27.2431V8.125H47.9375C48.153 8.125 48.3597 8.0394 48.512 7.88702C48.6644 7.73465 48.75 7.52799 48.75 7.3125ZM4.875 8.9375C4.875 8.72201 4.9606 8.51535 5.11298 8.36298C5.26535 8.2106 5.47201 8.125 5.6875 8.125H27.625V9.75H5.6875C5.47201 9.75 5.26535 9.6644 5.11298 9.51202C4.9606 9.35965 4.875 9.15299 4.875 8.9375ZM33.1208 8.125L34.7458 8.9375L33.1208 9.75H29.25V8.125H33.1208ZM6.5 48.75C6.06902 48.75 5.6557 48.5788 5.35095 48.274C5.0462 47.9693 4.875 47.556 4.875 47.125V45.5H25.6181C26.6797 46.8224 27.9879 47.9262 29.4702 48.75H6.5ZM47.125 37.375C47.125 39.6248 46.4579 41.824 45.208 43.6946C43.9581 45.5652 42.1815 47.0232 40.103 47.8841C38.0245 48.7451 35.7374 48.9703 33.5308 48.5314C31.3243 48.0925 29.2975 47.0092 27.7067 45.4183C26.1158 43.8275 25.0325 41.8007 24.5936 39.5942C24.1547 37.3876 24.3799 35.1005 25.2409 33.022C26.1018 30.9435 27.5598 29.1669 29.4304 27.917C31.301 26.6671 33.5002 26 35.75 26C38.7658 26.0032 41.6572 27.2027 43.7898 29.3352C45.9223 31.4678 47.1218 34.3592 47.125 37.375ZM35.75 24.375C33.4667 24.3709 31.2227 24.9693 29.2447 26.1098C27.2666 27.2503 25.6246 28.8926 24.4842 30.8707C23.3439 32.8489 22.7457 35.0929 22.7501 37.3762C22.7544 39.6595 23.3612 41.9012 24.5091 43.875H8.9375V11.375H33.3125C33.4385 11.3751 33.5629 11.3459 33.6757 11.2897L36.9257 9.66469C37.0609 9.5973 37.1746 9.49356 37.2541 9.3651C37.3336 9.23664 37.3758 9.08857 37.3758 8.9375C37.3758 8.78643 37.3336 8.63836 37.2541 8.5099C37.1746 8.38144 37.0609 8.2777 36.9257 8.21031L33.6757 6.58531C33.5629 6.52909 33.4385 6.49988 33.3125 6.5H8.9375V4.875C8.9375 4.44402 9.10871 4.0307 9.41345 3.72595C9.7182 3.4212 10.1315 3.25 10.5625 3.25H42.7018C42.4093 3.74184 42.2534 4.30279 42.25 4.875V26.1341C40.2772 24.9828 38.0342 24.3758 35.75 24.375ZM47.125 6.5H43.875V4.875C43.875 4.44402 44.0462 4.0307 44.351 3.72595C44.6557 3.4212 45.069 3.25 45.5 3.25C45.931 3.25 46.3443 3.4212 46.649 3.72595C46.9538 4.0307 47.125 4.44402 47.125 4.875V6.5Z" fill="#E31625"/>
<path d="M33.4525 33.9284L32.3034 35.0775L33.4525 36.2265L34.6015 35.0775L33.4525 33.9284Z" fill="#E31625"/>
<path d="M38.0478 38.5239L36.8987 39.6729L38.0478 40.822L39.1968 39.6729L38.0478 38.5239Z" fill="#E31625"/>
<path d="M38.6224 33.3535L31.7286 40.2473L32.8777 41.3963L39.7714 34.5026L38.6224 33.3535Z" fill="#E31625"/>
<path d="M35.75 27.625C33.8216 27.625 31.9366 28.1968 30.3332 29.2682C28.7298 30.3395 27.4801 31.8623 26.7422 33.6438C26.0042 35.4254 25.8111 37.3858 26.1873 39.2771C26.5636 41.1684 27.4921 42.9057 28.8557 44.2693C30.2193 45.6328 31.9566 46.5614 33.8479 46.9376C35.7392 47.3139 37.6996 47.1208 39.4812 46.3828C41.2627 45.6449 42.7855 44.3952 43.8568 42.7918C44.9282 41.1884 45.5 39.3034 45.5 37.375C45.4972 34.79 44.4691 32.3117 42.6412 30.4838C40.8133 28.6559 38.335 27.6278 35.75 27.625ZM35.75 45.5C34.143 45.5 32.5721 45.0235 31.236 44.1307C29.8998 43.2379 28.8584 41.9689 28.2435 40.4843C27.6285 38.9996 27.4676 37.366 27.7811 35.7899C28.0946 34.2138 28.8685 32.7661 30.0048 31.6298C31.1411 30.4935 32.5888 29.7196 34.1649 29.4061C35.741 29.0926 37.3747 29.2535 38.8593 29.8685C40.3439 30.4834 41.6129 31.5248 42.5057 32.861C43.3985 34.1971 43.875 35.768 43.875 37.375C43.8726 39.5292 43.0158 41.5944 41.4926 43.1176C39.9694 44.6408 37.9042 45.4976 35.75 45.5Z" fill="#E31625"/>
<path d="M14.625 13.8125H13V15.4375H14.625V13.8125Z" fill="#E31625"/>
<path d="M39.8125 13.8125H16.25V15.4375H39.8125V13.8125Z" fill="#E31625"/>
<path d="M39.8125 17.0625H11.375V18.6875H39.8125V17.0625Z" fill="#E31625"/>
<path d="M39.8125 20.3125H11.375V21.9375H39.8125V20.3125Z" fill="#E31625"/>
<path d="M27.625 23.5625H11.375V25.1875H27.625V23.5625Z" fill="#E31625"/>
<path d="M19.5 39.8125H11.375V41.4375H19.5V39.8125Z" fill="#E31625"/>
<path d="M11.375 29.25V35.75C11.375 35.9655 11.4606 36.1722 11.613 36.3245C11.7653 36.4769 11.972 36.5625 12.1875 36.5625H21.125V34.9375H13V30.0625H23.5625V28.4375H12.1875C11.972 28.4375 11.7653 28.5231 11.613 28.6755C11.4606 28.8278 11.375 29.0345 11.375 29.25Z" fill="#E31625"/>
<path d="M47.125 11.375H45.5V25.1875H47.125V11.375Z" fill="#E31625"/>
<path d="M5.6875 14.625H4.0625V34.125H5.6875V14.625Z" fill="#E31625"/>
<path d="M5.6875 35.75H4.0625V37.375H5.6875V35.75Z" fill="#E31625"/>
</svg>
