<svg width="43" height="43" viewBox="0 0 43 43" fill="none" xmlns="http://www.w3.org/2000/svg">
<path d="M5.00439 5.01406V42.262C5.00439 42.6576 5.32512 42.9784 5.72078 42.9784H32.9405C33.3358 42.9784 33.6566 42.6576 33.6566 42.262V12.1773C33.6566 12.1614 33.6489 12.1478 33.6474 12.1322C33.6439 12.0693 33.6315 12.0074 33.6108 11.9481C33.6029 11.9251 33.5973 11.9029 33.5872 11.8805C33.5524 11.8026 33.504 11.7315 33.4438 11.6707L26.2809 4.50776C26.2201 4.44727 26.1487 4.39888 26.0702 4.36436C26.0487 4.35521 26.0268 4.34754 26.0044 4.34076C25.9445 4.3201 25.8822 4.30771 25.8188 4.30358C25.8067 4.30564 25.7925 4.29797 25.7775 4.29797H5.72078C5.32512 4.29797 5.00439 4.6184 5.00439 5.01406ZM31.2112 11.4609H26.4936V6.74336L31.2112 11.4609ZM6.43687 5.73045H25.0611V12.1773C25.0611 12.5727 25.3818 12.8934 25.7772 12.8934H32.2241V41.5459H6.43687V5.73045Z" fill="#E31625"/>
<path d="M35.0895 37.2479V38.6804H37.2383C37.634 38.6804 37.9547 38.36 37.9547 37.9643V0.716385C37.9547 0.320721 37.634 0 37.2383 0H10.0186C9.62297 0 9.30225 0.320721 9.30225 0.716385V2.86525H10.735V1.43248H36.5219V37.2479H35.0895Z" fill="#E31625"/>
<path d="M10.7349 14.3263H27.926V15.7588H10.7349V14.3263Z" fill="#E31625"/>
<path d="M10.7349 10.0282H16.4654V11.461H10.7349V10.0282Z" fill="#E31625"/>
<path d="M10.7349 18.624H22.1958V20.0568H10.7349V18.624Z" fill="#E31625"/>
<path d="M23.6279 18.624H27.9257V20.0568H23.6279V18.624Z" fill="#E31625"/>
<path d="M10.7349 22.9216H27.926V24.3544H10.7349V22.9216Z" fill="#E31625"/>
<path d="M10.7349 31.5175H27.926V32.9502H10.7349V31.5175Z" fill="#E31625"/>
<path d="M17.1812 27.2197H27.9258V28.6522H17.1812V27.2197Z" fill="#E31625"/>
<path d="M10.7349 27.2197H15.749V28.6522H10.7349V27.2197Z" fill="#E31625"/>
<path d="M10.7349 35.8154H13.6001V37.2479H10.7349V35.8154Z" fill="#E31625"/>
<path d="M15.0327 35.8154H27.9262V37.2479H15.0327V35.8154Z" fill="#E31625"/>
</svg>
