<svg width="101" height="35" viewBox="0 0 101 35" fill="none" xmlns="http://www.w3.org/2000/svg">
<path d="M41.7371 15.5845V7.88037H44.9425C47.3154 7.88037 49.0639 9.31167 49.0639 11.7114C49.0639 14.111 47.3571 15.5424 44.9842 15.5424H41.7371V15.5845ZM47.0657 11.7535C47.0657 10.5747 46.358 9.64847 44.9842 9.64847H43.7353V13.8584H44.9842C46.2747 13.8584 47.0657 12.8901 47.0657 11.7535Z" fill="white"/>
<path d="M49.8132 11.7537C49.8132 9.39609 51.5617 7.79639 53.893 7.79639C56.2242 7.79639 57.931 9.43819 57.931 11.7537C57.931 14.0691 56.1826 15.711 53.893 15.711C51.5201 15.711 49.8132 14.0691 49.8132 11.7537ZM55.9328 11.7537C55.9328 10.4907 55.1418 9.52239 53.893 9.52239C52.6441 9.52239 51.8115 10.4907 51.8115 11.7537C51.8115 13.0166 52.6024 13.9849 53.893 13.9849C55.1002 13.9849 55.9328 12.9745 55.9328 11.7537Z" fill="white"/>
<path d="M63.3429 15.5845L62.0524 13.0164H61.0533V15.5845H59.0967V7.88037H62.885C64.5502 7.88037 65.5077 9.01697 65.5077 10.4484C65.5077 11.7956 64.7167 12.5112 64.009 12.7638L65.5493 15.5845H63.3429ZM63.5511 10.4484C63.5511 9.94317 63.1348 9.64847 62.5936 9.64847H61.0533V11.2904H62.5936C63.0931 11.2904 63.5511 10.9957 63.5511 10.4484Z" fill="white"/>
<path d="M66.2986 11.7537C66.2986 9.39609 68.047 7.79639 70.3783 7.79639C72.7096 7.79639 74.4164 9.43819 74.4164 11.7537C74.4164 14.0691 72.6679 15.711 70.3783 15.711C68.047 15.711 66.2986 14.0691 66.2986 11.7537ZM72.4598 11.7537C72.4598 10.4907 71.6688 9.52239 70.4199 9.52239C69.171 9.52239 68.3384 10.4907 68.3384 11.7537C68.3384 13.0166 69.1294 13.9849 70.4199 13.9849C71.6272 13.9849 72.4598 12.9745 72.4598 11.7537Z" fill="white"/>
<path d="M80.702 15.5845V12.5112H77.5386V15.5845H75.582V7.88037H77.5386V10.7852H80.702V7.92247H82.659V15.5845H80.702Z" fill="white"/>
<path d="M83.825 11.7537C83.825 9.39609 85.573 7.79639 87.904 7.79639C90.236 7.79639 91.943 9.43819 91.943 11.7537C91.943 14.0691 90.194 15.711 87.904 15.711C85.573 15.711 83.825 14.0691 83.825 11.7537ZM89.944 11.7537C89.944 10.4907 89.153 9.52239 87.863 9.52239C86.614 9.52239 85.781 10.4907 85.781 11.7537C85.781 13.0166 86.572 13.9849 87.863 13.9849C89.153 13.9849 89.944 12.9745 89.944 11.7537Z" fill="white"/>
<path d="M94.857 15.5845L91.984 7.88037H94.191L96.064 13.4374L97.937 7.88037H100.144L97.271 15.5424H94.857V15.5845Z" fill="white"/>
<path d="M41.7371 27.078V19.416H44.9425C47.3154 19.416 49.0639 20.8474 49.0639 23.247C49.0639 25.6466 47.3571 27.078 44.9842 27.078H41.7371ZM47.0657 23.247C47.0657 22.0682 46.358 21.1421 44.9842 21.1421H43.7353V25.3519H44.9842C46.2747 25.3519 47.0657 24.3837 47.0657 23.247Z" fill="white"/>
<path d="M50.2295 27.078V19.416H55.7663V21.1421H52.1445V22.3208H55.683V24.0469H52.1445V25.3519H55.7663V27.078H50.2295Z" fill="white"/>
<path d="M56.6404 26.0253L57.6811 24.5518C58.2223 25.0991 59.0549 25.5622 60.0957 25.5622C60.7617 25.5622 61.178 25.3096 61.178 24.9307C61.178 23.8782 56.8902 24.7202 56.8902 21.7733C56.8902 20.4682 57.9725 19.3315 59.9291 19.3315C61.1364 19.3315 62.2188 19.7104 63.0097 20.384L61.9274 21.8154C61.3029 21.2681 60.4703 21.0155 59.721 21.0155C59.1382 21.0155 58.8884 21.226 58.8884 21.5628C58.8884 22.5311 63.1763 21.8154 63.1763 24.6781C63.1763 26.2357 62.0523 27.2461 60.0124 27.2461C58.4721 27.2461 57.3897 26.7409 56.6404 26.0253Z" fill="white"/>
<path d="M64.3003 27.078V19.416H66.2569V27.078H64.3003Z" fill="white"/>
<path d="M67.4226 23.2467C67.4226 20.805 69.2543 19.2896 71.544 19.2896C73.2508 19.2896 74.2499 20.2156 74.7911 21.1418L73.1675 21.9838C72.8761 21.4786 72.2933 21.0155 71.544 21.0155C70.2951 21.0155 69.4208 21.9839 69.4208 23.2467C69.4208 24.5097 70.2951 25.4781 71.544 25.4781C72.0851 25.4781 72.668 25.2675 72.9594 25.0149V24.4255H71.2525V22.6996H74.916V25.7728C74.0834 26.699 73.001 27.2882 71.544 27.2882C69.2959 27.2462 67.4226 25.6885 67.4226 23.2467Z" fill="white"/>
<path d="M81.452 27.078L78.2464 22.6576V27.1201H76.2898V19.416H78.288L81.369 23.6259V19.416H83.325V27.078H81.452Z" fill="white"/>
<path d="M13.8867 0.89209H0.898193V34.0239H13.9699C24.9602 34.0239 32.0373 27.4986 32.0373 17.4369C31.9956 7.37529 24.9186 0.89209 13.8867 0.89209ZM13.5536 27.3723H7.76709V8.00679H13.6369C20.4226 8.00679 25.1683 10.7011 25.1683 17.479C25.1683 22.9098 20.8388 27.3723 13.5536 27.3723Z" fill="white"/>
<path d="M14.8859 13.522H13.3872V21.3945H14.8859C17.8416 21.3945 19.59 19.5842 19.59 17.353C19.5484 14.6165 17.6334 13.522 14.8859 13.522Z" fill="white"/>
</svg>
