<svg width="24" height="24" viewBox="0 0 24 24" fill="none" xmlns="http://www.w3.org/2000/svg">
<path d="M11.8404 0.000846428C5.21358 0.0895421 -0.0862502 5.53415 0.00192368 12.1613C0.0906193 18.7855 5.53471 24.0869 12.1613 23.9988C18.7869 23.9095 24.0878 18.4649 23.9996 11.8383C23.9109 5.21354 18.4665 -0.0875884 11.8404 0.000846428ZM11.805 19.3042L11.7387 19.3031C10.7182 19.2728 9.99871 18.521 10.0277 17.5156C10.0561 16.5275 10.7931 15.8101 11.7799 15.8101L11.8391 15.8111C12.8881 15.8422 13.5995 16.5864 13.57 17.6208C13.5408 18.6118 12.8153 19.3042 11.805 19.3042ZM16.0976 10.7844C15.8576 11.1254 15.3298 11.5488 14.6649 12.0668L13.9326 12.5724C13.5306 12.8849 13.288 13.1789 13.197 13.4682C13.1252 13.696 13.09 13.7562 13.0838 14.2195L13.0827 14.3372H10.2867L10.2948 14.1006C10.329 13.1281 10.353 12.556 10.756 12.0833C11.3884 11.3408 12.7832 10.4427 12.8424 10.4046C13.0423 10.2541 13.2108 10.0827 13.3363 9.89954C13.6298 9.49493 13.7597 9.17641 13.7597 8.86337C13.7597 8.42902 13.6308 8.02728 13.3759 7.66963C13.131 7.3245 12.6656 7.14972 11.9925 7.14972C11.325 7.14972 10.8679 7.36154 10.5945 7.79615C10.3133 8.24302 10.1711 8.71232 10.1711 9.1918V9.31102H7.28827L7.29349 9.18659C7.36784 7.42076 7.9981 6.14928 9.16601 5.40737C9.89984 4.93493 10.8129 4.69546 11.8783 4.69546C13.2729 4.69546 14.4502 5.03432 15.3771 5.70267C16.3162 6.37989 16.7925 7.39415 16.7925 8.71728C16.7925 9.45737 16.5588 10.1526 16.0976 10.7844Z" fill="white"/>
</svg>
