<svg width="23" height="23" viewBox="0 0 23 23" fill="none" xmlns="http://www.w3.org/2000/svg">
<g clip-path="url(#clip0)">
<path d="M11.501 0C5.15017 0 0.00100708 5.14918 0.00100708 11.5C0.00100708 17.8507 5.15017 23 11.501 23C17.8518 23 23.0009 17.8507 23.0009 11.5C23.0009 5.14918 17.8518 0 11.501 0ZM17.5737 16.7798L16.6529 17.7007C16.4886 17.8649 16.0072 17.9673 15.9917 17.9673C13.0788 17.9927 10.2741 16.8486 8.21333 14.7876C6.14694 12.72 5.00143 9.9053 5.03219 6.98255C5.03219 6.98122 5.13761 6.51365 5.30186 6.35096L6.22259 5.43008C6.55953 5.09159 7.20675 4.93862 7.66015 5.09031L7.85383 5.15492C8.30591 5.30646 8.78054 5.80631 8.90544 6.26682L9.36861 7.96675C9.49351 8.42859 9.32504 9.08563 8.98821 9.42256L8.37341 10.0375C8.97702 12.2721 10.7304 14.0258 12.9654 14.6309L13.5799 14.0158C13.9184 13.6773 14.5752 13.509 15.0361 13.6337L16.7358 14.0985C17.1964 14.2251 17.6961 14.6967 17.8476 15.1487L17.9122 15.3452C18.0624 15.7973 17.9106 16.4444 17.5737 16.7798Z" fill="white"/>
</g>
<defs>
<clipPath id="clip0">
<rect width="23" height="23" fill="white"/>
</clipPath>
</defs>
</svg>
