<svg width="23" height="23" viewBox="0 0 23 23" fill="none" xmlns="http://www.w3.org/2000/svg">
<g clip-path="url(#clip0)">
<path d="M11.5007 0C5.14965 0 0.000976562 5.14883 0.000976562 11.4999C0.000976562 17.8508 5.14965 23 11.5007 23C17.8518 23 23.0008 17.8508 23.0008 11.4999C23.0008 5.14883 17.8518 0 11.5007 0ZM11.5009 4.0393L18.3062 8.28284H4.69571L11.5009 4.0393ZM18.391 15.0592H18.3903C18.3903 15.7399 17.8386 16.2914 17.1581 16.2914H5.8438C5.16315 16.2914 4.6116 15.7398 4.6116 15.0592V8.55287C4.6116 8.48087 4.61896 8.41088 4.63092 8.34211L11.1329 12.3965C11.1409 12.4015 11.1494 12.4049 11.1576 12.4095C11.1662 12.4142 11.1749 12.4188 11.1837 12.4232C11.2296 12.4469 11.2769 12.466 11.3253 12.4785C11.3303 12.4798 11.3353 12.4805 11.3402 12.4816C11.3933 12.4941 11.447 12.5019 11.5007 12.5019H11.5011C11.5015 12.5019 11.5019 12.5019 11.5019 12.5019C11.5555 12.5019 11.6093 12.4943 11.6623 12.4816C11.6673 12.4804 11.6723 12.4798 11.6773 12.4785C11.7256 12.466 11.7727 12.4469 11.8189 12.4232C11.8276 12.4188 11.8364 12.4142 11.8449 12.4095C11.8531 12.4049 11.8617 12.4015 11.8696 12.3965L18.3716 8.34211C18.3836 8.41088 18.391 8.48072 18.391 8.55287V15.0592Z" fill="white"/>
</g>
<defs>
<clipPath id="clip0">
<rect width="23" height="23" fill="white"/>
</clipPath>
</defs>
</svg>
