<svg width="24" height="24" viewBox="0 0 24 24" fill="none" xmlns="http://www.w3.org/2000/svg">
<g clip-path="url(#clip0)">
<path d="M12.0007 0C5.37354 0 0.00100708 5.37269 0.00100708 11.9999C0.00100708 18.6269 5.37354 24 12.0007 24C18.6279 24 24.0008 18.6269 24.0008 11.9999C24.0008 5.37253 18.6279 0 12.0007 0ZM12.0373 17.6612V17.6611H11.964H6.83819C6.83819 13.9125 10.1304 13.9134 10.861 12.9332L10.9446 12.4863C9.91815 11.9661 9.19358 10.712 9.19358 9.24529C9.19358 7.31295 10.4506 5.74622 12.0007 5.74622C13.5509 5.74622 14.8079 7.31295 14.8079 9.24529C14.8079 10.6995 14.0962 11.9458 13.0835 12.4742L13.1787 12.9821C13.9802 13.9148 17.1629 13.9756 17.1629 17.6612H12.0373Z" fill="white"/>
</g>
<defs>
<clipPath id="clip0">
<rect width="24" height="24" fill="white"/>
</clipPath>
</defs>
</svg>
