<svg width="48" height="48" viewBox="0 0 48 48" fill="none" xmlns="http://www.w3.org/2000/svg">
<g clip-path="url(#clip0)">
<path d="M47.2 26.4H39.2C38.7584 26.4 38.4 26.7576 38.4 27.2V28H32.1688C31.376 28 30.6088 28.232 29.9504 28.672L23.7576 32.8H17.3824C16.2488 32.8 15.196 33.3632 14.5656 34.3088C14.0296 35.1144 13.8768 36.1032 14.1104 37.0216L4.2472 33.9384C3.5824 33.6888 2.8448 33.6744 2.128 33.9144C0.8552 34.3384 0 35.5248 0 36.868C0 38.1208 0.7456 39.2464 1.9 39.7336L19.3464 47.1152C20.7344 47.7024 22.2024 48 23.7096 48H23.9128C25.1176 48 26.3096 47.8072 27.4696 47.42L38.4 43.5336V44.8C38.4 45.2424 38.7584 45.6 39.2 45.6H47.2C47.6416 45.6 48 45.2424 48 44.8V27.2C48 26.7576 47.6416 26.4 47.2 26.4ZM38.4 41.8352L26.9488 45.9072C25.9664 46.2344 24.9456 46.4 23.9128 46.4H23.7096C22.4184 46.4 21.1592 46.1448 19.9696 45.6416L2.5232 38.26C1.9624 38.0224 1.6 37.476 1.6 36.8664C1.6 36.2144 2.016 35.6376 2.676 35.4176C3.0032 35.3088 3.3616 35.3144 3.7272 35.4504L15.2512 39.0536C15.2616 39.064 15.2752 39.0712 15.2864 39.0816C15.588 39.3648 15.9352 39.5912 16.3176 39.7464C16.3336 39.7528 16.3496 39.7576 16.3656 39.764C16.5312 39.8288 16.7024 39.8784 16.8784 39.9168C16.92 39.9256 16.9608 39.9352 17.0032 39.9432C17.1976 39.9768 17.3944 40 17.5968 40H29.6V38.4H17.5968C17.4464 38.4 17.3016 38.3744 17.1608 38.3392C17.1096 38.3264 17.06 38.308 17.0104 38.2904C16.9232 38.26 16.8384 38.2224 16.7576 38.1792C16.7064 38.1512 16.6544 38.1248 16.6056 38.092C16.5144 38.0304 16.4304 37.9592 16.3512 37.8816C16.3272 37.8576 16.2984 37.8392 16.2752 37.8136C16.1688 37.6952 16.0752 37.5624 16.0016 37.4144L15.7864 36.984C15.5008 36.4128 15.5432 35.728 15.8984 35.1952C16.2304 34.6968 16.7848 34.4 17.3832 34.4H24C24.1576 34.4 24.3128 34.3528 24.444 34.2656L30.8384 30.0032C31.2328 29.7392 31.6928 29.6 32.1688 29.6H38.4V41.8352ZM46.4 44H40V28H46.4V44Z" fill="#E31625"/>
<path d="M41.6 15.2C39.8352 15.2 38.4 16.6352 38.4 18.4C38.4 20.1648 39.8352 21.6 41.6 21.6C43.3648 21.6 44.8 20.1648 44.8 18.4C44.8 16.6352 43.3648 15.2 41.6 15.2ZM41.6 20C40.7176 20 40 19.2824 40 18.4C40 17.5176 40.7176 16.8 41.6 16.8C42.4824 16.8 43.2 17.5176 43.2 18.4C43.2 19.2824 42.4824 20 41.6 20Z" fill="#E31625"/>
<path d="M30.4 4C28.6352 4 27.2 5.4352 27.2 7.2C27.2 8.9648 28.6352 10.4 30.4 10.4C32.1648 10.4 33.6 8.9648 33.6 7.2C33.6 5.4352 32.1648 4 30.4 4ZM30.4 8.8C29.5176 8.8 28.8 8.0824 28.8 7.2C28.8 6.3176 29.5176 5.6 30.4 5.6C31.2824 5.6 32 6.3176 32 7.2C32 8.0824 31.2824 8.8 30.4 8.8Z" fill="#E31625"/>
<path d="M43.4311 4.23703L27.4338 20.2343L28.5652 21.3657L44.5625 5.36839L43.4311 4.23703Z" fill="#E31625"/>
<path d="M12.8 0C5.7424 0 0 5.7424 0 12.8C0 19.8576 5.7424 25.6 12.8 25.6C19.8576 25.6 25.6 19.8576 25.6 12.8C25.6 5.7424 19.8576 0 12.8 0ZM12.8 24C6.624 24 1.6 18.976 1.6 12.8C1.6 6.624 6.624 1.6 12.8 1.6C18.976 1.6 24 6.624 24 12.8C24 18.976 18.976 24 12.8 24Z" fill="#E31625"/>
<path d="M17.3 15.3752L13.6 12.4152V6.51361C14.976 6.87121 16 8.11281 16 9.60001H17.6C17.6 7.22641 15.8664 5.25521 13.6 4.87201V3.20001H12V4.87201C9.7336 5.25441 8 7.22561 8 9.60001C8 9.84321 8.1104 10.0728 8.3 10.2248L12 13.1848V19.0864C10.624 18.7288 9.6 17.4872 9.6 16H8C8 18.3736 9.7336 20.3448 12 20.728V22.4H13.6V20.728C15.8664 20.3456 17.6 18.3744 17.6 16C17.6 15.7568 17.4896 15.5272 17.3 15.3752ZM12 11.1352L9.6208 9.23201C9.7728 7.91041 10.7384 6.84161 12 6.51441V11.1352ZM13.6 19.0856V14.4648L15.9792 16.368C15.8272 17.6896 14.8616 18.7584 13.6 19.0856Z" fill="#E31625"/>
<path d="M4.80001 24.8H3.20001V26.4H4.80001V24.8Z" fill="#E31625"/>
<path d="M4.80001 28H3.20001V31.2H4.80001V28Z" fill="#E31625"/>
<path d="M22.4 24.8H20.8V26.4H22.4V24.8Z" fill="#E31625"/>
<path d="M22.4 28H20.8V31.2H22.4V28Z" fill="#E31625"/>
<path d="M13.6 27.2H12V28.8H13.6V27.2Z" fill="#E31625"/>
<path d="M13.6 30.4H12V32.8H13.6V30.4Z" fill="#E31625"/>
</g>
<defs>
<clipPath id="clip0">
<rect width="48" height="48" fill="white"/>
</clipPath>
</defs>
</svg>
