<svg width="47" height="47" viewBox="0 0 47 47" fill="none" xmlns="http://www.w3.org/2000/svg">
<path d="M19.8278 35.2651H5.14062V36.703H19.8278V35.2651Z" fill="white"/>
<path d="M24.2187 35.2498H22.7808V39.6561H24.2187V35.2498Z" fill="white"/>
<path d="M28.6254 35.2498H27.1875V39.6561H28.6254V35.2498Z" fill="white"/>
<path d="M33.0317 35.2498H31.5938V39.6561H33.0317V35.2498Z" fill="white"/>
<path d="M37.4374 35.2498H35.9995V39.6561H37.4374V35.2498Z" fill="white"/>
<path d="M41.8442 35.2498H40.4062V39.6561H41.8442V35.2498Z" fill="white"/>
<path d="M46.2502 44.0779V22.3367L35.9071 27.5082L34.4613 1.48419H27.2307L25.7457 25.2452L21.2003 27.5179L19.7614 8.09357H12.5595L11.0685 25.24L0.749705 30.3994V44.0779H0V45.5158H47V44.0779L46.2502 44.0779ZM28.5817 2.9221H33.1011L33.1844 4.42169H28.488L28.5817 2.9221ZM28.3981 5.85969H33.2643L33.3476 7.35928H28.3044L28.3981 5.85969ZM28.2145 8.7971H33.4276L34.506 28.2088L31.5628 29.6804V22.3367L27.233 24.5015L28.2145 8.7971ZM13.8779 9.53147H18.4261L18.5372 11.0311H13.7475L13.8779 9.53147ZM13.6224 12.469H18.6436L18.7547 13.9686H13.4919L13.6224 12.469ZM13.3669 15.4065H18.8612L19.8099 28.2131L16.8752 29.6804V22.3367L12.5775 24.4855L13.3669 15.4065ZM5.15595 44.0779H2.1877V42.5784H5.15605V44.0779H5.15595ZM18.3747 44.0779H6.59395V38.9065H18.3747V44.0779ZM44.8122 44.0779H19.8127V42.5784H44.8122V44.0779ZM44.8122 41.1404H19.8127V37.4685H5.15595V41.1404H2.1877V31.2882L15.4372 24.6634V32.0071L30.1247 24.6634V32.0071L44.8123 24.6634V41.1404H44.8122Z" fill="white"/>
</svg>
