<svg width="46" height="46" viewBox="0 0 46 46" fill="none" xmlns="http://www.w3.org/2000/svg">
<g clip-path="url(#clip0)">
<path d="M45.9999 40.1579L40.0869 37.2014H23.6519V34.2449H42.8691V14.9614C43.0434 15.0004 43.221 15.0278 43.4036 15.0278C44.7389 15.0278 45.8256 13.9415 45.8256 12.6058V12.2088C45.8256 11.4188 45.439 10.6768 44.7923 10.2242L30.304 0.0822296L23.736 4.68009H5.49469L0.172871 13.5495H1.47824V22.6687L0 24.3585V46.0709H23.6519V43.1144H40.0869L45.9999 40.1579ZM25.8693 38.6797H39.1735V41.6362H25.8693V38.6797ZM24.391 41.6362H21.4345C20.6193 41.6362 19.9563 40.9732 19.9563 40.1579C19.9563 39.3427 20.6193 38.6797 21.4345 38.6797H24.391V41.6362ZM40.6517 41.1796V39.1366L42.6948 40.1579L40.6517 41.1796ZM36.9561 32.7667H31.0431V24.6364C31.0431 24.2286 31.3744 23.8972 31.7822 23.8972H36.217C36.6248 23.8972 36.9561 24.2286 36.9561 24.6364V32.7667ZM38.4343 32.7667V24.6364C38.4343 23.414 37.4393 22.419 36.217 22.419H31.7822C30.5599 22.419 29.5649 23.414 29.5649 24.6364V32.7667H23.6519V17.9843H19.2172V14.1504L30.304 6.32398L41.3908 14.1504V32.7667H38.4343ZM43.9446 11.4358C44.1972 11.6115 44.3473 11.9013 44.3473 12.2088V12.6058C44.3473 13.1262 43.9236 13.5495 43.4036 13.5495C43.2076 13.5495 43.0192 13.4896 42.8593 13.3767L30.304 4.51479L17.7501 13.3767C17.5888 13.4896 17.4004 13.5495 17.2044 13.5495C16.6844 13.5495 16.2607 13.1262 16.2607 12.6058V12.2088C16.2607 11.9013 16.4108 11.6115 16.6634 11.4358L30.304 1.88709L43.9446 11.4358ZM6.33126 6.15833H21.6236L15.8157 10.2242C15.2076 10.6494 14.8416 11.3336 14.7987 12.0713H2.78434L6.33126 6.15833ZM2.95649 13.5495H14.9737C15.3426 14.4175 16.2029 15.0278 17.2044 15.0278C17.3863 15.0278 17.5646 15.0014 17.7389 14.9614V17.9843H5.57734L2.95649 20.9801V13.5495ZM5.17385 20.691V23.8972H2.36822L5.17385 20.691ZM22.1737 44.5927H1.47824V25.3755H6.6521V19.4625H22.1737V37.2014H21.4345C19.804 37.2014 18.4781 38.5274 18.4781 40.1579C18.4781 41.7885 19.804 43.1144 21.4345 43.1144H22.1737V44.5927Z" fill="white"/>
<path d="M16.2607 26.8538H14.636L16.0893 25.1102L14.9532 24.1636L12.7117 26.8538H2.95654V37.2015H16.2607V26.8538ZM14.7825 35.7232H4.43479V28.332H11.4792L8.08023 32.4112L6.43489 30.7659L5.38973 31.8111L8.17912 34.6005L13.4049 28.332H14.7825V35.7232Z" fill="white"/>
<path d="M2.95654 41.6362H16.9999V43.1144H2.95654V41.6362Z" fill="white"/>
<path d="M2.95654 38.6797H16.9999V40.1579H2.95654V38.6797Z" fill="white"/>
<path d="M8.13037 20.9408H20.6954V22.419H8.13037V20.9408Z" fill="white"/>
<path d="M32.5215 26.8537H33.9997V28.332H32.5215V26.8537Z" fill="white"/>
<path d="M24.3911 17.2452H36.217V12.8104H24.3911V17.2452ZM25.8694 14.2887H34.7388V15.7669H25.8694V14.2887Z" fill="white"/>
</g>
<defs>
<clipPath id="clip0">
<rect width="46" height="46" fill="white"/>
</clipPath>
</defs>
</svg>
