<svg width="45" height="45" viewBox="0 0 45 45" fill="none" xmlns="http://www.w3.org/2000/svg">
<g clip-path="url(#clip0)">
<path d="M40.6452 43.5484V31.9355H43.5484V22.1435C43.5484 21.1767 42.8988 20.3155 41.9692 20.0497L38.4677 19.0496V18.8565C39.3722 18.175 39.9194 17.1029 39.9194 15.9685V14.5169C39.9194 12.516 38.2913 10.8879 36.2903 10.8879C34.2894 10.8879 32.6613 12.516 32.6613 14.5169V15.9685C32.6613 17.1029 33.2085 18.1757 34.1129 18.8565V19.0496L31.9355 19.6716V17.7887C31.9355 16.8219 31.2859 15.9607 30.3563 15.6949L26.8548 14.6948V14.5017C27.7593 13.8201 28.3065 12.7481 28.3065 11.6137V10.1621C28.3065 8.16112 26.6784 6.53302 24.6774 6.53302C22.6765 6.53302 21.0484 8.16112 21.0484 10.1621V11.6137C21.0484 12.7481 21.5956 13.8209 22.5 14.5017V14.6948L18.9986 15.6949C18.069 15.9607 17.4194 16.8219 17.4194 17.7887V26.1291H11.469L11.1462 24.6775H14.5161C15.3167 24.6775 15.9677 24.0264 15.9677 23.2259V15.9678C15.9677 15.1672 15.3167 14.5162 14.5161 14.5162H2.90323C2.10264 14.5162 1.45161 15.1672 1.45161 15.9678V23.2259C1.45161 24.0264 2.10264 24.6775 2.90323 24.6775H6.27248L5.95034 26.1291H0V30.4839H2.17742V43.5484H0V45.0001H45V43.5484H40.6452ZM35.5645 20.144V18.0509L35.2037 17.8411C34.5208 17.4435 34.1129 16.7429 34.1129 15.9678V14.5162C34.1129 13.3158 35.09 12.3388 36.2903 12.3388C37.4907 12.3388 38.4677 13.3158 38.4677 14.5162V15.9678C38.4677 16.7429 38.0598 17.4435 37.3769 17.8411L37.0161 18.0509V20.144L41.5698 21.4447C41.8806 21.534 42.0968 21.8207 42.0968 22.1435V30.4839H40.6452V24.6775H39.1936V43.5484H37.0161V30.4839H35.5645V43.5484H33.3871V24.6775H31.9355V30.4839H30.4839V22.1435C30.4839 21.8214 30.7001 21.534 31.0109 21.4454L35.5645 20.144ZM18.871 17.7887C18.871 17.4665 19.0872 17.1791 19.398 17.0905L23.9516 15.7892V13.6961L23.5908 13.4863C22.9079 13.0887 22.5 12.388 22.5 11.613V10.1613C22.5 8.961 23.4771 7.98392 24.6774 7.98392C25.8778 7.98392 26.8548 8.961 26.8548 10.1613V11.613C26.8548 12.388 26.4469 13.0887 25.764 13.4863L25.4032 13.6961V15.7892L29.9569 17.0898C30.2677 17.1791 30.4839 17.4658 30.4839 17.7887V20.0983C29.6245 20.4045 29.0323 21.2235 29.0323 22.1435V26.1291H18.871V17.7887ZM2.90323 23.2259V15.9678H14.5161V23.2259H10.824L10.3013 20.8741C10.1344 20.1224 9.48049 19.5968 8.70968 19.5968C7.93886 19.5968 7.285 20.1224 7.11808 20.8734L6.59534 23.2259H2.90323ZM8.53461 21.1877C8.57182 21.0229 8.84754 21.0229 8.88404 21.1877L9.98267 26.1291H7.43739L8.53461 21.1877ZM1.45161 27.5807H29.0323V29.0323H1.45161V27.5807ZM29.0323 30.4839V31.9355H31.9355V37.742H3.62903V30.4839H29.0323ZM3.62903 42.0968H8.70968V40.6452H3.62903V39.1936H31.9355V40.6452H10.1613V42.0968H31.9355V43.5484H3.62903V42.0968Z" fill="white"/>
<path d="M11.6128 2.90329H13.0644V4.3549H11.6128V2.90329Z" fill="white"/>
<path d="M14.5161 2.90329H15.9677V4.3549H14.5161V2.90329Z" fill="white"/>
<path d="M8.70996 2.90329H10.1616V4.3549H8.70996V2.90329Z" fill="white"/>
<path d="M15.2421 9.99159V7.25813H18.8712V6.10352e-05H5.80664V7.25813H10.6863L15.2421 9.99159ZM7.25825 1.45167H17.4195V5.80651H13.7905V7.42788L11.0882 5.80651H7.25825V1.45167Z" fill="white"/>
<path d="M31.9357 9.99159L36.4915 7.25813H41.3712V6.10352e-05H28.3066V7.25813H31.9357V9.99159ZM29.7583 5.80651V1.45167H39.9195V5.80651H36.0896L33.3873 7.42788V5.80651H29.7583Z" fill="white"/>
<path d="M31.21 2.90329H38.468V4.3549H31.21V2.90329Z" fill="white"/>
</g>
<defs>
<clipPath id="clip0">
<rect width="45" height="45" fill="white"/>
</clipPath>
</defs>
</svg>
