<svg width="45" height="45" viewBox="0 0 45 45" fill="none" xmlns="http://www.w3.org/2000/svg">
<path d="M3.62886 4.35484H25.403V9.43548C25.403 9.83702 25.7273 10.1613 26.1289 10.1613H31.2095V15.9677H32.6611V9.43548C32.6611 9.23454 32.5792 9.05309 32.4478 8.92161L26.6434 3.11728C26.5113 2.98509 26.3298 2.90323 26.1289 2.90323H6.53208V1.45161H34.1127V17.4194H35.5643V0.725806C35.5643 0.324274 35.2401 0 34.8385 0H5.80628C5.40475 0 5.08047 0.324274 5.08047 0.725806V2.90323H2.90305C2.50152 2.90323 2.17725 3.2275 2.17725 3.62903V44.2742C2.17725 44.6757 2.50152 45 2.90305 45H27.5805V43.5484H3.62886V4.35484ZM26.8547 5.38117L30.1832 8.70968H26.8547V5.38117Z" fill="white"/>
<path d="M42.0967 21.7742H41.0038C37.7628 21.7742 34.7146 20.3467 32.6403 17.8577L32.4936 17.6813C32.2186 17.3495 31.653 17.3495 31.378 17.6813L31.2312 17.857C29.1563 20.3467 26.1081 21.7742 22.8671 21.7742H21.7741C21.3726 21.7742 21.0483 22.0985 21.0483 22.5V34.255C21.0483 37.1132 22.59 39.7698 25.0715 41.1874L31.5754 44.9043C31.6867 44.9681 31.8114 45 31.9354 45C32.0595 45 32.1842 44.9681 32.2955 44.9043L38.7994 41.1874C41.2809 39.7698 42.8225 37.1132 42.8225 34.255V22.5C42.8225 22.0985 42.4983 21.7742 42.0967 21.7742ZM41.3709 34.255C41.3709 36.5937 40.1103 38.7668 38.0793 39.9264L31.9354 43.4389L25.7916 39.9275C23.7605 38.7668 22.5 36.5937 22.5 34.255V23.2258H22.8671C26.3306 23.2258 29.6014 21.7866 31.9354 19.2548C34.2688 21.7866 37.5402 23.2258 41.0038 23.2258H41.3709V34.255Z" fill="white"/>
<path d="M31.9355 23.9516C27.5336 23.9516 23.9517 27.5335 23.9517 31.9355C23.9517 36.3374 27.5336 39.9193 31.9355 39.9193C36.3375 39.9193 39.9194 36.3374 39.9194 31.9355C39.9194 27.5335 36.3375 23.9516 31.9355 23.9516ZM31.9355 38.4677C28.3334 38.4677 25.4033 35.5376 25.4033 31.9355C25.4033 28.3334 28.3334 25.4032 31.9355 25.4032C35.5376 25.4032 38.4678 28.3334 38.4678 31.9355C38.4678 35.5376 35.5376 38.4677 31.9355 38.4677Z" fill="white"/>
<path d="M31.5895 34.192L30.2715 32.8739L29.2451 33.9003L31.4225 36.0777C31.5597 36.2156 31.7454 36.2903 31.9357 36.2903C31.9945 36.2903 32.0541 36.2833 32.1129 36.2687C32.361 36.206 32.557 36.0175 32.631 35.7729L34.8085 28.5149L33.4178 28.0981L31.5895 34.192Z" fill="white"/>
<path d="M5.08057 11.6129H23.9515V13.0645H5.08057V11.6129Z" fill="white"/>
<path d="M5.08057 14.5161H23.9515V15.9678H5.08057V14.5161Z" fill="white"/>
<path d="M5.08057 17.4194H23.9515V18.871H5.08057V17.4194Z" fill="white"/>
<path d="M5.08057 20.3226H19.5967V21.7742H5.08057V20.3226Z" fill="white"/>
<path d="M5.08057 23.2258H19.5967V24.6774H5.08057V23.2258Z" fill="white"/>
<path d="M5.08057 26.129H19.5967V27.5806H5.08057V26.129Z" fill="white"/>
<path d="M5.08057 34.8387H19.5967V36.2903H5.08057V34.8387Z" fill="white"/>
<path d="M5.08057 37.7419H19.5967V39.1936H5.08057V37.7419Z" fill="white"/>
<path d="M5.08057 40.6452H19.5967V42.0968H5.08057V40.6452Z" fill="white"/>
<path d="M5.80664 5.80646H7.25825V7.25807H5.80664V5.80646Z" fill="white"/>
<path d="M8.70996 5.80646H10.1616V7.25807H8.70996V5.80646Z" fill="white"/>
<path d="M11.6128 5.80646H13.0644V7.25807H11.6128V5.80646Z" fill="white"/>
<path d="M14.5161 5.80646H23.9516V7.25807H14.5161V5.80646Z" fill="white"/>
</svg>
