<svg width="45" height="45" viewBox="0 0 45 45" fill="none" xmlns="http://www.w3.org/2000/svg">
<g clip-path="url(#clip0)">
<path d="M28.9023 32.4082C28.4292 32.1238 27.9436 31.838 27.458 31.5578C27.5722 30.5849 27.5725 29.6007 27.4586 28.6297C27.946 28.3484 28.4313 28.0628 28.9022 27.7797C29.6949 27.3033 30.0254 26.2982 29.6707 25.4415C29.6707 25.4415 29.6707 25.4415 29.6706 25.4414L28.636 22.9437C28.2812 22.0873 27.3373 21.61 26.4394 21.8337C25.9058 21.9665 25.3606 22.1077 24.8174 22.2535C24.2108 21.486 23.5148 20.7902 22.7464 20.1833C22.8921 19.6399 23.0334 19.0945 23.1663 18.5607C23.39 17.6633 22.9128 16.719 22.0564 16.3642L19.5587 15.3296C18.7023 14.9747 17.6969 15.3049 17.2204 16.0979C16.9366 16.5702 16.6506 17.0558 16.3701 17.5422C15.3974 17.428 14.4134 17.4277 13.4419 17.5416C13.1605 17.0537 12.8748 16.5683 12.592 16.0979C12.1153 15.3051 11.1102 14.9748 10.2537 15.3296L7.75602 16.3642C6.89979 16.7189 6.42237 17.6633 6.64605 18.5607C6.77921 19.0955 6.92036 19.6408 7.06582 20.1828C6.29845 20.7891 5.60253 21.4853 4.99573 22.2537C4.45116 22.1076 3.90571 21.9664 3.37301 21.8337C2.47529 21.6098 1.53117 22.0875 1.17636 22.9438L0.141972 25.4414C-0.212667 26.2979 0.117714 27.3031 0.910312 27.7795C1.38272 28.0634 1.86832 28.3492 2.35462 28.6298C2.24054 29.6024 2.24027 30.5865 2.35409 31.558C1.86735 31.8388 1.38202 32.1245 0.910136 32.4081C0.117538 32.8845 -0.212843 33.8896 0.141884 34.7462L1.17653 37.2439C1.53126 38.1002 2.47512 38.5777 3.37318 38.354C3.90615 38.2212 4.45143 38.0801 4.99503 37.9342C5.60156 38.7016 6.29757 39.3973 7.06599 40.0043C6.9201 40.5482 6.77886 41.0937 6.64605 41.6268C6.42237 42.5243 6.89962 43.4687 7.75602 43.8234L10.2538 44.858C10.4858 44.9541 10.7287 45 10.969 45C11.616 45 12.2446 44.6678 12.5924 44.0899C12.8741 43.6212 13.1598 43.1357 13.4426 42.6457C14.4151 42.7597 15.3994 42.7598 16.3708 42.6462C16.6502 43.1306 16.9359 43.616 17.2207 44.09C17.6972 44.8827 18.7024 45.2129 19.559 44.8582L22.0567 43.8237C22.9129 43.4689 23.3904 42.5245 23.1667 41.6271C23.0346 41.0969 22.8934 40.5516 22.7469 40.0051C23.5141 39.3987 24.2101 38.7026 24.8171 37.9342C25.3601 38.0798 25.9055 38.221 26.4396 38.3541C27.337 38.5779 28.2814 38.1006 28.6362 37.244L29.6708 34.7462C30.0253 33.8897 29.6949 32.8845 28.9023 32.4082ZM26.8169 36.3721C26.3038 36.2436 25.7809 36.1077 25.2609 35.9676C24.5248 35.7696 23.7479 36.0285 23.2817 36.6274C22.7459 37.3156 22.1259 37.9358 21.4388 38.4708C20.8406 38.9368 20.5821 39.7134 20.7803 40.4491C20.9212 40.9724 21.057 41.495 21.1847 42.0044L18.8888 42.9553C18.6157 42.4997 18.3423 42.0341 18.075 41.5697C17.6947 40.9093 16.9627 40.5433 16.2103 40.6365C15.3463 40.7438 14.4692 40.7437 13.604 40.636C12.8495 40.5424 12.1181 40.9083 11.7379 41.5689C11.4674 42.0386 11.1939 42.5044 10.9238 42.9552L8.6279 42.0042C8.75631 41.4921 8.89219 40.9692 9.03246 40.4485C9.23065 39.7124 8.97164 38.9354 8.37267 38.4692C7.68448 37.9335 7.06441 37.3135 6.52934 36.6266C6.06351 36.0281 5.28691 35.7697 4.55092 35.9678C4.03034 36.108 3.50766 36.2439 2.99569 36.3722L2.04472 34.0764C2.49823 33.8045 2.96396 33.5311 3.43031 33.2625C4.09081 32.8822 4.45714 32.1505 4.36362 31.3979C4.25613 30.5338 4.2564 29.6568 4.36389 28.7916C4.45775 28.0383 4.09169 27.3058 3.43084 26.9254C2.96467 26.657 2.49885 26.3834 2.04463 26.1111L2.9956 23.8153C3.50713 23.9435 4.0299 24.0794 4.55144 24.2197C5.28726 24.418 6.06422 24.1589 6.53074 23.5599C7.06643 22.8718 7.6865 22.2516 8.37337 21.7167C8.97173 21.2508 9.23021 20.4741 9.03202 19.7381C8.89227 19.2192 8.7564 18.6966 8.62764 18.183L10.9235 17.2321C11.1946 17.6844 11.4681 18.15 11.7373 18.6177C12.1177 19.2782 12.8503 19.645 13.602 19.5509C14.4657 19.4434 15.3426 19.4434 16.2086 19.5513C16.9622 19.6452 17.6943 19.2787 18.0746 18.6182C18.3429 18.152 18.6165 17.6862 18.8886 17.2321L21.1845 18.183C21.056 18.6956 20.9201 19.2185 20.7799 19.7389C20.5817 20.4749 20.8407 21.2519 21.4397 21.7181C22.1278 22.2538 22.748 22.8738 23.283 23.5607C23.7489 24.159 24.5252 24.4175 25.2616 24.2194C25.7818 24.0793 26.3044 23.9434 26.8167 23.815L27.7676 26.1108C27.3147 26.3823 26.849 26.6557 26.382 26.9247C25.7215 27.305 25.3551 28.0368 25.4487 28.7894C25.5562 29.6531 25.556 30.5301 25.4482 31.3959C25.3545 32.1492 25.7208 32.8816 26.3814 33.2619C26.8468 33.5299 27.3127 33.8034 27.7676 34.0761L26.8169 36.3721Z" fill="white"/>
<path d="M21.2487 27.4668C21.2487 27.4668 21.2487 27.4668 21.2486 27.4667C19.8002 23.9696 15.7769 22.3029 12.2793 23.7515C8.78228 25.2001 7.11552 29.2237 8.56413 32.7208C9.26576 34.415 10.5854 35.7343 12.2794 36.4361C13.1264 36.7869 14.0163 36.9623 14.9063 36.9623C15.7963 36.9623 16.6863 36.7869 17.5335 36.4361C21.0304 34.9875 22.6971 30.964 21.2487 27.4668ZM16.7626 34.5751C15.5657 35.0709 14.2474 35.0708 13.0502 34.5751C11.8533 34.0793 10.921 33.147 10.4251 31.95C9.40147 29.479 10.5792 26.636 13.0502 25.6125C13.6554 25.3618 14.2826 25.2432 14.9001 25.2432C16.8044 25.2432 18.6148 26.3717 19.3878 28.2376C20.4113 30.7085 19.2335 33.5515 16.7626 34.5751Z" fill="white"/>
<path d="M43.6421 8.87133C43.2944 8.8193 42.9373 8.76876 42.5777 8.72077C42.3965 8.11811 42.1544 7.53381 41.8557 6.97887C42.0758 6.69103 42.2927 6.40266 42.5024 6.11938C42.9677 5.49 42.9004 4.59738 42.3459 4.04314L40.9565 2.65395C40.402 2.09936 39.5094 2.03212 38.8802 2.49768C38.596 2.708 38.3077 2.92482 38.0207 3.14411C37.4659 2.84546 36.8817 2.60341 36.2788 2.42209C36.2307 2.06244 36.1804 1.70534 36.1284 1.35773C36.0126 0.58377 35.3339 0 34.5498 0H32.5849C31.8007 0 31.122 0.583769 31.0063 1.35765C30.9543 1.70508 30.9039 2.06227 30.8558 2.422C30.253 2.60332 29.6687 2.84537 29.1139 3.14402C28.8271 2.92465 28.5387 2.70773 28.2545 2.49759C27.6251 2.03203 26.7325 2.09927 26.1782 2.65377L24.789 4.04288C24.2344 4.59729 24.167 5.49 24.6325 6.11947C24.842 6.40266 25.0589 6.69111 25.2789 6.97887C24.9804 7.53372 24.7383 8.11793 24.5569 8.72077C24.1974 8.76885 23.8402 8.8193 23.4926 8.87133C22.7185 8.98717 22.1348 9.66577 22.1348 10.45V12.4148C22.1348 13.199 22.7184 13.8777 23.4924 13.9935C23.8401 14.0455 24.1972 14.0961 24.5569 14.1441C24.7382 14.7468 24.9802 15.331 25.2788 15.886C25.059 16.1735 24.8421 16.4618 24.6322 16.7454C24.1669 17.3747 24.2341 18.2675 24.7886 18.8216L26.178 20.211C26.7324 20.7656 27.625 20.8327 28.2543 20.3672C28.5386 20.1571 28.8268 19.9401 29.1137 19.7209C29.6687 20.0196 30.253 20.2616 30.8557 20.4428C30.9036 20.8024 30.9541 21.1596 31.0062 21.5073C31.122 22.2812 31.8007 22.865 32.5849 22.865H34.5498C35.3339 22.865 36.0126 22.2814 36.1284 21.5072C36.1803 21.1595 36.2307 20.8024 36.2788 20.4427C36.8816 20.2616 37.4658 20.0194 38.0207 19.7207C38.3075 19.9401 38.596 20.157 38.8801 20.3672C39.5093 20.8328 40.4021 20.7656 40.9565 20.2111L42.3458 18.8219C42.9003 18.2675 42.9677 17.3747 42.5021 16.7454C42.2924 16.4618 42.0755 16.1734 41.8557 15.8861C42.1542 15.3312 42.3964 14.7471 42.5777 14.1442C42.9372 14.0961 43.2944 14.0456 43.642 13.9936C44.4161 13.8778 44.9999 13.1992 44.9999 12.4149V10.4501C44.9998 9.66586 44.4161 8.98717 43.6421 8.87133ZM43.0862 12.1414C42.7705 12.1872 42.4484 12.2317 42.1252 12.2737C41.486 12.3572 40.9627 12.8108 40.7924 13.4294C40.6291 14.0217 40.3923 14.5933 40.0884 15.1282C39.7711 15.6865 39.82 16.3775 40.2132 16.8888C40.4114 17.1465 40.608 17.4059 40.7993 17.6621L39.797 18.6645C39.5399 18.4727 39.2806 18.2762 39.0234 18.0784C38.5124 17.6851 37.8212 17.6365 37.2628 17.9535C36.7278 18.2574 36.1562 18.4943 35.5643 18.6575C34.9453 18.828 34.4917 19.3513 34.4085 19.9904C34.3664 20.3135 34.322 20.6358 34.2762 20.9515H32.8585C32.8127 20.6358 32.7683 20.3136 32.7261 19.9907C32.6427 19.3514 32.1891 18.8281 31.5704 18.6576C30.9782 18.4945 30.4069 18.2576 29.8717 17.9537C29.3132 17.6364 28.6221 17.6852 28.1112 18.0784C27.8539 18.2762 27.5947 18.4727 27.3374 18.6645L26.3351 17.6621C26.5265 17.4056 26.723 17.1464 26.9215 16.8884C27.3143 16.3774 27.3633 15.6864 27.046 15.128C26.7422 14.5931 26.5053 14.0215 26.3421 13.4293C26.1717 12.8106 25.6485 12.357 25.0092 12.2736C24.6861 12.2314 24.3638 12.1871 24.0481 12.1411V10.7236C24.3638 10.6778 24.686 10.6334 25.0091 10.5913C25.6484 10.5079 26.1717 10.0542 26.342 9.43559C26.5052 8.84338 26.742 8.27183 27.0459 7.73684C27.3633 7.17847 27.3143 6.48738 26.9214 5.9763C26.7228 5.71825 26.5263 5.45897 26.3351 5.20286L27.3374 4.20047C27.5945 4.39233 27.8538 4.58886 28.1109 4.78652C28.6217 5.17983 29.3128 5.22888 29.8717 4.9115C30.4065 4.60767 30.9781 4.3708 31.5702 4.2075C32.1891 4.03699 32.6428 3.51369 32.7259 2.87464C32.7681 2.55146 32.8126 2.22935 32.8584 1.91364H34.2761C34.3219 2.22926 34.3662 2.55138 34.4083 2.87437C34.4917 3.51369 34.9454 4.03699 35.5641 4.20741C36.1563 4.37063 36.7279 4.60758 37.2628 4.91142C37.8214 5.22879 38.5125 5.17948 39.0233 4.78661C39.2806 4.58886 39.5397 4.39233 39.797 4.20047L40.7993 5.20286C40.6081 5.45906 40.4116 5.71843 40.2131 5.97656C39.8201 6.48756 39.7712 7.17855 40.0884 7.73692C40.3922 8.272 40.6291 8.84364 40.7923 9.43567C40.9627 10.0544 41.4859 10.508 42.1251 10.5914C42.4483 10.6336 42.7705 10.678 43.0862 10.7239V12.1414Z" fill="white"/>
<path d="M33.5675 7.35425C31.3188 7.35425 29.4893 9.18369 29.4893 11.4325C29.4893 13.6813 31.3187 15.5108 33.5675 15.5108C35.8162 15.5108 37.6457 13.6813 37.6457 11.4325C37.6457 9.18369 35.8162 7.35425 33.5675 7.35425ZM33.5675 13.6978C32.3185 13.6978 31.3021 12.6816 31.3021 11.4324C31.3021 10.1832 32.3184 9.16699 33.5675 9.16699C34.8166 9.16699 35.8328 10.1833 35.8328 11.4324C35.8328 12.6816 34.8166 13.6978 33.5675 13.6978Z" fill="white"/>
</g>
<defs>
<clipPath id="clip0">
<rect width="45" height="45" fill="white"/>
</clipPath>
</defs>
</svg>
