<svg width="45" height="45" viewBox="0 0 45 45" fill="none" xmlns="http://www.w3.org/2000/svg">
<path d="M42.75 5.25003H2.25C1.0074 5.25003 0 6.25734 0 7.50003V37.5C0 38.7426 1.00731 39.75 2.25 39.75H42.75C43.9926 39.75 45 38.7427 45 37.5V7.50003C45 6.25743 43.9927 5.25003 42.75 5.25003ZM43.5 37.5001C43.5 37.9143 43.1642 38.2501 42.75 38.2501H2.25C1.83577 38.2501 1.50003 37.9143 1.50003 37.5001V7.50003C1.50003 7.0858 1.83577 6.75006 2.25 6.75006H42.75C43.1642 6.75006 43.5 7.0858 43.5 7.50003V37.5001Z" fill="white"/>
<path d="M39.7501 27.0001H27C26.1716 27.0001 25.5 27.6716 25.5 28.5001V34.5001C25.5 35.3286 26.1716 36.0001 27 36.0001H39.7501C40.5785 36.0001 41.2501 35.3286 41.2501 34.5001V28.5001C41.25 27.6716 40.5784 27.0001 39.7501 27.0001ZM27 34.5V28.5H32.4255L28.8255 34.5H27ZM30.5745 34.5L34.1745 28.5H36.1755L32.5755 34.5H30.5745ZM39.7501 34.5H34.3246L37.9246 28.5H39.7501V34.5Z" fill="white"/>
<path d="M39.75 22.5001H30.75C30.3357 22.5001 30 22.8358 30 23.25C30 23.6643 30.3357 24 30.75 24H39.75C40.1642 24 40.4999 23.6643 40.4999 23.25C40.4999 22.8358 40.1641 22.5001 39.75 22.5001Z" fill="white"/>
<path d="M28.5 23.25C28.5 22.8358 28.1643 22.5001 27.75 22.5001H24.75C24.3357 22.5001 24 22.8358 24 23.25C24 23.6643 24.3357 24 24.75 24H27.7499C28.1642 24.0001 28.5 23.6643 28.5 23.25Z" fill="white"/>
<path d="M39.7499 18.75H36.75C36.3357 18.75 36 19.0858 36 19.5C36 19.9142 36.3357 20.25 36.75 20.25H39.7499C40.1642 20.25 40.4999 19.9141 40.4999 19.5C40.4999 19.0859 40.1641 18.75 39.7499 18.75Z" fill="white"/>
<path d="M24.75 20.2501H33.75C34.1642 20.2501 34.4999 19.9142 34.4999 19.5001C34.4999 19.086 34.1642 18.7501 33.75 18.7501H24.75C24.3357 18.7501 24 19.0859 24 19.5001C24 19.9143 24.3357 20.2501 24.75 20.2501Z" fill="white"/>
<path d="M39.7499 15.0001H32.25C31.8357 15.0001 31.5 15.3358 31.5 15.7501C31.5 16.1643 31.8357 16.5 32.25 16.5H39.7499C40.1642 16.5 40.4999 16.1643 40.4999 15.7501C40.4999 15.3358 40.1641 15.0001 39.7499 15.0001Z" fill="white"/>
<path d="M24.75 16.5H29.25C29.6642 16.5 29.9999 16.1643 29.9999 15.7501C29.9999 15.3358 29.6641 15.0001 29.25 15.0001H24.75C24.3357 15.0001 24 15.3358 24 15.7501C24 16.1643 24.3357 16.5 24.75 16.5Z" fill="white"/>
<path d="M36 12.7501H39.75C40.1642 12.7501 40.5 12.4143 40.5 12.0001C40.5 11.5859 40.1641 11.2501 39.75 11.2501H36C35.5857 11.2501 35.25 11.5858 35.25 12C35.25 12.4143 35.5857 12.7501 36 12.7501Z" fill="white"/>
<path d="M24.75 12.7501H33C33.4142 12.7501 33.75 12.4143 33.75 12.0001C33.75 11.5859 33.4142 11.2501 33 11.2501H24.75C24.3357 11.2501 24 11.5858 24 12C24 12.4143 24.3357 12.7501 24.75 12.7501Z" fill="white"/>
<path d="M12.75 13.5001C10.2647 13.5001 8.25 15.5148 8.25 18.0001C8.25 20.4853 10.2647 22.5001 12.75 22.5001C15.2353 22.5001 17.25 20.4853 17.25 18.0001C17.2475 15.5158 15.2342 13.5025 12.75 13.5001ZM12.75 21C11.0932 21 9.75003 19.6569 9.75003 18.0001C9.75003 16.3432 11.0932 15.0001 12.75 15.0001C14.4068 15.0001 15.75 16.3432 15.75 18.0001C15.75 19.6569 14.4068 21 12.75 21Z" fill="white"/>
<path d="M19.1139 24.3638C19.3789 24.0996 19.6258 23.8177 19.8526 23.52C20.0264 23.2925 20.0555 22.9857 19.9276 22.7295L19.3433 21.561C19.5875 21.1103 19.7843 20.6355 19.9306 20.1442L21.1689 19.7325C21.4411 19.6417 21.6377 19.4035 21.6752 19.119C21.7741 18.3763 21.7741 17.6237 21.6752 16.8809C21.6377 16.5964 21.4411 16.3583 21.1689 16.2675L19.9306 15.8565C19.7845 15.3649 19.5877 14.8899 19.3433 14.439L19.9276 13.2705C20.0555 13.0143 20.0264 12.7075 19.8526 12.48C19.3971 11.8848 18.865 11.3525 18.2701 10.8967C18.0426 10.7229 17.7358 10.6938 17.4796 10.8218L16.3111 11.406C15.8604 11.1616 15.3856 10.9645 14.8943 10.818L14.4818 9.57899C14.3908 9.30706 14.1527 9.11089 13.8684 9.07354C13.1262 8.97378 12.3741 8.97378 11.6319 9.07354C11.3476 9.11089 11.1095 9.30706 11.0184 9.57899L10.606 10.818C10.1147 10.9645 9.63987 11.1616 9.18925 11.406L8.02075 10.8218C7.76455 10.6938 7.45781 10.7229 7.23026 10.8967C6.63533 11.3525 6.10315 11.8848 5.64779 12.48C5.47394 12.7075 5.44485 13.0143 5.57282 13.2705L6.15703 14.439C5.91269 14.8899 5.7159 15.3649 5.56974 15.8565L4.33145 16.2675C4.05925 16.3583 3.86264 16.5964 3.8252 16.8809C3.72624 17.6237 3.72624 18.3762 3.8252 19.119C3.86264 19.4035 4.05925 19.6417 4.33145 19.7325L5.56974 20.1442C5.71599 20.6355 5.91278 21.1103 6.15703 21.561L5.57282 22.7295C5.44485 22.9857 5.47394 23.2925 5.64779 23.52C6.10324 24.1152 6.63533 24.6476 7.23026 25.1033C7.45781 25.2771 7.76455 25.3062 8.02075 25.1783L9.18925 24.5941C9.63996 24.8385 10.1147 25.0355 10.606 25.182L11.0184 26.421C11.1095 26.693 11.3476 26.8891 11.6319 26.9265C12.3741 27.0255 13.1262 27.0255 13.8684 26.9265C14.1527 26.8891 14.3908 26.693 14.4818 26.421L14.8943 25.182C15.3856 25.0355 15.8604 24.8385 16.3111 24.5941L17.4796 25.1783C17.7358 25.3062 18.0426 25.2771 18.2701 25.1033C18.5677 24.8761 18.8496 24.629 19.1139 24.3638ZM17.7166 23.6191L16.6208 23.0716C16.3883 22.9554 16.1122 22.9679 15.8911 23.1046C15.3489 23.4392 14.7567 23.6848 14.1369 23.832C13.8845 23.8922 13.6811 24.0786 13.5992 24.3248L13.2122 25.4843C12.9046 25.5053 12.5958 25.5053 12.2882 25.4843L11.9012 24.3248C11.8193 24.0786 11.6159 23.8922 11.3635 23.832C10.7437 23.6847 10.1514 23.4392 9.60928 23.1046C9.38815 22.9678 9.11208 22.9553 8.87953 23.0716L7.78379 23.6191C7.66901 23.5178 7.55879 23.4136 7.44708 23.3033C7.33538 23.193 7.23254 23.0783 7.13129 22.9658L7.67876 21.8708C7.79496 21.6386 7.78274 21.3628 7.64651 21.1418C7.31165 20.5998 7.06599 20.0075 6.91904 19.3876C6.85918 19.1344 6.67242 18.9303 6.42553 18.8484L5.26529 18.4621C5.25527 18.3101 5.25026 18.1561 5.25026 18.0001C5.25026 17.8441 5.25527 17.6901 5.26529 17.538L6.42553 17.1517C6.67242 17.0697 6.85918 16.8657 6.91904 16.6125C7.06564 15.9927 7.31129 15.4006 7.64651 14.859C7.783 14.6378 7.79522 14.3616 7.67876 14.1293L7.13129 13.0342C7.23254 12.9187 7.33678 12.8092 7.44708 12.6967C7.5573 12.5842 7.67208 12.4822 7.78379 12.3809L8.87953 12.9284C9.11208 13.0446 9.38815 13.0321 9.60928 12.8955C10.1515 12.5609 10.7437 12.3152 11.3635 12.168C11.6159 12.1079 11.8193 11.9215 11.9012 11.6753L12.2882 10.5157C12.5958 10.4947 12.9046 10.4947 13.2122 10.5157L13.5992 11.6753C13.6811 11.9215 13.8845 12.1079 14.1369 12.168C14.7567 12.3153 15.349 12.5609 15.8911 12.8955C16.1122 13.0322 16.3883 13.0447 16.6208 12.9284L17.7166 12.3809C17.8314 12.4822 17.9416 12.5864 18.0533 12.6967C18.165 12.807 18.2678 12.9217 18.3691 13.0342L17.8216 14.1293C17.7051 14.3616 17.7174 14.6378 17.8539 14.859C18.1892 15.4006 18.4348 15.9927 18.5813 16.6125C18.6412 16.8657 18.828 17.0698 19.0748 17.1517L20.2351 17.538C20.2446 17.688 20.2496 17.842 20.2501 18.0001C20.2506 18.1581 20.2456 18.3121 20.2351 18.4621L19.0748 18.8484C18.828 18.9304 18.6412 19.1345 18.5813 19.3876C18.4344 20.0076 18.1887 20.5999 17.8539 21.1418C17.7176 21.3628 17.7054 21.6386 17.8216 21.8708L18.3691 22.9658C18.2678 23.0813 18.1636 23.1908 18.0533 23.3033C17.9431 23.4158 17.8314 23.5178 17.7166 23.6191Z" fill="white"/>
<path d="M13.2825 17.4675C13.2469 17.4353 13.2092 17.4052 13.17 17.3775C13.1281 17.3492 13.0828 17.3265 13.035 17.31C12.9924 17.2883 12.947 17.2732 12.9 17.265C12.7538 17.2344 12.6017 17.2501 12.465 17.31C12.2765 17.3782 12.1282 17.5266 12.06 17.715C11.98 17.8966 11.98 18.1034 12.06 18.285C12.1282 18.4735 12.2765 18.6218 12.465 18.69C12.5552 18.7284 12.652 18.7488 12.75 18.75C12.8003 18.7487 12.8505 18.7437 12.9 18.735C12.9471 18.7268 12.9925 18.7116 13.035 18.69C13.0829 18.6737 13.1282 18.6509 13.17 18.6225C13.2093 18.5948 13.2469 18.5648 13.2825 18.5325C13.3487 18.4596 13.402 18.3759 13.44 18.285C13.5201 18.1034 13.5201 17.8966 13.44 17.715C13.4019 17.6243 13.3486 17.5405 13.2825 17.4675Z" fill="white"/>
<path d="M13.5 29.2501C11.8431 29.2501 10.5 30.5932 10.5 32.25C10.5 33.9069 11.8431 35.25 13.5 35.25C15.1568 35.25 16.4999 33.9069 16.4999 32.25C16.4999 30.5932 15.1568 29.2501 13.5 29.2501ZM13.5 33.7501C12.6715 33.7501 11.9999 33.0785 11.9999 32.25C11.9999 31.4216 12.6715 30.75 13.5 30.75C14.3284 30.75 15 31.4216 15 32.25C15 33.0785 14.3284 33.7501 13.5 33.7501Z" fill="white"/>
<path d="M5.99997 29.2501C4.34314 29.2501 3 30.5932 3 32.25C3 33.9069 4.34314 35.25 5.99997 35.25C7.6568 35.25 8.99994 33.9069 8.99994 32.25C8.99994 30.5932 7.6568 29.2501 5.99997 29.2501ZM5.99997 33.7501C5.17151 33.7501 4.49994 33.0785 4.49994 32.25C4.49994 31.4216 5.17151 30.75 5.99997 30.75C6.82843 30.75 7.5 31.4216 7.5 32.25C7.5 33.0785 6.82834 33.7501 5.99997 33.7501Z" fill="white"/>
<path d="M21 29.2501C19.3431 29.2501 18 30.5932 18 32.25C18 33.9069 19.3431 35.25 21 35.25C22.6568 35.25 23.9999 33.9069 23.9999 32.25C23.9999 30.5932 22.6569 29.2501 21 29.2501ZM21 33.7501C20.1715 33.7501 19.4999 33.0785 19.4999 32.25C19.4999 31.4216 20.1715 30.75 21 30.75C21.8284 30.75 22.5 31.4217 22.5 32.25C22.5 33.0784 21.8284 33.7501 21 33.7501Z" fill="white"/>
</svg>
