<svg width="45" height="45" viewBox="0 0 45 45" fill="none" xmlns="http://www.w3.org/2000/svg">
<g clip-path="url(#clip0)">
<path d="M42.3633 31.2891H39.5508V8.19129H39.8403C40.16 8.19129 40.4544 8.01771 40.6092 7.73813C40.7641 7.45855 40.7549 7.11692 40.5853 6.84595L37.659 2.17307C37.4984 1.91652 37.2169 1.76069 36.9142 1.76069C36.6114 1.76069 36.3299 1.91652 36.1693 2.17307L33.243 6.84595C33.0733 7.11692 33.0642 7.45855 33.2191 7.73813C33.3739 8.01771 33.6684 8.19129 33.988 8.19129H34.2773V25.2247C34.2773 25.71 34.6708 26.1036 35.1562 26.1036C35.6417 26.1036 36.0352 25.71 36.0352 25.2247V7.31239C36.0352 6.95863 35.8261 6.65356 35.5247 6.51416L36.9141 4.29554L38.3034 6.51416C38.0021 6.65356 37.793 6.95863 37.793 7.31239V31.2891H31.4648C30.011 31.2891 28.8281 32.472 28.8281 33.9258V34.2528C28.553 34.1552 28.2574 34.1016 27.9492 34.1016H23.9997V24.4199C23.9997 21.9968 22.0283 20.0254 19.6051 20.0254H18.5659V18.9545C18.9356 19.1201 19.3446 19.2131 19.7752 19.2131H24.3351C25.7706 19.2131 26.9385 18.0453 26.9385 16.6098C26.9385 15.1743 25.7706 14.0064 24.3351 14.0064H22.0752V13.0175C22.0752 10.3591 20.2771 8.11421 17.8336 7.4313C18.3907 6.73283 18.7248 5.84909 18.7248 4.88827V4.08645C18.7249 1.83311 16.8918 6.10352e-05 14.6386 6.10352e-05C12.3855 6.10352e-05 10.5523 1.83311 10.5523 4.08636V4.88819C10.5523 5.83196 10.8748 6.70128 11.4142 7.39386C8.90156 8.0301 7.0367 10.3098 7.0367 13.0175V17.5719C7.0367 19.6926 8.5493 21.4665 10.5523 21.8718V26.8506C10.5523 27.336 10.9458 27.7296 11.4312 27.7296C11.9166 27.7296 12.3101 27.336 12.3101 26.8506V21.7832H17.687H19.6051C21.059 21.7832 22.2419 22.9661 22.2419 24.4199V34.1016H20.1325V25.481C20.1325 24.9957 19.739 24.6021 19.2536 24.6021H15.293C14.8075 24.6021 14.4141 24.9957 14.4141 25.481V36.7383V38.3204H13.5352H12.3101V34.0137C12.3101 33.5284 11.9166 33.1348 11.4312 33.1348C10.9458 33.1348 10.5523 33.5284 10.5523 34.0137V38.3204H2.63672C1.18283 38.3204 0 39.5032 0 40.9571V44.1212C0 44.6065 0.393486 45.0001 0.878906 45.0001H44.1211C44.6065 45.0001 45 44.6065 45 44.1212V33.9258C45 32.472 43.8172 31.2891 42.3633 31.2891ZM12.3101 4.08636C12.3101 2.80245 13.3547 1.75787 14.6386 1.75787C15.9225 1.75787 16.9671 2.80245 16.9671 4.08636V4.88819C16.9671 6.172 15.9225 7.21658 14.6386 7.21658C13.3547 7.21658 12.3101 6.172 12.3101 4.88819V4.08636ZM17.687 13.031C17.2016 13.031 16.8081 13.4246 16.8081 13.9099V20.0254H12.3101V13.9099C12.3101 13.4245 11.9166 13.031 11.4312 13.031C10.9458 13.031 10.5523 13.4246 10.5523 13.9099V20.0521C9.52972 19.6917 8.79451 18.7163 8.79451 17.5719V13.0175C8.79451 10.7882 10.6082 8.97449 12.8375 8.97449H16.2744C18.5038 8.97449 20.3174 10.7882 20.3174 13.0175V14.8853C20.3174 15.3706 20.7109 15.7642 21.1963 15.7642H24.3351C24.8013 15.7642 25.1807 16.1435 25.1807 16.6098C25.1807 17.0761 24.8013 17.4553 24.3351 17.4553H19.7752C19.1085 17.4553 18.5659 16.9129 18.5659 16.2461V13.9099C18.5659 13.4246 18.1724 13.031 17.687 13.031ZM14.4141 43.2422H1.75781V40.9571C1.75781 40.4725 2.15209 40.0782 2.63672 40.0782H13.5352C14.0198 40.0782 14.4141 40.4725 14.4141 40.9571V43.2422ZM16.1719 26.36H18.3747V34.1016H17.0508C16.7426 34.1016 16.447 34.1552 16.1719 34.2528V26.36ZM28.8281 43.2422H16.1719V36.7383C16.1719 36.2537 16.5662 35.8594 17.0508 35.8594H27.9492C28.4338 35.8594 28.8281 36.2537 28.8281 36.7383V43.2422ZM43.2422 43.2422H30.5859V36.7383V33.9258C30.5859 33.4412 30.9802 33.0469 31.4648 33.0469H42.3633C42.8479 33.0469 43.2422 33.4412 43.2422 33.9258V43.2422Z" fill="white"/>
<path d="M12.0525 29.6473C11.8891 29.4839 11.6623 29.3898 11.4312 29.3898C11.2 29.3898 10.9741 29.4838 10.8098 29.6473C10.6463 29.8108 10.5522 30.0376 10.5522 30.2687C10.5522 30.4999 10.6463 30.7266 10.8098 30.8901C10.9732 31.0535 11.2 31.1476 11.4312 31.1476C11.6623 31.1476 11.8891 31.0536 12.0525 30.8901C12.216 30.7266 12.3101 30.4999 12.3101 30.2687C12.3101 30.0376 12.216 29.8108 12.0525 29.6473Z" fill="white"/>
<path d="M35.7776 27.9431C35.6142 27.7797 35.3874 27.6856 35.1562 27.6856C34.9251 27.6856 34.6983 27.7796 34.5349 27.9431C34.3714 28.1066 34.2773 28.3334 34.2773 28.5645C34.2773 28.7957 34.3714 29.0224 34.5349 29.1858C34.6983 29.3493 34.9251 29.4434 35.1562 29.4434C35.3874 29.4434 35.6142 29.3494 35.7776 29.1858C35.9411 29.0224 36.0352 28.7957 36.0352 28.5645C36.0352 28.3334 35.9411 28.1066 35.7776 27.9431Z" fill="white"/>
</g>
<defs>
<clipPath id="clip0">
<rect width="45" height="45" fill="white"/>
</clipPath>
</defs>
</svg>
