<svg width="45" height="45" viewBox="0 0 45 45" fill="none" xmlns="http://www.w3.org/2000/svg">
<g clip-path="url(#clip0)">
<path d="M11.5858 9.6097C10.7418 8.73746 9.57897 8.24649 8.36528 8.24996H8.13428C6.92182 8.24752 5.76063 8.73839 4.91754 9.6097C4.12442 10.4251 3.70329 11.5319 3.75354 12.6682L3.84129 14.6872C3.97423 16.9976 5.90744 18.7908 8.22128 18.7499H8.27828C10.5921 18.7908 12.5253 16.9976 12.6583 14.6872L12.7498 12.6682C12.8 11.5319 12.3789 10.4251 11.5858 9.6097ZM11.1598 14.6249C11.0582 16.1308 9.78709 17.2888 8.27828 17.2499H8.22128C6.71247 17.2888 5.44141 16.1308 5.33979 14.6249L5.31354 14.0122C6.74322 13.9485 8.116 13.4334 9.23453 12.5407C9.69578 13.2228 10.3921 13.7112 11.1905 13.9124L11.1598 14.6249ZM10.2193 11.0797C10.1776 10.7598 9.93587 10.5025 9.61928 10.4407C9.30381 10.3755 8.98225 10.5208 8.82278 10.8007C8.81303 10.8165 7.88228 12.2887 5.25579 12.5137C5.24932 11.8188 5.5166 11.1494 5.99979 10.65C6.55976 10.0729 7.33019 9.74808 8.13428 9.74995H8.36528C9.16937 9.74808 9.93981 10.0729 10.4998 10.65C10.9373 11.1059 11.197 11.7035 11.2318 12.3344C10.7128 12.1025 10.3363 11.636 10.2193 11.0797Z" fill="white"/>
<path d="M40.8358 27.6097C39.9919 26.7375 38.829 26.2465 37.6153 26.25H37.3843C36.1718 26.2475 35.0106 26.7384 34.1676 27.6097C33.3744 28.4251 32.9532 29.5319 33.0036 30.6682L33.0913 32.6872C33.2242 34.9976 35.1575 36.7908 37.4713 36.7499H37.5283C39.8421 36.7908 41.7754 34.9976 41.9083 32.6872L41.9998 30.6682C42.05 29.5319 41.6289 28.4251 40.8358 27.6097ZM40.4998 30.6074L40.4098 32.6249C40.3082 34.1308 39.0371 35.2887 37.5283 35.2499H37.4713C35.9625 35.2887 34.6914 34.1308 34.5898 32.6249L34.4998 30.6037C34.4708 29.877 34.7421 29.1705 35.2498 28.65C35.8098 28.0729 36.5802 27.7481 37.3843 27.75H37.6153C38.4194 27.7481 39.1898 28.0729 39.7498 28.65C40.2585 29.1715 40.5298 29.8796 40.4998 30.6074Z" fill="white"/>
<path d="M23.1688 10.9072C22.364 10.1288 21.087 10.1288 20.2822 10.9072L11.9092 19.2802C11.7684 19.421 11.5773 19.5001 11.3782 19.5H3.74999C1.68 19.5024 0.00243749 21.18 0 23.25V33.7499C0 34.9926 1.00734 35.9999 2.25 35.9999C2.50546 35.9999 2.75906 35.9565 2.99999 35.8717V36.7499C2.99999 37.1641 3.33581 37.4999 3.74999 37.4999H12.75C13.1642 37.4999 13.5 37.1641 13.5 36.7499V24.5894C13.4999 24.3997 13.5717 24.2169 13.701 24.0779L23.2177 13.8427C24.0149 13.0187 23.9929 11.7044 23.1688 10.9072ZM22.1466 12.7939C22.1439 12.7966 22.1412 12.7992 22.1385 12.8017L12.6 23.0572C12.2137 23.4739 11.9993 24.0212 12 24.5894V35.9999H4.49999V24.7499C4.49999 24.3358 4.16418 23.9999 3.74999 23.9999C3.33581 23.9999 2.99999 24.3358 2.99999 24.7499V33.7499C2.99999 34.1641 2.66418 34.4999 2.25 34.4999C1.83581 34.4999 1.5 34.1641 1.5 33.7499V23.25C1.5 22.0073 2.50734 21 3.74999 21H11.3782C11.9755 21.0018 12.5487 20.7645 12.9697 20.3407L21.3427 11.9677C21.571 11.7512 21.9289 11.7512 22.1572 11.9677C22.3824 12.1988 22.3777 12.5688 22.1466 12.7939Z" fill="white"/>
<path d="M8.25 21.7499C7.83581 21.7499 7.5 22.0858 7.5 22.4999V31.4999C7.5 31.9141 7.83581 32.2499 8.25 32.2499C8.66418 32.2499 9 31.9141 9 31.4999V22.4999C9 22.0858 8.66418 21.7499 8.25 21.7499Z" fill="white"/>
<path d="M24.332 27.6097C23.489 26.7384 22.3278 26.2475 21.1153 26.2499H20.8843C19.6718 26.2475 18.5106 26.7384 17.6676 27.6097C16.8744 28.4251 16.4532 29.5318 16.5036 30.6682L16.5913 32.6872C16.7242 34.9976 18.6575 36.7908 20.9713 36.7499H21.0283C23.3421 36.7908 25.2754 34.9976 25.4083 32.6872L25.496 30.6682C25.5464 29.5318 25.1252 28.4251 24.332 27.6097ZM23.9998 30.6074L23.9098 32.6249C23.8082 34.1308 22.5371 35.2887 21.0283 35.2499H20.9713C19.4625 35.2887 18.1914 34.1308 18.0898 32.6249L17.9998 30.6037C17.9708 29.877 18.2421 29.1705 18.7498 28.6499C19.3098 28.0729 20.0802 27.7481 20.8843 27.7499H21.1153C21.9194 27.7481 22.6898 28.0729 23.2498 28.6499C23.7585 29.1715 24.0298 29.8796 23.9998 30.6074Z" fill="white"/>
<path d="M24.8752 37.4999H17.1247C15.1237 37.502 13.5021 39.1237 13.5 41.1247V44.2499C13.5 44.6641 13.8358 44.9999 14.25 44.9999C14.6642 44.9999 15 44.6641 15 44.2499V41.1247C15.0012 39.9517 15.9518 39.0012 17.1247 38.9999H24.8752C26.0482 39.0012 26.9988 39.9517 27 41.1247V44.2499C27 44.6641 27.3358 44.9999 27.75 44.9999C28.1642 44.9999 28.5 44.6641 28.5 44.2499V41.1247C28.4979 39.1237 26.8762 37.502 24.8752 37.4999Z" fill="white"/>
<path d="M41.3752 37.4999H33.6247C31.6237 37.502 30.0021 39.1237 30 41.1247V44.2499C30 44.6641 30.3358 44.9999 30.75 44.9999C31.1642 44.9999 31.5 44.6641 31.5 44.2499V41.1247C31.5012 39.9517 32.4518 39.0012 33.6247 38.9999H41.3752C42.5482 39.0012 43.4988 39.9517 43.5 41.1247V44.2499C43.5 44.6641 43.8358 44.9999 44.25 44.9999C44.6642 44.9999 45 44.6641 45 44.2499V41.1247C44.9979 39.1237 43.3762 37.502 41.3752 37.4999Z" fill="white"/>
<path d="M42.7875 0H16.4626C15.231 0.012 14.2413 1.0184 14.2501 2.25V13.5C14.2501 13.9142 14.5859 14.25 15.0001 14.25C15.4142 14.25 15.7501 13.9142 15.7501 13.5V4.49999H43.5V22.5C43.5097 22.9035 43.1911 23.2389 42.7875 23.25H17.1938C16.7796 23.25 16.4438 23.5858 16.4438 23.9999C16.4438 24.4141 16.7796 24.7499 17.1938 24.7499H42.7875C44.0191 24.7379 45.0087 23.7315 45 22.5V2.25C45.0087 1.0184 44.0191 0.012 42.7875 0ZM43.5 2.99999H15.7501V2.25C15.7404 1.8464 16.059 1.51106 16.4626 1.5H42.7875C43.1911 1.51106 43.5097 1.8464 43.5 2.25V2.99999Z" fill="white"/>
<path d="M41.25 9.5625C40.8358 9.5625 40.5 9.89831 40.5 10.3125V21C40.5 21.4142 40.8358 21.75 41.25 21.75C41.6642 21.75 42 21.4142 42 21V10.3125C42 9.89831 41.6642 9.5625 41.25 9.5625Z" fill="white"/>
<path d="M38.25 14.25C37.8358 14.25 37.5 14.5858 37.5 15V21C37.5 21.4142 37.8358 21.75 38.25 21.75C38.6642 21.75 39 21.4142 39 21V15C39 14.5858 38.6642 14.25 38.25 14.25Z" fill="white"/>
<path d="M35.25 12.75C34.8358 12.75 34.5 13.0858 34.5 13.5V21C34.5 21.4142 34.8358 21.75 35.25 21.75C35.6642 21.75 36 21.4142 36 21V13.5C36 13.0858 35.6642 12.75 35.25 12.75Z" fill="white"/>
<path d="M32.25 17.2499C31.8358 17.2499 31.5 17.5858 31.5 17.9999V20.9999C31.5 21.4141 31.8358 21.7499 32.25 21.7499C32.6642 21.7499 33 21.4141 33 20.9999V17.9999C33 17.5858 32.6642 17.2499 32.25 17.2499Z" fill="white"/>
<path d="M41.6663 6.12598C41.3216 5.89611 40.8559 5.98911 40.626 6.33373L38.0655 10.1737L35.7 8.39998C35.3699 8.14976 34.8995 8.21463 34.6493 8.54473C34.6208 8.58232 34.5959 8.62245 34.575 8.66473L31.6545 14.5065L28.8001 16.65C28.4687 16.8985 28.4015 17.3686 28.6501 17.7C28.8986 18.0314 29.3686 18.0985 29.7001 17.85L32.7 15.6C32.7945 15.5304 32.8716 15.4397 32.925 15.3352L35.5223 10.1392L37.8 11.85C38.1313 12.0985 38.6015 12.0315 38.85 11.7001C38.8584 11.689 38.8663 11.6777 38.874 11.6662L41.874 7.16623C42.1039 6.82161 42.0109 6.35586 41.6663 6.12598Z" fill="white"/>
<path d="M27 6H18C17.5858 6 17.25 6.33581 17.25 6.75C17.25 7.16419 17.5858 7.5 18 7.5H27C27.4142 7.5 27.75 7.16419 27.75 6.75C27.75 6.33581 27.4142 6 27 6Z" fill="white"/>
<path d="M31.5 6H30C29.5858 6 29.25 6.33581 29.25 6.75C29.25 7.16419 29.5858 7.5 30 7.5H31.5C31.9142 7.5 32.25 7.16419 32.25 6.75C32.25 6.33581 31.9142 6 31.5 6Z" fill="white"/>
</g>
<defs>
<clipPath id="clip0">
<rect width="45" height="45" fill="white"/>
</clipPath>
</defs>
</svg>
