<svg width="142" height="62" fill="none" xmlns="http://www.w3.org/2000/svg"><g clip-path="url(#clip0)"><path fill-rule="evenodd" clip-rule="evenodd" d="M38.43 30.661l-8.349 6.497-8.347 6.497V17.668l8.347 6.497 8.348 6.496z" fill="#fff"/><path fill-rule="evenodd" clip-rule="evenodd" d="M49.726 30.661l-8.729 6.793-8.728 6.793v-5.931l9.835-7.655-9.835-7.654v-5.932l8.728 6.793 8.729 6.793z" fill="#E31E24"/><path d="M69.347 14.884c.32.011.616.07.888.174.273.104.51.248.71.43.202.183.359.397.472.645.113.25.17.522.17.82v.794c0 .304-.056.582-.166.836a1.98 1.98 0 0 1-.463.662 2.17 2.17 0 0 1-.71.443 2.581 2.581 0 0 1-.9.17v.479h-1.132v-.48a2.828 2.828 0 0 1-.917-.19 2.256 2.256 0 0 1-.707-.439 1.892 1.892 0 0 1-.454-.645 2.059 2.059 0 0 1-.161-.828v-.801c0-.299.059-.573.177-.825a1.99 1.99 0 0 1 .48-.644c.2-.18.437-.323.71-.427.273-.105.563-.163.872-.174v-.297h1.131v.297zm1.132 2.187c0-.358-.105-.64-.314-.846-.21-.205-.482-.314-.818-.325v2.941c.325-.01.595-.118.81-.32.215-.204.322-.484.322-.842v-.608zm-3.395.608c0 .177.03.336.09.478.061.143.142.265.244.364.102.097.222.174.36.23.137.055.283.085.437.09v-2.94c-.154.005-.3.035-.438.09a1.075 1.075 0 0 0-.602.602 1.198 1.198 0 0 0-.091.478v.608zm9.79.84c0 .309-.059.579-.174.81a1.743 1.743 0 0 1-.47.586c-.198.16-.43.28-.697.36a2.92 2.92 0 0 1-.845.12c-.297 0-.578-.04-.845-.12a2.03 2.03 0 0 1-.697-.36 1.743 1.743 0 0 1-.47-.586 1.788 1.788 0 0 1-.173-.81v-2.09c0-.303.06-.57.182-.801.12-.231.282-.424.486-.579.204-.154.438-.27.7-.346.265-.077.536-.116.817-.116.28 0 .552.041.816.124.265.082.497.202.701.36a1.715 1.715 0 0 1 .668 1.391v2.057zm-1.133-1.858c0-.188-.03-.346-.09-.476a.909.909 0 0 0-.575-.5 1.328 1.328 0 0 0-.772 0 .907.907 0 0 0-.578.5c-.06.13-.091.288-.091.475v1.661c0 .187.03.347.09.48a.906.906 0 0 0 .24.321c.1.083.212.142.339.178a1.42 1.42 0 0 0 .772 0 .897.897 0 0 0 .574-.5c.061-.132.091-.292.091-.479v-1.66zm5.296 3.676v-2.38h-2.099v2.38h-1.131v-5.692h1.131v2.296h2.099v-2.296h1.148v5.692h-1.148zm2.131-1a1.38 1.38 0 0 0 .322-.334c.088-.13.161-.288.22-.476.057-.187.102-.406.136-.656.033-.25.057-.547.074-.888l.107-2.338h3.85c0 .787.001 1.57.004 2.35s.004 1.563.004 2.35h.496v2.264h-1.033v-1.272H83.78v1.272h-1.032v-2.272h.421zm1.875-3.693l-.066 1.363c-.01.243-.025.473-.041.69a6.87 6.87 0 0 1-.074.62 3.44 3.44 0 0 1-.14.553 1.806 1.806 0 0 1-.249.475h2.289v-3.7h-1.719zM67.117 26.69h1.156c.26 0 .455-.072.587-.216a.766.766 0 0 0 .198-.54.768.768 0 0 0-.202-.548c-.135-.145-.33-.216-.583-.216h-1.156v1.52zm1.412-2.537c.281 0 .523.054.727.162.204.107.373.246.508.417.135.17.234.362.298.574.063.212.095.42.095.624 0 .209-.037.418-.112.628a1.87 1.87 0 0 1-.322.57c-.14.17-.314.31-.52.417a1.508 1.508 0 0 1-.707.16h-1.38v2.14h-1.131v-5.691h2.544zm4.94 4.52h-1.982l-.372 1.173H69.91l2-5.693h1.156l1.983 5.693h-1.231l-.347-1.174zm-1.676-.95h1.37l-.222-.728-.446-1.503h-.033l-.438 1.479-.231.751zm5.493-3.619c.26 0 .507.027.744.082.237.056.446.145.628.269.181.124.326.285.433.483.108.199.162.44.162.727a1.313 1.313 0 0 1-.777 1.223c.275.105.483.27.624.496.14.226.21.473.21.743 0 .314-.059.583-.177.806a1.639 1.639 0 0 1-.471.553 1.922 1.922 0 0 1-.678.318 3.21 3.21 0 0 1-.805.1c-.193 0-.383-.013-.57-.038a3.779 3.779 0 0 1-.541-.111 3.025 3.025 0 0 1-.483-.182 1.8 1.8 0 0 1-.389-.248l.587-.834c.082.066.179.125.289.177.11.053.226.095.347.128.121.033.24.06.36.079.118.02.224.029.317.029.353 0 .621-.073.806-.22a.705.705 0 0 0 .276-.582c0-.247-.085-.433-.256-.557-.17-.124-.396-.186-.677-.186h-.76v-.892h.727c.121 0 .235-.017.343-.05a.948.948 0 0 0 .285-.142.667.667 0 0 0 .273-.548.548.548 0 0 0-.083-.308.659.659 0 0 0-.215-.203.907.907 0 0 0-.301-.113 1.824 1.824 0 0 0-.352-.033c-.187 0-.393.035-.62.104a1.58 1.58 0 0 0-.578.31l-.553-.807c.237-.185.515-.328.834-.426a3.54 3.54 0 0 1 1.041-.147zm7.18 4.05c0 .232-.036.448-.108.652a1.503 1.503 0 0 1-.826.903c-.204.09-.44.136-.71.136h-2.67v-5.692h2.562c.286 0 .533.042.74.124.206.083.377.196.512.34.134.143.235.309.301.496s.1.384.1.588c0 .21-.057.424-.17.646-.113.22-.29.39-.533.512.138.066.256.15.355.252a1.577 1.577 0 0 1 .397.692c.033.124.05.241.05.351zm-1.265-2.34c0-.21-.062-.369-.186-.48-.124-.11-.318-.164-.582-.164h-1.148v1.247h1.165c.236 0 .42-.055.553-.165a.542.542 0 0 0 .198-.438zm.066 2.3a.708.708 0 0 0-.206-.53c-.138-.133-.328-.2-.57-.2h-1.206v1.445h1.214c.253 0 .445-.064.574-.192.13-.13.194-.303.194-.522zm5.461-1.978l-.562.868-.243.384a49.34 49.34 0 0 1-.319.491 107.618 107.618 0 0 0-.706 1.09 54.2 54.2 0 0 1-.318.492c-.099.152-.182.28-.248.385h-1.024v-5.692h1.132v3.742h.033l1.187-1.859 1.211-1.884h1.03v5.693H88.77v-3.71h-.041zm4.412-.966v4.676h-1.132V25.17h-1.512v-1.017h4.147v1.017H93.14zm5.51.966l-.562.868-.244.384c-.096.151-.202.315-.318.491a107.507 107.507 0 0 0-.706 1.09c-.113.177-.219.341-.318.492-.1.152-.182.28-.248.385H95.23v-5.692h1.131v3.742h.033l1.187-1.859 1.212-1.884h1.03v5.693H98.69v-3.71h-.041zm6.361-1.982v5.692h-1.132V27.59h-.661c-.115 0-.22.011-.314.033a.724.724 0 0 0-.462.343 1.454 1.454 0 0 0-.157.376l-.43 1.504h-1.247l.479-1.562c.066-.21.14-.395.223-.557a.888.888 0 0 1 .388-.385 1.098 1.098 0 0 1-.429-.227 1.326 1.326 0 0 1-.285-.35 1.538 1.538 0 0 1-.162-.426 2.018 2.018 0 0 1 .054-1.086 1.6 1.6 0 0 1 .317-.558 1.58 1.58 0 0 1 .541-.393c.216-.099.474-.148.771-.148h2.506zm-1.132 1.016h-1.14c-.281 0-.487.069-.62.206-.132.138-.198.325-.198.562 0 .22.069.387.207.5.137.113.336.17.595.17h1.156V25.17zM69.215 39.354v-4.676h-2.098v4.676h-1.132v-5.692h4.379v5.692h-1.149zm3.239-3.156h1.156c.259 0 .454-.071.587-.216a.766.766 0 0 0 .198-.54.768.768 0 0 0-.203-.547c-.134-.145-.329-.217-.582-.217h-1.156v1.52zm1.412-2.536c.281 0 .523.054.727.161.204.108.373.247.508.417.135.171.234.362.298.575.063.212.095.42.095.623 0 .21-.038.419-.112.628-.074.21-.182.4-.322.57-.14.171-.314.31-.52.418a1.508 1.508 0 0 1-.707.16h-1.38v2.14h-1.131v-5.692h2.544zm6.551 3.875c0 .308-.058.578-.173.81a1.743 1.743 0 0 1-.47.586 2.03 2.03 0 0 1-.696.36 2.962 2.962 0 0 1-.846.119c-.297 0-.578-.04-.845-.12a2.03 2.03 0 0 1-.697-.36 1.741 1.741 0 0 1-.47-.586 1.788 1.788 0 0 1-.173-.81v-2.09a1.686 1.686 0 0 1 .668-1.379c.204-.154.438-.27.7-.347a2.9 2.9 0 0 1 .817-.116c.281 0 .552.042.817.124.264.083.497.203.7.36.204.157.365.352.487.586.12.234.181.503.181.806v2.056zm-1.132-1.86c0-.186-.03-.345-.09-.474a.908.908 0 0 0-.574-.5 1.328 1.328 0 0 0-.772 0 .906.906 0 0 0-.578.5c-.062.13-.092.288-.092.475v1.66c0 .188.03.347.09.48a.9.9 0 0 0 .24.322c.1.082.212.142.34.177a1.421 1.421 0 0 0 .772 0 .898.898 0 0 0 .574-.5c.06-.132.09-.291.09-.479v-1.66zm6.42.62l-.528 1.05-.643 1.222h-.815l-.635-1.198-.552-1.073H82.5v3.056h-1.132v-5.692h1.041l1.016 2.008.686 1.404h.05l.694-1.437.975-1.975h1.04v5.692h-1.131v-3.056h-.033zm3.28 2.041h1.172c.254 0 .456-.072.607-.215a.708.708 0 0 0 .228-.537.692.692 0 0 0-.228-.537c-.151-.137-.356-.206-.615-.206h-1.165v1.495zm-1.133 1.016v-5.692h1.132v2.165h1.314c.28 0 .531.044.751.132.22.088.408.21.562.365.154.154.273.338.355.555.083.214.124.45.124.703 0 .21-.033.42-.099.63-.066.209-.17.399-.31.567a1.62 1.62 0 0 1-.54.414 1.812 1.812 0 0 1-.802.161h-2.487zm5.907-5.692v5.692h-1.132v-5.692h1.132zm7.6 0v5.692h-6.6v-5.692h1.131v4.676h1.603v-4.676h1.132v4.676h1.603v-4.676h1.131zm2.669 1.016v1.512c0 .474-.028.903-.083 1.289a3.188 3.188 0 0 1-.297 1c-.144.28-.343.506-.599.677-.256.17-.586.284-.988.339l-.247-.925c.236-.078.427-.177.57-.298a1.22 1.22 0 0 0 .334-.463c.08-.187.132-.41.157-.669.025-.259.037-.564.037-.917v-2.56h3.751v5.691h-1.148V34.68h-1.487zm3.659-1.016h3.924v1.016h-2.792v1.306h2.388V37h-2.388v1.338h2.792v1.016h-3.924v-5.692zm7.981 5.692v-2.379h-2.099v2.38h-1.132v-5.693h1.132v2.297h2.099v-2.297h1.148v5.692h-1.148zm5.336 0v-2.379h-2.098v2.38h-1.132v-5.693h1.132v2.297h2.098v-2.297h1.149v5.692h-1.149zm6.444-1.817c0 .308-.058.578-.173.81a1.752 1.752 0 0 1-.47.586c-.198.16-.431.28-.697.36a2.96 2.96 0 0 1-.845.119 2.94 2.94 0 0 1-.846-.12 2.03 2.03 0 0 1-.696-.36 1.739 1.739 0 0 1-.47-.586 1.797 1.797 0 0 1-.173-.81v-2.09a1.686 1.686 0 0 1 .668-1.379c.203-.154.437-.27.7-.347.265-.077.536-.116.817-.116.281 0 .552.042.816.124.265.083.497.203.701.36.204.157.365.352.486.586.121.234.182.503.182.806v2.057zm-1.132-1.859c0-.187-.03-.346-.091-.475a.901.901 0 0 0-.574-.5 1.329 1.329 0 0 0-.772 0 .9.9 0 0 0-.578.5 1.11 1.11 0 0 0-.091.475v1.66c0 .188.03.347.091.48.06.132.14.24.239.322a.908.908 0 0 0 .339.178 1.422 1.422 0 0 0 .772 0 .892.892 0 0 0 .574-.5c.061-.133.091-.292.091-.48v-1.66zm5.42-.636a1.538 1.538 0 0 0-.57-.31 2.178 2.178 0 0 0-.595-.087c-.127 0-.254.018-.38.054a.907.907 0 0 0-.583.5 1.106 1.106 0 0 0-.095.48v1.66c0 .187.032.345.095.475.064.13.146.235.248.318.102.082.215.143.339.182.124.038.249.057.376.057.192 0 .387-.027.582-.082.196-.055.393-.16.591-.314l.537.876a2.275 2.275 0 0 1-.769.413 3.059 3.059 0 0 1-.958.148c-.27 0-.534-.038-.793-.115a2.21 2.21 0 0 1-.694-.343 1.755 1.755 0 0 1-.495-.57 1.632 1.632 0 0 1-.191-.806v-2.131c0-.303.063-.569.186-.797.124-.229.287-.42.488-.574.201-.154.431-.27.69-.347.259-.077.523-.116.793-.116.33 0 .648.044.954.132.306.088.569.229.789.422l-.545.875zm3.544-.364v4.676h-1.132V34.68h-1.512v-1.017h4.147v1.017h-1.503zm5.51.967l-.562.867a63.457 63.457 0 0 1-.562.876l-.355.545-.351.546c-.113.176-.219.34-.318.491l-.248.384h-1.024v-5.692h1.131v3.743h.034l1.186-1.86 1.212-1.883h1.03v5.692h-1.132v-3.71h-.041v.001zm-71.856 9.696c0 .22-.041.411-.123.576a1.24 1.24 0 0 1-.335.418 1.442 1.442 0 0 1-.496.255 2.08 2.08 0 0 1-.601.086c-.212 0-.412-.029-.602-.086a1.444 1.444 0 0 1-.496-.255 1.242 1.242 0 0 1-.334-.418 1.275 1.275 0 0 1-.124-.576v-1.488c0-.215.044-.406.13-.57.086-.165.2-.302.346-.412.145-.11.311-.192.498-.247.189-.055.382-.082.582-.082.2 0 .393.03.58.088.189.059.355.144.5.256.145.111.26.25.346.417.086.167.129.358.129.574v1.464zm-.806-1.323a.792.792 0 0 0-.064-.339.643.643 0 0 0-.41-.355.912.912 0 0 0-.549 0 .647.647 0 0 0-.412.356.794.794 0 0 0-.064.338V45.2c0 .133.021.247.065.34a.64.64 0 0 0 .411.357 1.01 1.01 0 0 0 .55 0 .64.64 0 0 0 .409-.356.812.812 0 0 0 .064-.341v-1.182zm2.276.37h.823c.184 0 .324-.05.418-.154a.546.546 0 0 0 .14-.384.547.547 0 0 0-.143-.39c-.096-.103-.234-.154-.415-.154h-.823v1.082zm1.006-1.805c.2 0 .372.038.517.114a1.135 1.135 0 0 1 .573.707c.045.15.068.298.068.443 0 .15-.027.298-.08.447a1.34 1.34 0 0 1-.229.406c-.1.121-.223.22-.37.297a1.074 1.074 0 0 1-.503.114h-.982v1.523H69.6v-4.051h1.81zm2.787.723v1.076c0 .337-.02.643-.059.918-.04.274-.11.511-.212.711-.102.2-.244.36-.426.482a1.662 1.662 0 0 1-.703.241l-.176-.658a1.2 1.2 0 0 0 .406-.212.87.87 0 0 0 .238-.33c.057-.133.094-.291.111-.475a6.84 6.84 0 0 0 .027-.653v-1.823h2.67v4.051h-.818v-3.328h-1.058zm5.68 2.035c0 .22-.04.411-.123.576a1.238 1.238 0 0 1-.334.418 1.442 1.442 0 0 1-.496.255c-.19.057-.39.086-.602.086-.212 0-.412-.029-.602-.086a1.445 1.445 0 0 1-.496-.255 1.242 1.242 0 0 1-.334-.418 1.273 1.273 0 0 1-.123-.576v-1.488c0-.215.043-.406.129-.57.086-.165.201-.302.346-.412.145-.11.312-.192.499-.247a2.055 2.055 0 0 1 1.162.006c.188.059.354.144.499.256a1.221 1.221 0 0 1 .476.991v1.464zm-.805-1.323a.794.794 0 0 0-.065-.339.645.645 0 0 0-.409-.355.912.912 0 0 0-.55 0 .648.648 0 0 0-.412.356.795.795 0 0 0-.064.338V45.2c0 .133.022.247.065.34a.64.64 0 0 0 .412.357 1.012 1.012 0 0 0 .55 0 .641.641 0 0 0 .409-.356.813.813 0 0 0 .064-.341v-1.182zm4.545 1.413c0 .165-.025.319-.076.464a1.07 1.07 0 0 1-.588.643 1.23 1.23 0 0 1-.506.096h-1.9v-4.051h1.824c.204 0 .379.03.526.088a.986.986 0 0 1 .58.595c.046.133.07.273.07.418 0 .15-.04.302-.12.46a.826.826 0 0 1-.38.365.879.879 0 0 1 .253.179 1.118 1.118 0 0 1 .317.743zm-.9-1.666c0-.15-.044-.263-.132-.341-.088-.078-.226-.118-.414-.118h-.818v.888h.83c.168 0 .3-.04.393-.117a.386.386 0 0 0 .142-.312zm.048 1.638a.504.504 0 0 0-.147-.378.559.559 0 0 0-.406-.143h-.859v1.03h.865c.18 0 .316-.047.408-.138a.502.502 0 0 0 .139-.371zm3.834-1.838a1.084 1.084 0 0 0-.406-.22 1.546 1.546 0 0 0-.424-.062c-.09 0-.18.012-.27.038a.648.648 0 0 0-.415.356.784.784 0 0 0-.067.34V45.2c0 .133.022.246.067.338a.66.66 0 0 0 .177.226.72.72 0 0 0 .24.13.898.898 0 0 0 .268.04c.138 0 .276-.019.415-.058.14-.04.28-.114.42-.223l.383.623a1.622 1.622 0 0 1-.547.294c-.216.07-.443.106-.682.106a1.97 1.97 0 0 1-.565-.083 1.572 1.572 0 0 1-.494-.244 1.164 1.164 0 0 1-.488-.98v-1.516c0-.215.044-.404.133-.567.088-.163.204-.3.347-.409.143-.11.306-.192.49-.247a1.97 1.97 0 0 1 .565-.082c.235 0 .462.031.68.094.217.063.404.163.56.3l-.387.623zm.917 3.07v-4.052h.805v1.629h.412c.078 0 .152-.007.22-.02a.533.533 0 0 0 .189-.077.54.54 0 0 0 .153-.16 1.11 1.11 0 0 0 .12-.26l.353-1.112h.823l-.364 1.182c-.063.2-.144.366-.242.5a.707.707 0 0 1-.335.264c.169.055.3.152.394.291.094.14.17.309.23.509l.388 1.305h-.877l-.335-1.176c-.031-.11-.07-.2-.114-.27a.498.498 0 0 0-.344-.244 1.203 1.203 0 0 0-.23-.02h-.44v1.71h-.806zm6.72-1.294c0 .22-.04.411-.123.576a1.24 1.24 0 0 1-.334.417 1.442 1.442 0 0 1-.496.256c-.19.057-.39.085-.601.085a2.08 2.08 0 0 1-.602-.085 1.445 1.445 0 0 1-.496-.256 1.242 1.242 0 0 1-.334-.417 1.275 1.275 0 0 1-.124-.576v-1.488a1.201 1.201 0 0 1 .476-.982c.145-.11.311-.192.498-.247.189-.055.382-.082.582-.082.2 0 .393.03.58.088.189.059.355.144.5.256.145.111.26.25.346.417.086.167.129.358.129.574v1.464zm-.805-1.323a.794.794 0 0 0-.064-.339.643.643 0 0 0-.41-.355.912.912 0 0 0-.549 0 .648.648 0 0 0-.412.356.795.795 0 0 0-.064.338V45.2c0 .133.021.246.064.34a.64.64 0 0 0 .412.356 1.012 1.012 0 0 0 .55 0 .64.64 0 0 0 .409-.356.813.813 0 0 0 .064-.34v-1.182zm3.911-.024l-.4.617a87.742 87.742 0 0 1-.4.624 72.066 72.066 0 0 0-.503.776l-.226.35-.177.273h-.729v-4.051h.806v2.664h.023l.845-1.324.863-1.34h.733v4.051h-.806v-2.64h-.03zm-.741-1.558a.858.858 0 0 1-.415-.091.854.854 0 0 1-.42-.512 1.446 1.446 0 0 1-.06-.285h.542a.46.46 0 0 0 .091.253.37.37 0 0 0 .109.097.295.295 0 0 0 .153.038.323.323 0 0 0 .273-.135.464.464 0 0 0 .091-.253h.535a1.873 1.873 0 0 1-.064.285.861.861 0 0 1-.418.511.853.853 0 0 1-.417.092zm6.85 2.904c0 .22-.041.412-.123.577a1.24 1.24 0 0 1-.335.417 1.438 1.438 0 0 1-.495.256 2.09 2.09 0 0 1-.602.085 2.08 2.08 0 0 1-.602-.085 1.445 1.445 0 0 1-.496-.256 1.237 1.237 0 0 1-.334-.417 1.278 1.278 0 0 1-.124-.577v-1.487c0-.216.044-.406.13-.57.086-.165.201-.302.346-.412.145-.11.312-.192.499-.247a2.055 2.055 0 0 1 1.162.006c.188.059.354.144.499.256.145.111.26.25.346.417.086.167.129.358.129.573v1.465zm-.805-1.323a.797.797 0 0 0-.065-.338.64.64 0 0 0-.171-.226.683.683 0 0 0-.238-.13.95.95 0 0 0-.55 0 .65.65 0 0 0-.411.356.796.796 0 0 0-.065.338V45.2c0 .134.022.247.065.342.043.094.1.17.17.229.071.059.151.1.241.126a1.016 1.016 0 0 0 .55 0 .636.636 0 0 0 .409-.356.817.817 0 0 0 .065-.34v-1.183zm1.47-1.434h2.646v.723h-1.841v.817h.924c.203 0 .385.032.543.094a1.111 1.111 0 0 1 .656.655 1.484 1.484 0 0 1 .018.949 1.151 1.151 0 0 1-.615.698c-.159.077-.35.115-.573.115h-1.758v-4.051zm.805 3.328h.824c.18 0 .326-.051.438-.153a.497.497 0 0 0 .167-.382.486.486 0 0 0-.167-.382.65.65 0 0 0-.444-.147h-.818v1.064zm3.899-2.605v1.076c0 .337-.02.643-.059.917-.039.275-.11.512-.212.712-.101.2-.244.36-.426.482a1.656 1.656 0 0 1-.703.241l-.176-.658a1.2 1.2 0 0 0 .406-.212.87.87 0 0 0 .238-.33c.057-.133.094-.291.112-.476.017-.184.026-.401.026-.652v-1.823h2.67v4.051h-.818v-3.328h-1.058zm4.828 2.493h-1.412l-.264.835h-.859l1.423-4.051h.824l1.411 4.051h-.876l-.247-.835zm-1.194-.676h.976l-.159-.517-.317-1.07h-.024l-.311 1.052-.165.535zm5.098-1.558a1.075 1.075 0 0 0-.406-.22 1.544 1.544 0 0 0-.423-.063c-.09 0-.18.013-.27.039a.636.636 0 0 0-.415.355.785.785 0 0 0-.068.341V45.2a.77.77 0 0 0 .068.339.663.663 0 0 0 .418.355.89.89 0 0 0 .267.041c.137 0 .275-.02.415-.058a1.25 1.25 0 0 0 .42-.224l.382.624a1.618 1.618 0 0 1-.547.294c-.215.07-.443.105-.682.105-.192 0-.38-.027-.564-.082a1.565 1.565 0 0 1-.494-.244 1.166 1.166 0 0 1-.488-.98v-1.516c0-.216.044-.405.132-.567.088-.163.204-.3.347-.41a1.52 1.52 0 0 1 .491-.246 1.97 1.97 0 0 1 .565-.082c.235 0 .461.031.679.094.217.063.405.162.561.3l-.388.623zm2.523-.259v3.328h-.806v-3.328h-1.076v-.723h2.952v.723h-1.07zm3.922.688l-.4.617-.173.274-.227.35-.253.388-.25.388c-.08.125-.155.242-.226.35l-.176.273h-.73v-4.051h.806v2.663h.024l.844-1.323.863-1.34h.733v4.051h-.806v-2.64h-.029z" fill="#fff"/><path fill-rule="evenodd" clip-rule="evenodd" d="M35.814 7.693c1.467.327 2.882.792 4.232 1.38l-2.414 4.489a18.41 18.41 0 0 0-6.972-1.363c-10.196 0-18.462 8.266-18.462 18.462 0 10.197 8.266 18.462 18.462 18.462 7.653 0 14.217-4.655 17.017-11.288l4.483 2.41a23.489 23.489 0 0 1-1.617 3.01l4.703 6.04-5.952 5.952-6.04-4.702a23.387 23.387 0 0 1-7.44 3.085l-.944 7.592h-8.418l-.945-7.592a23.392 23.392 0 0 1-7.44-3.085l-6.04 4.702-5.952-5.952 4.703-6.04a23.4 23.4 0 0 1-3.085-7.44L.1 34.87v-8.417l7.593-.946c.6-2.681 1.656-5.19 3.085-7.44l-4.703-6.04 5.952-5.951 6.04 4.702a23.393 23.393 0 0 1 7.44-3.085L26.452.1h8.418l.944 7.592v0z" fill="#fff" stroke="#fff" stroke-width=".2" stroke-miterlimit="22.926"/></g><defs><clipPath id="clip0"><path fill="#fff" d="M0 0h141.963v61.321H0z"/></clipPath></defs></svg>